<?xml version="1.0" encoding="utf-8" ?>
<svg baseProfile="full" height="200mm" version="1.1" viewBox="0,0,200,200" width="200mm" xmlns="http://www.w3.org/2000/svg" xmlns:ev="http://www.w3.org/2001/xml-events" xmlns:xlink="http://www.w3.org/1999/xlink"><defs /><rect fill="#1a1a1a" height="200" width="200" x="0" y="0" /><rect fill="#1a1a1a" height="200" width="180" x="10" y="0" /><text alignment-baseline="middle" fill="#e1ed5e" style="dominant-baseline: central; font-size:9.0px; font-family:Arial;" text-anchor="middle" x="100.0" y="100.0">2023</text><line stroke="#e1ed5e" stroke-width="0.3" x1="100.0" x2="100.0" y1="15.0" y2="10.0" /><path d="M 100.0 14.0 a86.0,86.0 0 0,1 42.46469731375804,11.215312516191453" fill="none" id="id25" stroke="none" /><text fill="#e1ed5e" style="font-size:6.75px; font-family:Arial;" text-anchor="middle"><textPath startOffset="22.20632615414155" xlink:href="#id25">January</textPath></text><path d="M 100.0 79.0 l 0.0 -9.860571449225596 a30.860571449225596,30.860571449225596 0 0,0 0.5312140075281035,0.004572326673041914 l -0.16973352825557514 9.859110499161112" fill="#ff6e0a" stroke="none" /><path d="M 100.72285384407766 79.0124445844662 l 0.7154859159324344 -20.773632778872837 a41.785950517774204,41.785950517774204 0 0,0 0.7186371003247577,0.030946025233280463 l -1.0729638486465236 20.758239027115362" fill="#fffe18" stroke="none" /><path d="M 101.08401301168833 79.027996857942 l 0.9809136109176296 -18.977376755111017 a40.002710859703974,40.002710859703974 0 0,0 0.68735696321319,0.0414632491114648 l -1.3074326229704314 18.957680236619247" fill="#ffe815" stroke="none" /><path d="M 101.44485096284872 79.0497635885617 l 0.8599003971329718 -12.46849472606242 a33.49811143440623,33.49811143440623 0 0,0 0.5749070475615974,0.04462385164567205 l -1.0743976340569104 12.451845612228285" fill="#ff930d" stroke="none" /><path d="M 101.80526077348638 79.07773832637324 l 1.8409203261117635 -21.335541850180963 a42.41481575190211,42.41481575190211 0 0,0 0.7268584013431657,0.06902396346715699 l -2.2079038545451732 21.30069234219863" fill="#f8ff18" stroke="none" /><path d="M 102.52436894288641 79.15227682838746 l 1.6083064319644471 -13.28234027090369 a34.37935770697413,34.37935770697413 0 0,0 0.5868806372052617,0.07619395029631126 l -1.8367017976775548 13.252687997443243" fill="#ff9e0e" stroke="none" /><path d="M 102.88285421437855 79.19881850522331 l 0.8619265026525601 -6.219214807120895 a27.278658305170513,27.278658305170513 0 0,0 0.4645568753436403,0.06846360749384192 l -0.9688523584248563 6.203456715466084" fill="#ff3c05" stroke="none" /><path d="M 103.59715602781102 79.31037775812273 l 3.3126322737814338 -19.05313804597339 a40.338965897384924,40.338965897384924 0 0,0 0.6830825277511323,0.12482896579288252 l -3.640109922635467 18.99329359882977" fill="#ffec16" stroke="none" /><path d="M 103.95276090670814 79.375362276772 l 2.3731233605228876 -12.382436160064984 a33.607792818029026,33.607792818029026 0 0,0 0.5672252703989993,0.11378005306374639 l -2.5859150403890125 12.339752150924028" fill="#ff940d" stroke="none" /><path d="M 104.307194497241 79.44645832069477 l 2.1383273737319395 -10.203904380949416 a31.425550756329855,31.425550756329855 0 0,0 0.5284838998609758,0.11550611110913196 l -2.313653997746443 10.165584771744413" fill="#ff760a" stroke="none" /><path d="M 105.36241919743992 79.69619591428918 l 3.2206366854400663 -12.194342494455974 a33.61247356911788,33.61247356911788 0 0,0 0.5581304991411254,0.15255814891701913 l -3.430065073804903 12.137097804712662" fill="#ff940d" stroke="none" /><path d="M 105.71112130821622 79.79150937346287 l 3.3852015373624313 -11.978350632880277 a33.447508719932046,33.447508719932046 0 0,0 0.552695843742733,0.16134707270644538 l -3.5908875988285915 11.918305231255129" fill="#ff920d" stroke="none" /><path d="M 106.40334571778207 80.00007090966166 l 1.9755597780136682 -6.170376739815227 a27.478918547702094,27.478918547702094 0 0,0 0.449237369696551,0.14810649770467607 l -2.0814799699526367 6.135456517851314" fill="#ff3f05" stroke="none" /><path d="M 106.74666289553966 80.11325718540242 l 2.480510905731818 -7.311656621187595 a28.72096217447093,28.72096217447093 0 0,0 0.46680863098880665,0.16286036532425235 l -2.6060015407838986 7.267875402691135" fill="#ff5107" stroke="none" /><path d="M 107.76421540070413 80.48803036053334 l 3.4262847063125728 -8.61047249663848 a30.26712811522961,30.26712811522961 0 0,0 0.4824236191143894,0.19679270717245345 l -3.5739921950153497 8.550218903282445" fill="#ff6609" stroke="none" /><path d="M 108.76106565485865 80.91482961587045 l 2.7526273003400807 -5.9963437212530035 a27.59796143350261,27.59796143350261 0 0,0 0.43003115736930647,0.20190539447317635 l -2.855436669008985 5.948073344139824" fill="#ff4106" stroke="none" /><path d="M 109.08828744355905 81.06846463323043 l 3.3450026683240717 -6.9678733986561365 a28.729185115572985,28.729185115572985 0 0,0 0.4439736212085553,0.2178559277707709 l -3.4644475565430586 6.909262310750534" fill="#ff5107" stroke="none" /><path d="M 109.41281617654863 81.2277094730956 l 2.8306663506003478 -5.645291496352793 a27.31521876637811,27.31521876637811 0 0,0 0.4184945317762365,0.21436915359158906 l -2.92742136996534 5.595729817448703" fill="#ff3c05" stroke="none" /><path d="M 109.73455568895987 81.39251694778311 l 5.898413935401118 -11.274745437268487 a33.724432074892015,33.724432074892015 0 0,0 0.5120572485761345,0.2735232485238428 l -6.091616230505563 11.17154346224289" fill="#ff960d" stroke="none" /><path d="M 110.05341064243156 81.56283822128135 l 2.9898781112871826 -5.483200517423492 a27.245387020403736,27.245387020403736 0 0,0 0.4098172116026182,0.22806283455717644 l -3.083819411961836 5.430922285306136" fill="#ff3b05" stroke="none" /><path d="M 110.36928655335952 81.73862282372117 l 6.220485024347424 -10.954912149881618 a33.597798781920375,33.597798781920375 0 0,0 0.5004524400455764,0.2898943552442681 l -6.408134196858328 10.8462136372473" fill="#ff940d" stroke="none" /><line stroke="#e1ed5e" stroke-width="0.3" x1="143.23703022742887" x2="145.7803849466894" y1="26.81831364943548" y2="22.513508569990506" /><path d="M 143.74570117128098 25.957352633546492 a86.0,86.0 0 0,1 28.547481713284135,27.462654790039103" fill="none" id="id26" stroke="none" /><text fill="#e1ed5e" style="font-size:6.75px; font-family:Arial;" text-anchor="middle"><textPath startOffset="19.985693538727396" xlink:href="#id26">February</textPath></text><path d="M 110.68208982089419 81.91981866633111 l 6.40794114587933 -10.845886885013847 a33.59741926156182,33.59741926156182 0 0,0 0.49538264193189274,0.2984624988897527 l -6.593685854028861 10.73397777666548" fill="#ff940d" stroke="none" /><path d="M 110.99172775467656 82.1063720568725 l 10.438098902955458 -16.992365747376383 a40.94227676070338,40.94227676070338 0 0,0 0.5973299741787471,0.37404797503157433 l -10.729048029506467 16.810173431021866" fill="#fff316" stroke="none" /><path d="M 111.2981086023043 82.29822771554956 l 11.494465467813406 -18.00942240909359 a42.364972078145044,42.364972078145044 0 0,0 0.6113325472098199,0.3976276940263783 l -11.802765040807506 17.808895790907687" fill="#f9ff18" stroke="none" /><path d="M 112.19680574252982 82.90503203632743 l 12.426783043441983 -17.41730273512478 a42.39596624076049,42.39596624076049 0 0,0 0.5904237568960505,0.42896796892967665 l -12.724752116691823 17.20081553137843" fill="#f9ff18" stroke="none" /><path d="M 112.48926042617603 83.11751280151076 l 12.052735573660815 -16.292410205702335 a41.26600762655197,41.26600762655197 0 0,0 0.5674151629144183,0.42736533695715406 l -12.331396890333616 16.082528279239334" fill="#fff717" stroke="none" /><path d="M 112.77801427241765 83.33499621200491 l 7.58271948585862 -9.889333840228149 a33.461803986771,33.461803986771 0 0,0 0.4540726086602914,0.3544108734397309 l -7.751824649678341 9.757344577565194" fill="#ff920d" stroke="none" /><path d="M 113.06298171725822 83.55741782278167 l 7.85239447621137 -9.883933412573148 a33.62347965951602,33.62347965951602 0 0,0 0.4500688505107578,0.3639243769224548 l -8.021366725286619 9.747302938386564" fill="#ff940d" stroke="none" /><path d="M 113.34407831869373 83.78471172551755 l 8.111078057304658 -9.856317219884179 a33.764661232898995,33.764661232898995 0 0,0 0.4456010179917444,0.3731780377688397 l -8.27953661225552 9.71523802472152" fill="#ff960d" stroke="none" /><path d="M 113.6212207817346 84.01681056812373 l 12.378728206014118 -14.52524417692009 a40.08443424357978,40.08443424357978 0 0,0 0.5213003604598876,0.4520665356117606 l -12.62692236512077 14.310012647888659" fill="#ffe915" stroke="none" /><path d="M 114.16331599549186 84.49514656593476 l 4.229140440295089 -4.629721083659007 a27.270561870854642,27.270561870854642 0 0,0 0.3438585613279601,0.31957905769452855 l -4.3082068854178965 4.556237439889838" fill="#ff3c05" stroke="none" /><path d="M 114.42810811169701 84.74124197986012 l 8.614936184597932 -9.110912226472472 a33.53897312634413,33.53897312634413 0 0,0 0.41606973768787836,0.40025875800411786 l -8.770489165898228 8.961270381706052" fill="#ff930d" stroke="none" /><path d="M 114.94478906791727 85.2469230424477 l 13.450571246362786 -13.278026997826668 a39.90036686967994,39.90036686967994 0 0,0 0.4783022967835692,0.4929325607943325 l -13.677137806849464 13.04453024148222" fill="#ffe615" stroke="none" /><path d="M 115.19652480421416 85.50635884689758 l 4.503050371354588 -4.294771141271662 a27.22274230567654,27.22274230567654 0 0,0 0.32049292778763744,0.34187950964069147 l -4.576310621112688 4.216622214752915" fill="#ff3b05" stroke="none" /><path d="M 115.4437574822437 85.77008943001954 l 14.22722863063725 -13.108998331876235 a40.34579726383894,40.34579726383894 0 0,0 0.4661982990707937,0.5147878058206428 l -14.450770570324078 12.862157738786042" fill="#ffec16" stroke="none" /><path d="M 115.9244219780498 86.31012108654704 l 14.99427664284194 -12.890253217244913 a40.77339020114579,40.77339020114579 0 0,0 0.4529523421940803,0.5361527046346043 l -15.213939598523138 12.630241562981203" fill="#fff116" stroke="none" /><path d="M 116.15771136456269 86.58626213691792 l 15.727485373855716 -13.05657473947998 a41.44084000506027,41.44084000506027 0 0,0 0.450918782417931,0.5527731100073948 l -15.949902648350056 12.783917459864485" fill="#fffa17" stroke="none" /><path d="M 116.38621287248628 86.86637796730983 l 9.801580858683808 -7.856010374242846 a33.56136482749896,33.56136482749896 0 0,0 0.35742201396987633,0.45388966096793715 l -9.935356953247648 7.68612831932187" fill="#ff930d" stroke="none" /><path d="M 116.60985879189232 87.15038557335679 l 9.941160432846498 -7.690617970685703 a33.568702221097716,33.568702221097716 0 0,0 0.34963251577172905,0.46007540729276597 l -10.07206888884234 7.518357787511904" fill="#ff940d" stroke="none" /><path d="M 116.82858285166822 87.43820079747576 l 10.040540450316392 -7.494823190604783 a33.52935861059404,33.52935861059404 0 0,0 0.3412608339772436,0.4654793940283213 l -10.168063896807261 7.320881352904968" fill="#ff930d" stroke="none" /><path d="M 117.04232023915458 87.72973835380427 l 13.11075647335825 -9.439583932829596 a37.155422623027846,37.155422623027846 0 0,0 0.36923180034662967,0.5222521965376379 l -13.271300893508762 9.212505235960165" fill="#ffc312" stroke="none" /><path d="M 117.2510076193507 88.02491185347247 l 12.964314245953284 -8.99940509448436 a36.781721576636,36.781721576636 0 0,0 0.35656469636131205,0.5232146941376309 l -13.11730340798333 8.774912377076323" fill="#ffbe11" stroke="none" /><path d="M 117.45458315368197 88.32363383020206 l 5.294553735488455 -3.541828961306005 a27.369996204796415,27.369996204796415 0 0,0 0.2585856827272588,0.393843735337576 l -5.354736053573639 3.4501671619907555" fill="#ff3d05" stroke="none" /><line stroke="#e1ed5e" stroke-width="0.3" x1="172.23445277983987" x2="176.4835382374775" y1="55.19839476539836" y2="52.563006222186495" /><path d="M 173.08426987136738 54.67131705675599 a86.0,86.0 0 0,1 12.851231095245387,41.99856678651699" fill="none" id="id27" stroke="none" /><text fill="#e1ed5e" style="font-size:6.75px; font-family:Arial;" text-anchor="middle"><textPath startOffset="22.20632615414155" xlink:href="#id27">March</textPath></text><path d="M 118.21658344932153 89.55222093294921 l 8.881954798750215 -5.094078243542973 a31.23907975349249,31.23907975349249 0 0,0 0.2635125843517838,0.4687594840375046 l -8.968325024394431 4.940435249570675" fill="#ff740a" stroke="none" /><path d="M 118.73160827565052 90.50648371742162 l 5.6498707507487715 -2.863456206076044 a27.33406827751974,27.33406827751974 0 0,0 0.20909258923959187,0.4215179009042759 l -5.698323352941771 2.765778716672818" fill="#ff3d05" stroke="none" /><path d="M 118.89224826269711 90.83032412892265 l 11.21295831802583 -5.4424011320672045 a33.463954602136155,33.463954602136155 0 0,0 0.2470624744148888,0.5203765799042003 l -11.304978986282476 5.248582136522463" fill="#ff920d" stroke="none" /><path d="M 119.04729006885535 91.15688171328212 l 9.381650073854368 -4.355634897551355 a31.343447852095494,31.343447852095494 0 0,0 0.22298278511824884,0.49131300951982654 l -9.455235175935965 4.193499879189466" fill="#ff750a" stroke="none" /><path d="M 119.196687751892 91.48605970444005 l 17.344080580852964 -7.692288818533755 a39.97336128530895,39.97336128530895 0 0,0 0.27354968454827694,0.6313903872421788 l -17.47392097524392 7.392599286704974" fill="#ffe715" stroke="none" /><path d="M 119.34039704204932 91.81776055985345 l 19.01522009433061 -8.044668549493899 a41.646919559756384,41.646919559756384 0 0,0 0.27363674796387694,0.6626330898666826 l -19.15087852918068 7.716160889173913" fill="#fffc17" stroke="none" /><path d="M 119.61058180528143 92.48833698450437 l 17.454231768884814 -6.685691864935441 a39.69087163175682,39.69087163175682 0 0,0 0.23889257393452723,0.6401133282292776 l -17.566728931320966 6.38425539967683" fill="#ffe415" stroke="none" /><path d="M 119.7369772167798 92.82701384747503 l 11.675205741008632 -4.243106134658576 a33.422333869481136,33.422333869481136 0 0,0 0.1918552085767575,0.5424005101467296 l -11.746514030395199 4.0415079980852315" fill="#ff920d" stroke="none" /><path d="M 119.85752413597 93.16781622104841 l 18.59584601102903 -6.398090547567043 a40.66573292610197,40.66573292610197 0 0,0 0.22204014228863272,0.6638717636402583 l -18.70322344708943 6.077045681004471" fill="#fff016" stroke="none" /><path d="M 119.97218684219823 93.5106431181261 l 20.600111366619647 -6.693381927606098 a42.66023891710191,42.66023891710191 0 0,0 0.2209079544463329,0.7003385841371467 l -20.712274804834188 6.337793177042532" fill="#f5ff19" stroke="none" /><path d="M 120.08093135843002 93.85539295169968 l 19.29184277807086 -5.903152149318615 a41.17479623371224,41.17479623371224 0 0,0 0.2015488685929957,0.6795225895859202 l -19.390597543775556 5.570200172986165" fill="#fff617" stroke="none" /><path d="M 120.18372546131832 94.20196356495316 l 6.053208684186475 -1.738862558704402 a27.298013843456886,27.298013843456886 0 0,0 0.125848041776628,0.4527423647994765 l -6.082243496529466 1.6344088904859737" fill="#ff3c05" stroke="none" /><path d="M 120.28053869075195 94.5502522615342 l 19.628258881416205 -5.27446835018232 a41.324580268555835,41.324580268555835 0 0,0 0.17868683201452296,0.6885532546981492 l -19.71614204530103 4.935818669935321" fill="#fff817" stroke="none" /><path d="M 120.37134235888165 94.90015583598534 l 9.280797698978809 -2.32339239843476 a30.567202212061517,30.567202212061517 0 0,0 0.12338553025608288,0.5115126801986517 l -9.319416029495711 2.163294486576702" fill="#ff6a09" stroke="none" /><path d="M 120.45610955862082 95.25157060432595 l 19.643159150737524 -4.559721097893576 a41.16543473153453,41.16543473153453 0 0,0 0.1542833702320494,0.6916220968215002 l -19.71873690797161 4.220920831522112" fill="#fff617" stroke="none" /><path d="M 120.53481517161879 95.60439243477599 l 6.129679254506852 -1.3120967624167335 a27.268537762275677,27.268537762275677 0 0,0 0.0942981148411883,0.459831097259481 l -6.151356665263037 1.2063900089938406" fill="#ff3c05" stroke="none" /><path d="M 120.6074358757038 95.95851677861258 l 6.215165616161005 -1.2189040745953994 a27.333562250375003,27.333562250375003 0 0,0 0.08657486219278528,0.46248637564761735 l -6.235226202263649 1.111739621485219" fill="#ff3d05" stroke="none" /><path d="M 120.67395015179393 96.31383870115 l 13.61674266649943 -2.4278625741628876 a34.83149296080097,34.83149296080097 0 0,0 0.10016233430353458,0.5911637669241105 l -13.656516862323187 2.193113018922939" fill="#ffa40f" stroke="none" /><path d="M 120.73433829027371 96.67025291283417 l 20.149776315813135 -3.2358717242543897 a41.40794824065205,41.40794824065205 0 0,0 0.10695891222980401,0.7047255931062744 l -20.202491121482236 2.888547018756033" fill="#fff917" stroke="none" /><path d="M 120.83666639777658 97.38593545837742 l 22.0159535067779 -2.762012037502336 a43.188531256212386,43.188531256212386 0 0,0 0.0861912428210156,0.7384339323855177 l -22.060235102602505 2.382634366791965" fill="#efff19" stroke="none" /><path d="M 120.87857604477298 97.74499172005257 l 13.754913914134535 -1.4856111211713976 a34.834908644027976,34.834908644027976 0 0,0 0.05925728873150749,0.5967128107110693 l -13.778448328548272 1.2486227797558935" fill="#ffa50f" stroke="none" /><path d="M 120.91429891909075 98.10471618934814 l 4.695288392205705 -0.4254937787068777 a25.714528400773496,25.714528400773496 0 0,0 0.03615403449386189,0.4411707956363934 l -4.701916910519062 0.34460906586271556" fill="#ff2503" stroke="none" /><path d="M 120.94382443527127 98.46500227214037 l 13.805596162363942 -1.0118285132913858 a34.842625557985286,34.842625557985286 0 0,0 0.038690925517460194,0.5985314927461296 l -13.820967678885816 0.7740379562922209" fill="#ffa50f" stroke="none" /><path d="M 120.96714384426684 98.82574320788733 l 19.11937158480878 -1.0707730204525001 a40.149332224892916,40.149332224892916 0 0,0 0.03270524791440585,0.6903560925196246 l -19.13497044095668 0.7415058213098757" fill="#ffe915" stroke="none" /><path d="M 120.98425023603335 99.18683210126433 l 10.241134275640249 -0.39685771690294164 a31.24882077602877,31.24882077602877 0 0,0 0.016202224214770848,0.5376729430545286 l -10.246448194310664 0.22051462642341396" fill="#ff740a" stroke="none" /><line stroke="#e1ed5e" stroke-width="0.3" x1="184.98032266829074" x2="189.97916517819016" y1="98.17113171792111" y2="98.06355123074" /><path d="M 185.9800911702706 98.14961562048488 a86.0,86.0 0 0,1 -9.607161424134198,41.387399972396054" fill="none" id="id28" stroke="none" /><text fill="#e1ed5e" style="font-size:6.75px; font-family:Arial;" text-anchor="middle"><textPath startOffset="21.466115282336823" xlink:href="#id28">April</textPath></text><path d="M 120.99980553446 99.90962569577887 l 19.953477595282536 -0.08587135016590704 a40.95366237146007,40.95366237146007 0 0,0 -0.003033891597907566,0.7049695609585345 l -19.951999406395124 -0.25760768899631215" fill="#fff417" stroke="none" /><path d="M 120.99824983174949 100.27111621757518 l 12.900845832449612 0.1665676212846031 a33.90192109591021,33.90192109591021 0 0,0 -0.012556524625800617,0.5834523594448524 l -12.896067245138804 -0.3886097965195704" fill="#ff980e" stroke="none" /><path d="M 120.9904718944345 100.63252640178507 l 11.607295086583179 0.34977396565918323 a32.61256393110802,32.61256393110802 0 0,0 -0.021738397013775838,0.5609714345298364 l -11.5995545567182 -0.5495226472030258" fill="#ff870c" stroke="none" /><path d="M 120.95626037817324 101.35467743843564 l 22.603482863937636 1.4611589908348013 a43.65066054614787,43.65066054614787 0 0,0 -0.05492384134304991,0.7493921779308033 l -22.574982463930247 -1.8500243052623748" fill="#e9ff1a" stroke="none" /><path d="M 120.92983693683757 101.71520430193887 l 22.16936986731336 1.8167842722541199 a43.24368821498925,43.24368821498925 0 0,0 -0.06718298983249064,0.7413586945332844 l -22.134812281203796 -2.198124355335975" fill="#eeff19" stroke="none" /><path d="M 120.89721153311464 102.0752229133903 l 12.607766506141392 1.2520295302920614 a33.6697811432599,33.6697811432599 0 0,0 -0.062237305378315774,0.5762401516296047 l -12.584346899262023 -1.4688660038064576" fill="#ff950d" stroke="none" /><path d="M 120.8583938346157 102.4346265915055 l 13.062082387784297 1.5246280885232566 a34.15075994433701,34.15075994433701 0 0,0 -0.07317774550325516,0.5832986318869943 l -13.033903133034194 -1.7492444746976459" fill="#ff9b0e" stroke="none" /><path d="M 120.81339534386255 102.79330883721812 l 16.07255177645077 2.1570531944488542 a37.2166519075416,37.2166519075416 0 0,0 -0.09067739584924667,0.6341974953734618 l -16.03304032958492 -2.4333961618027256" fill="#ffc412" stroke="none" /><path d="M 120.70491114924044 103.5080841355445 l 12.6329406558384 2.1404302766905428 a33.812986825221834,33.812986825221834 0 0,0 -0.10216925281897457,0.5730194282286274 l -12.594224960680236 -2.357568455652389" fill="#ff970d" stroke="none" /><path d="M 120.64145759157962 103.86396538481128 l 11.20054513919683 2.096679389857024 a32.39509876565521,32.39509876565521 0 0,0 -0.1073204377326959,0.5472245998759213 l -11.162794768488471 -2.28916771680089" fill="#ff840c" stroke="none" /><path d="M 120.5718875245553 104.21870165774334 l 15.227997730361652 3.122823765806935 a36.54490087289682,36.54490087289682 0 0,0 -0.13167643115560365,0.6151484490178575 l -15.171987260481606 -3.384486034240962" fill="#ffbb11" stroke="none" /><path d="M 120.41448212921028 104.9243191809786 l 9.878701199857856 2.3829102053003286 a31.16203712070555,31.16203712070555 0 0,0 -0.1302702039388222,0.5203647088522079 l -9.836219681623973 -2.5526027535499325" fill="#ff730a" stroke="none" /><path d="M 120.32669344350535 105.2749913415812 l 14.297221066212693 3.710279664646655 a35.770805848228,35.770805848228 0 0,0 -0.1597965765441464,0.594662507106358 l -14.23123641332677 -3.955833104928561" fill="#ffb110" stroke="none" /><path d="M 120.23288151984713 105.62410040840565 l 12.202694993590415 3.3919628219925477 a33.66535340574341,33.66535340574341 0 0,0 -0.1600023881773725,0.5569893035867576 l -12.142499968526941 -3.6015096010838876" fill="#ff950d" stroke="none" /><path d="M 120.13307415673323 105.97154293290107 l 25.191115016210702 7.471776226316737 a47.275839011078375,47.275839011078375 0 0,0 -0.2381199083182019,0.7781896379095725 l -25.058768335386368 -7.9042928367783665" fill="#beff1f" stroke="none" /><path d="M 120.02730092923936 106.31721596034902 l 20.140105984503787 6.3527980838734175 a42.11828384508341,42.11828384508341 0 0,0 -0.22404469901871607,0.6895386817612921 l -20.02776903446882 -6.698535665612505" fill="#fcff18" stroke="none" /><path d="M 119.9155931802556 106.66101706037122 l 11.179673581822412 3.7391804393618773 a32.78840836390581,32.78840836390581 0 0,0 -0.1836294029701421,0.5337130000494332 l -11.11365334790904 -3.931066142500611" fill="#ff890c" stroke="none" /><path d="M 119.79798401119884 107.00284435728193 l 15.093906966338896 5.338941640157641 a37.010319339273124,37.010319339273124 0 0,0 -0.21761316813568085,0.5987779775726016 l -14.999769537197988 -5.597967414736373" fill="#ffc112" stroke="none" /><path d="M 119.67450827220406 107.3425965602758 l 13.139332086678486 4.903645532034375 a35.02454231651998,35.02454231651998 0 0,0 -0.21566065124501538,0.5630219080244014 l -13.052977155839963 -5.12909100689192" fill="#ffa70f" stroke="none" /><path d="M 119.54520255179757 107.68017299344265 l 5.886909181288892 2.313226521401608 a27.325086295700576,27.325086295700576 0 0,0 -0.17578798684477617,0.43629136708086075 l -5.846218580186723 -2.414217256325282" fill="#ff3d05" stroke="none" /><path d="M 119.26925614724726 108.34839909993367 l 18.63232213872947 8.072447643230099 a41.305857264200384,41.305857264200384 0 0,0 -0.28827341118505145,0.6499804402643151 l -18.490607642813146 -8.391976419987103" fill="#fff817" stroke="none" /><path d="M 119.12269723197855 108.67885076344098 l 20.866213895368052 9.470147134531649 a43.91468020891692,43.91468020891692 0 0,0 -0.3183299533885073,0.6856543996367309 l -20.700109325139714 -9.82792160144721" fill="#e6ff1a" stroke="none" /><path d="M 118.97047184881838 109.00673069616215 l 5.847054630888999 2.776043044466775 a27.47259320839282,27.47259320839282 0 0,0 -0.2064980652520726,0.42544717712584346 l -5.798403309022212 -2.876279177557894" fill="#ff3f05" stroke="none" /><path d="M 118.81262510543309 109.33194174019688 l 17.228388535641404 8.546086321873801 a40.231561635913465,40.231561635913465 0 0,0 -0.31308072948174687,0.6177379812439885 l -17.07872913637339 -8.841378514820484" fill="#ffea16" stroke="none" /><path d="M 118.64920377521936 109.65438752849418 l 10.416991196631695 5.392705828375871 a32.73008873547431,32.73008873547431 0 0,0 -0.2633174474969079,0.49809737689314487 l -10.322621240909893 -5.57121822035515" fill="#ff880c" stroke="none" /><line stroke="#e1ed5e" stroke-width="0.3" x1="174.80103733775053" x2="179.2010983576182" y1="140.37084112569926" y2="142.7455964860345" /><path d="M 175.68104954172406 140.8457921977663 a86.0,86.0 0 0,1 -30.038265399797805,32.042727171017184" fill="none" id="id29" stroke="none" /><text fill="#e1ed5e" style="font-size:6.75px; font-family:Arial;" text-anchor="middle"><textPath startOffset="22.206326154141568" xlink:href="#id29">May</textPath></text><path d="M 118.48025628344425 109.97397251340804 l 2.829834122307178 1.527288762693264 a24.21567599804818,24.21567599804818 0 0,0 -0.2011326264351649,0.36511413990041475 l -2.8031250864205037 -1.5757734209914838" fill="#ff0f01" stroke="none" /><path d="M 118.30583269289576 110.29060199501025 l 7.77131389768045 4.3686348302722715 a29.915059729275477,29.915059729275477 0 0,0 -0.25619827510916815,0.4467032876697102 l -7.694963626418902 -4.501757963800297" fill="#ff6109" stroke="none" /><path d="M 118.12598468904814 110.60418214915192 l 9.585100283672398 5.607538076944471 a32.10489219814577,32.10489219814577 0 0,0 -0.28316381041635125,0.4745988338097488 l -9.48715559755782 -5.771699004640324" fill="#ff800b" stroke="none" /><path d="M 117.94076556474637 110.91462005526583 l 10.773062311991962 6.554005822257016 a33.61006994018037,33.61006994018037 0 0,0 -0.30494794223034455,0.4916731804139596 l -10.658649730093655 -6.7384753340362495" fill="#ff940d" stroke="none" /><path d="M 117.75023020441432 111.22182372390056 l 16.473061368689265 10.414388362493144 a40.48900294580088,40.48900294580088 0 0,0 -0.37750237445238544,0.5858920683783595 l -16.29135413085983 -10.696402030792955" fill="#ffee16" stroke="none" /><path d="M 117.55443506779139 111.5257021239791 l 17.722895209497004 11.636307871504677 a42.201525310393436,42.201525310393436 0 0,0 -0.40392264449142556,0.6038095485705979 l -17.519969459594854 -11.939654334281082" fill="#fbff18" stroke="none" /><path d="M 117.35343817320211 111.8261652097733 l 11.702873771380883 7.975371639217648 a35.16205519310357,35.16205519310357 0 0,0 -0.3451559123724413,0.49722283471687573 l -11.563856951846304 -8.175635736121542" fill="#ffa90f" stroke="none" /><path d="M 117.14729908036423 112.12312394758627 l 10.428616276341016 7.373021671073122 a33.77174561292538,33.77174561292538 0 0,0 -0.3396797676285916,0.4717854880040713 l -10.300156716336822 -7.551440764528325" fill="#ff960d" stroke="none" /><path d="M 116.93607887273984 112.41649034213515 l 17.58648943433188 12.893331322689916 a42.806480761932306,42.806480761932306 0 0,0 -0.4407818655810073,0.5904993404887654 l -17.36194630205578 -13.194143542687996" fill="#f4ff19" stroke="none" /><path d="M 116.71984013943494 112.70617746262583 l 17.952986139272895 13.643301967441687 a43.548822583268574,43.548822583268574 0 0,0 -0.4587001273142302,0.5929317479530587 l -17.715479194740595 -13.950311709507998" fill="#ebff1a" stroke="none" /><path d="M 116.498646956653 112.99209946851258 l 17.503281463112973 13.78321351996906 a43.27873059476262,43.27873059476262 0 0,0 -0.4659307512609241,0.581320252326093 l -17.263432799797194 -14.082461605873403" fill="#eeff19" stroke="none" /><path d="M 116.27256486870786 113.27417163493432 l 9.00956567180044 7.349457325788369 a32.62698570473316,32.62698570473316 0 0,0 -0.35874769098281256,0.43213470419435535 l -8.881721980924084 -7.5034532870964945" fill="#ff870c" stroke="none" /><path d="M 116.0416608686014 113.55231037782055 l 11.731066680053067 9.910635688737703 a36.357038295411414,36.357038295411414 0 0,0 -0.40799087638741643,0.4745855620682663 l -11.558733294094871 -10.111098349967497" fill="#ffb911" stroke="none" /><path d="M 115.80600337817218 113.82643327865902 l 8.145187302206532 7.125070524258149 a31.82177001066271,31.82177001066271 0 0,0 -0.36419432431374693,0.4091761841640188 l -8.021334128244446 -7.264220878163034" fill="#ff7c0b" stroke="none" /><path d="M 115.56566222782051 114.09645910891815 l 16.968549429492953 15.36693136916385 a43.89266802812065,43.89266802812065 0 0,0 -0.5119841283875946,0.5556576532713069 l -16.701518893109636 -15.656740277236493" fill="#e6ff1a" stroke="none" /><path d="M 115.32070863581623 114.36230785411682 l 9.348826562547787 8.764002263717913 a33.81437839986988,33.81437839986988 0 0,0 -0.4017364704742947,0.42121908317105483 l -9.196583540694528 -8.923628463471474" fill="#ff970d" stroke="none" /><path d="M 115.07121518719521 114.62390073753431 l 16.542301758066856 16.051325382563913 a44.04978945656299,44.04978945656299 0 0,0 -0.5327074760392378,0.5396298607548153 l -16.263553656972082 -16.333695737299394" fill="#e4ff1a" stroke="none" /><path d="M 114.81725581225074 114.88116024355365 l 17.093503503310355 17.167225023286427 a45.226049554515384,45.226049554515384 0 0,0 -0.5563881931554162,0.5445429511941845 l -16.795465357779143 -17.458918077403183" fill="#d6ff1c" stroke="none" /><path d="M 114.29624159901734 115.38237550388516 l 7.050414873002574 7.586058775206829 a31.356478051072596,31.356478051072596 0 0,0 -0.39852657709350797,0.3640445792009783 l -6.918788746442202 -7.70629612099439" fill="#ff750a" stroke="none" /><path d="M 114.0293411484842 115.62618273729858 l 10.565678787335472 11.768280899801315 a36.815372381761335,36.815372381761335 0 0,0 -0.4751946768889534,0.4193040524168059 l -10.361541757539932 -11.94840809399041" fill="#ffbf11" stroke="none" /><path d="M 113.75828350139079 115.86535959552629 l 14.50446767336183 16.725821600951154 a43.13894059602768,43.13894059602768 0 0,0 -0.5651910410409117,0.4816680667328411 l -14.214411155743871 -16.97301405790694" fill="#efff19" stroke="none" /><path d="M 113.48314897796784 116.09983520530334 l 8.157273048080603 9.740361989128905 a33.70495002981946,33.70495002981946 0 0,0 -0.4480027794871959,0.36867578764402004 l -7.988400140048716 -9.879332895630103" fill="#ff950d" stroke="none" /><path d="M 113.20401910651253 116.32954008644616 l 7.973207472325752 9.860543974272073 a33.68078723365803,33.68078723365803 0 0,0 -0.4539568793270477,0.3606507999266096 l -7.802293100281354 -9.996328688203809" fill="#ff950d" stroke="none" /><path d="M 112.92097659922987 116.55440617244103 l 14.406430833410225 18.457575995119875 a44.4142555075633,44.4142555075633 0 0,0 -0.6067225690699777,0.4652089939852817 l -14.086579535846752 -18.702824330932525" fill="#e0ff1b" stroke="none" /><path d="M 112.63410532772338 116.77436683061366 l 7.903669912847435 10.493743323103791 a34.13722371821517,34.13722371821517 0 0,0 -0.47241858479510423,0.34948397509814527 l -7.721866357633766 -10.628237246941705" fill="#ff9b0e" stroke="none" /><path d="M 112.04921762599082 117.19931262002967 l 5.12631971046799 7.317419107807733 a29.934415267561853,29.934415267561853 0 0,0 -0.42455997620395,0.29201622297762836 l -4.999602849641157 -7.404576120150455" fill="#ff6209" stroke="none" /><path d="M 111.7513745106137 117.40417183066458 l 11.405202417065542 16.89147958401279 a41.3813818155531,41.3813818155531 0 0,0 -0.5937741591489575,0.3935211351686516 l -11.11275355917662 -17.08529874027276" fill="#fff917" stroke="none" /><path d="M 111.45004920935366 117.60387380957326 l 6.256041079705051 9.618347982702758 a32.47391249344875,32.47391249344875 0 0,0 -0.4712091474042559,0.30074797236257284 l -6.089550130253865 -9.72461038388914" fill="#ff850c" stroke="none" /><path d="M 111.1453310114006 117.79835938074945 l 12.211865045437545 19.501543970796416 a44.00956029855602,44.00956029855602 0 0,0 -0.6455171416089774,0.39652935134755835 l -11.874368703896259 -19.70886178897235" fill="#e5ff1a" stroke="none" /><line stroke="#e1ed5e" stroke-width="0.3" x1="143.8653032363475" x2="146.44561519142675" y1="172.8068346515853" y2="177.08958963109032" /><path d="M 144.38136562736335 173.6633856474863 a86.0,86.0 0 0,1 -40.68145358897372,12.25698825130547" fill="none" id="id30" stroke="none" /><text fill="#e1ed5e" style="font-size:6.75px; font-family:Arial;" text-anchor="middle"><textPath startOffset="21.466115282336833" xlink:href="#id30">June</textPath></text><path d="M 110.8373102113329 117.98757091392108 l 12.667716818572352 21.025646599398726 a45.54687076428171,45.54687076428171 0 0,0 -0.6750309312363113,0.398820172556581 l -12.303918016307659 -21.240585344249055" fill="#d3ff1c" stroke="none" /><path d="M 110.5260780823613 118.17145234162733 l 17.068392072623542 29.465625342037306 a55.05221115789853,55.05221115789853 0 0,0 -0.8240824029142823,0.46793549560431047 l -16.55866090278806 -29.755064003436246" fill="#68ff28" stroke="none" /><path d="M 109.89434966115114 118.52300852407294 l 7.16188337210029 13.407614577307731 a36.2005494009,36.2005494009 0 0,0 -0.55216025269749,0.2888641475061571 l -6.930032216876304 -13.528908143758605" fill="#ffb710" stroke="none" /><path d="M 109.57404056367764 118.69057910512821 l 10.481099858883978 20.461353251878194 a43.98957222633871,43.98957222633871 0 0,0 -0.6769075413165868,0.3394154935861838 l -10.127338409884631 -20.638736586373682" fill="#e5ff1a" stroke="none" /><path d="M 109.2508944713604 118.85261126421891 l 9.982165366083802 20.34288509122437 a43.66002204832559,43.66002204832559 0 0,0 -0.6775356238276115,0.32525827320930745 l -9.630517074255957 -20.51169764093324" fill="#e9ff1a" stroke="none" /><path d="M 108.92500713936063 119.00905698771935 l 2.6632166678178133 5.6722909706063875 a27.26638714691052,27.26638714691052 0 0,0 -0.4265657532169518,0.19581541557290072 l -2.565182918833442 -5.717293456513363" fill="#ff3c05" stroke="none" /><path d="M 108.59647513512805 119.15986991738527 l 5.176196719145619 11.536735027635165 a33.644732799595175,33.644732799595175 0 0,0 -0.5304321636481006,0.2325258725789506 l -4.976843880839764 -11.62412545350857" fill="#ff950d" stroke="none" /><path d="M 108.2653958097858 119.30500536409082 l 5.004328977057223 11.688320797823769 a33.71456454556955,33.71456454556955 0 0,0 -0.5354652145982122,0.22382450312956745 l -4.802392302961549 -11.77273034397331" fill="#ff960d" stroke="none" /><path d="M 107.93186726928326 119.44442032107085 l 2.3226654142048444 5.693852537587168 a27.149368369688972,27.149368369688972 0 0,0 -0.4342333635311487,0.17279041690433292 l -2.2243109746318295 -5.73298979889757" fill="#ff3a05" stroke="none" /><path d="M 107.2578585660854 119.70592522655815 l 4.366021727192068 11.854253828478745 a33.63271465490756,33.63271465490756 0 0,0 -0.5449788057136524,0.19541001031174476 l -4.161323360848681 -11.92765137983045" fill="#ff940d" stroke="none" /><path d="M 106.91757812671514 119.82793768551818 l 4.39573065825874 12.59953584588771 a34.34431532720076,34.34431532720076 0 0,0 -0.5598618399070822,0.18993553329190993 l -4.178199085414431 -12.673334366077743" fill="#ff9e0e" stroke="none" /><path d="M 106.2309692047433 120.05430185196036 l 1.8477562519816024 5.94698198763005 a27.227423056765403,27.227423056765403 0 0,0 -0.4487663095928174,0.13520960779414462 l -1.7451149679485392 -5.97790696452992" fill="#ff3b05" stroke="none" /><path d="M 105.88484417918355 120.15858648285463 l 3.5480506508185425 12.153879306282203 a33.661178681799285,33.661178681799285 0 0,0 -0.557603567059984,0.15758433780263842 l -3.338315915653953 -12.21315243742336" fill="#ff950d" stroke="none" /><path d="M 105.53697534728816 120.25689768951611 l 16.61092604186447 60.77069306854833 a84.0,84.0 0 0,0 -1.3980382287540103,0.3692346027856641 l -15.562397370298964 -61.04761902063758" fill="#4dd2ff" stroke="none" /><path d="M 104.83641907484287 120.43548508189849 l 2.935694928284158 12.40429106402553 a33.746950282833026,33.746950282833026 0 0,0 -0.5664342854352141,0.1289185992133501 l -2.7217404934560814 -12.452986396816565" fill="#ff960d" stroke="none" /><path d="M 104.48393922423573 120.51570834832081 l 2.720254841992321 12.446188982620352 a33.73999240959283,33.73999240959283 0 0,0 -0.5684522574200913,0.11912469750015262 l -2.5056111231428515 -12.491169660847047" fill="#ff960d" stroke="none" /><path d="M 104.13013068566511 120.58985236759428 l 2.4922005577805693 12.424314255536574 a33.67180525183887,33.67180525183887 0 0,0 -0.5692657781065412,0.10910114123808959 l -2.2779671651023237 -12.465372595123132" fill="#ff950d" stroke="none" /><path d="M 103.7750983002368 120.6578951692458 l 0.46083766743172383 2.521771743863499 a23.56353351526214,23.56353351526214 0 0,0 -0.39962746177206826,0.06948035668252113 l -0.4173612341876056 -2.5293306790670265" fill="#ff0600" stroke="none" /><path d="M 103.41894727170886 120.7198165907248 l 7.467169996839252 45.25322577114239 a66.86516183832433,66.86516183832433 0 0,0 -1.137230370602945,0.17761199556435428 l -6.68710376262779 -45.37505607405385" fill="#37ff7a" stroke="none" /><path d="M 103.06178313531738 120.77559828337769 l 0.5606048025279452 3.803959868583435 a24.84504725932084,24.84504725932084 0 0,0 -0.4236333844845138,0.058711726933362865 l -0.49504282685660095 -3.8130461610094004" fill="#ff1902" stroke="none" /><path d="M 102.70371172650421 120.8252237178851 l 1.6295173290294909 12.551287401148498 a33.65662443749661,33.65662443749661 0 0,0 -0.5751637877750617,0.06964432475337375 l -1.4132261182030488 -12.577477254627222" fill="#ff950d" stroke="none" /><path d="M 102.34483914955558 120.86867818915974 l 2.077921393605236 18.49315458322016 a39.60952776823956,39.60952776823956 0 0,0 -0.6782045261573417,0.07029867214721251 l -1.7592842708422913 -18.526182623823132" fill="#ffe315" stroke="none" /><path d="M 101.98527174616119 120.90594882070398 l 1.8844647801650543 19.84439879564531 a40.93367429924277,40.93367429924277 0 0,0 -0.7020235902185381,0.06057354932526798 l -1.5425968722049745 -19.873896597249246" fill="#fff316" stroke="none" /><path d="M 101.62511606390274 120.93702456842531 l 0.9778264783442601 12.597732220789819 a33.635624310989826,33.635624310989826 0 0,0 -0.5776313662377364,0.03983684094488582 l -0.7608323513275934 -12.61269740625099" fill="#ff940d" stroke="none" /><path d="M 101.26447882468166 120.96189622390904 l 0.3790183849281351 6.283176828854643 a27.29459816022988,27.29459816022988 0 0,0 -0.469222647795356,0.024253451238949442 l -0.27080766871929957 -6.288770086855794" fill="#ff3c05" stroke="none" /><path d="M 100.90346689309514 120.98055641714683 l 0.4144107866556445 9.623561146238194 a30.632479713733215,30.632479713733215 0 0,0 -0.5269948332528992,0.01815076760888454 l -0.248695601728093 -9.629268712273172" fill="#ff6b09" stroke="none" /><line stroke="#e1ed5e" stroke-width="0.3" x1="102.19456741930631" x2="102.32365962044197" y1="184.97166512339345" y2="189.96999836594603" /><path d="M 102.22038585953345 185.97133177190398 a86.0,86.0 0 0,1 -42.740103519485714,-10.115201625700543" fill="none" id="id31" stroke="none" /><text fill="#e1ed5e" style="font-size:6.75px; font-family:Arial;" text-anchor="middle"><textPath startOffset="22.20632615414155" xlink:href="#id31">July</textPath></text><path d="M 100.18074693466247 120.99922214144158 l 0.05493324418012097 6.382157460333308 a27.382393869842588,27.382393869842588 0 0,0 -0.47136035768514845,0.0 l 0.054933244180116574 -6.382157460333308" fill="#ff3d05" stroke="none" /><path d="M 99.81925306533755 120.99922214144158 l -0.10891919450209948 12.654258093438413 a33.654726835703826,33.654726835703826 0 0,0 -0.5792464240035401,-0.009972252495182962 l 0.32672530839830743 -12.650508363664072" fill="#ff950d" stroke="none" /><path d="M 99.45781275523022 120.99299961872073 l -0.3284172040891897 12.716017034213278 a33.7202573509479,33.7202573509479 0 0,0 -0.5801163198662376,-0.019980379016277975 l 0.5472538756300703 -12.708479856770905" fill="#ff960d" stroke="none" /><path d="M 99.09653310690486 120.98055641714683 l -0.6330129936639143 14.70000165789611 a35.71362478087217,35.71362478087217 0 0,0 -0.6139545079094548,-0.03173443522063285 l 0.8859555699868581 -14.686927415913274" fill="#ffb010" stroke="none" /><path d="M 98.37488393609728 120.93702456842531 l -1.4398321367379592 18.549937134271996 a39.605732564654005,39.605732564654005 0 0,0 -0.6792490301509049,-0.05860846445228157 l 1.7589254846304059 -18.52240441754105" fill="#ffe315" stroke="none" /><path d="M 97.65516085044442 120.86867818915974 l -1.1615357829192103 10.33747515838298 a31.402526521244102,31.402526521244102 0 0,0 -0.5366431245417125,-0.06498000888899433 l 1.3393063305123123 -10.315949620768636" fill="#ff760a" stroke="none" /><path d="M 97.2962882734958 120.8252237178851 l -1.634957360093841 12.593189007313438 a33.698877704082555,33.698877704082555 0 0,0 -0.5746002197582633,-0.07963435468936503 l 1.8514861710389352 -12.563180087131467" fill="#ff950d" stroke="none" /><path d="M 96.93821686468263 120.77559828337769 l -2.2307253414270716 15.136491229394544 a36.299983734841774,36.299983734841774 0 0,0 -0.6173834448418875,-0.09642259695247636 l 2.490944649877476 -15.095850325094961" fill="#ffb811" stroke="none" /><path d="M 96.58105272829116 120.7198165907248 l -2.0721622784435763 12.557907140261273 a33.72772125133284,33.72772125133284 0 0,0 -0.5720077435031519,-0.09945087824427608 l 2.288018993418778 -12.520377683495992" fill="#ff960d" stroke="none" /><path d="M 96.22490169976321 120.6578951692458 l -3.9177341988812757 21.438419862174733 a42.793450562955194,42.793450562955194 0 0,0 -0.7234790873368677,-0.13865648898284738 l 4.286180900789838 -21.367806174843416" fill="#f4ff19" stroke="none" /><path d="M 95.86986931433489 120.58985236759428 l -2.496878083361473 12.447633023993658 a33.69558852764173,33.69558852764173 0 0,0 -0.5677041396781735,-0.11896792215352411 l 2.710773684469033 -12.402809121113593" fill="#ff950d" stroke="none" /><path d="M 95.51606077576429 120.51570834832081 l -2.1900393404981897 10.020253650665406 a31.256790703558455,31.256790703558455 0 0,0 -0.5246375675070878,-0.1194058022913359 l 2.36219705739814 -9.981071114796384" fill="#ff740a" stroke="none" /><path d="M 95.16358092515715 120.4354850818985 l -0.5016795284894432 2.1197634782451122 a23.178320351327418,23.178320351327418 0 0,0 -0.38746062973824213,-0.09522839591937338 l 0.5380934429708958 -2.110813824011709" fill="#ff0000" stroke="none" /><path d="M 94.81253420990036 120.34920634021253 l -5.0897783458388215 19.9660015075358 a41.60453978638425,41.60453978638425 0 0,0 -0.6924373465605208,-0.1828789966917421 l 5.432706135210832 -19.875431161540476" fill="#fffc17" stroke="none" /><path d="M 94.46302465271185 120.25689768951611 l -3.325574124542775 12.166536886020076 a33.612853089476445,33.612853089476445 0 0,0 -0.5568030448051138,-0.1573581022172114 l 3.5345083374525026 -12.107489990464343" fill="#ff940d" stroke="none" /><path d="M 94.11515582081647 120.15858648285463 l -6.12736503189828 20.989343837592966 a42.86543292429472,42.86543292429472 0 0,0 -0.7065142412643542,-0.21286694526825492 l 6.48775424760288 -20.880761523218986" fill="#f3ff19" stroke="none" /><path d="M 93.76903079525671 120.05430185196036 l -3.7455107026313685 12.054882595654265 a33.623353152729834,33.623353152729834 0 0,0 -0.5512287046168627,-0.17648602398956142 l 3.9524607523391717 -11.988623725004997" fill="#ff940d" stroke="none" /><path d="M 93.42475214034765 119.94407469862007 l -2.675429017237202 8.115124678122118 a29.544774366110637,29.544774366110637 0 0,0 -0.4816224047171457,-0.16339246893566617 l 2.814721154891574 -8.06786922228833" fill="#ff5c08" stroke="none" /><path d="M 92.7421414339146 119.70592522655815 l -3.955032079536339 10.738369412731378 a32.44355086476424,32.44355086476424 0 0,0 -0.5223871757931078,-0.19752213099116958 l 4.13928947608973 -10.668699031633576" fill="#ff840c" stroke="none" /><path d="M 92.40401165467489 119.57807347666478 l -4.577525732833317 11.798219147333183 a33.65510635606238,33.65510635606238 0 0,0 -0.5382876623129074,-0.21419576982558017 l 4.779934471188082 -11.717676533101535" fill="#ff950d" stroke="none" /><path d="M 92.06813273071674 119.44442032107085 l -4.768227729093406 11.688978269987528 a33.62411219344695,33.62411219344695 0 0,0 -0.5340286221701878,-0.2232240073781429 l 4.968727810761056 -11.605169219589413" fill="#ff940d" stroke="none" /><path d="M 91.7346041902142 119.30500536409082 l -7.673370820609032 17.922246951214593 a40.495834312254885,40.495834312254885 0 0,0 -0.638444452536817,-0.2798752858391887 l 7.980735947803592 -17.787507112080952" fill="#ffee16" stroke="none" /><path d="M 91.40352486487194 119.15986991738527 l -2.572277642858966 5.7331062154979495 a27.283718576617932,27.283718576617932 0 0,0 -0.4268368927092371,-0.19593988241525662 l 2.670582531335623 -5.687979262748618" fill="#ff3c05" stroke="none" /><path d="M 91.07499286063937 119.00905698771935 l -5.314873768801117 11.319961628726805 a33.505575334791175,33.505575334791175 0 0,0 -0.5199544072843806,-0.2496097130738011 l 5.50894084408574 -11.22679763915344" fill="#ff930d" stroke="none" /><path d="M 90.7491055286396 118.85261126421891 l -5.589078593408424 11.390112207301122 a33.687492093325865,33.687492093325865 0 0,0 -0.5183800680917218,-0.2599265275348764 l 5.784312569182907 -11.292217838856944" fill="#ff950d" stroke="none" /><path d="M 90.10565033884886 118.52300852407294 l -6.1142680874034365 11.446395546957515 a33.977066126904376,33.977066126904376 0 0,0 -0.5135021765861986,-0.2800023294779718 l 6.3103930758582765 -11.339452565719778" fill="#ff990e" stroke="none" /><line stroke="#e1ed5e" stroke-width="0.3" x1="58.666819895761336" x2="56.23545636021788" y1="174.27360380694188" y2="178.64263932499728" /><path d="M 58.180547188652646 175.14741091055294 a86.0,86.0 0 0,1 -31.652253787137756,-30.449443065178592" fill="none" id="id32" stroke="none" /><text fill="#e1ed5e" style="font-size:6.75px; font-family:Arial;" text-anchor="middle"><textPath startOffset="22.20632615414155" xlink:href="#id32">August</textPath></text><path d="M 89.7882731507175 118.34994917583269 l -10.554806028304345 18.96644485685257 a42.7055283465563,42.7055283465563 0 0,0 -0.6392635950010148,-0.3629905529965646 l 10.879718390226566 -18.781951138061373" fill="#f5ff19" stroke="none" /><path d="M 89.4739219176387 118.17145234162733 l -3.1440823713258492 5.42771415162084 a27.27258597943361,27.27258597943361 0 0,0 -0.4041954760447914,-0.2388058117685582 l 3.237045718399023 -5.372789767558532" fill="#ff3c05" stroke="none" /><path d="M 89.1626897886671 117.98757091392108 l -9.931736503410574 16.484516099452318 a40.245224368821496,40.245224368821496 0 0,0 -0.5903031528089592,-0.3626124097933635 l 10.214018856151842 -16.311115222830576" fill="#ffeb16" stroke="none" /><path d="M 88.8546689885994 117.79835938074946 l -5.55490672370453 8.87082008546019 a31.466538955053945,31.466538955053945 0 0,0 -0.4565917641049677,-0.29141846674341343 l 5.706780289856421 -8.773887189892973" fill="#ff770a" stroke="none" /><path d="M 88.24862548938628 117.40417183066458 l -5.526223341237225 8.184518374310501 a30.87549924999548,30.87549924999548 0 0,0 -0.4379073754972509,-0.3011966859196422 l 5.666287601357366 -8.088180899025758" fill="#ff6f0a" stroke="none" /><path d="M 87.95078237400918 117.19931262002967 l -3.610649656742881 5.153919045645676 a27.292827065223285,27.292827065223285 0 0,0 -0.3824539595734037,-0.27287074537319167 l 3.6988309441651714 -5.091004038428265" fill="#ff3c05" stroke="none" /><path d="M 87.65650970185807 116.9893568818739 l -13.417900935060542 18.46815625769059 a43.82789655359369,43.82789655359369 0 0,0 -0.6065259739721302,-0.4486934155564433 l 13.733811879451236 -18.23445289339438" fill="#e7ff1a" stroke="none" /><path d="M 87.07902340077011 116.55440617244103 l -4.205102680117319 5.387594136470424 a27.83440261688323,27.83440261688323 0 0,0 -0.3751580526379599,-0.29804824630780385 l 4.297218225472637 -5.31441197615749" fill="#ff4406" stroke="none" /><path d="M 86.79598089348748 116.32954008644616 l -8.004070064349358 9.898712044884194 a33.72987186669799,33.72987186669799 0 0,0 -0.4483340380169299,-0.36894839086201836 l 8.173274230910977 -9.759468535164995" fill="#ff960d" stroke="none" /><path d="M 86.24171649860922 115.8653595955263 l -8.383072095302802 9.666936525458025 a33.79552888872824,33.79552888872824 0 0,0 -0.4362160258502914,-0.384909924845232 l 8.548230474059682 -9.521203458840505" fill="#ff970d" stroke="none" /><path d="M 85.97065885151581 115.62618273729859 l -4.280918663330321 4.768179532360951 a27.407948240652054,27.407948240652054 0 0,0 -0.3483425587437696,-0.3182026682900809 l 4.362360771540946 -4.6937840974842935" fill="#ff3e05" stroke="none" /><path d="M 85.70375840098266 115.38237550388516 l -9.093842390155594 9.784732403244849 a34.35810456689498,34.35810456689498 0 0,0 -0.4297448984750729,-0.4063506248322936 l 9.260923123021485 -9.626747141666625" fill="#ff9e0e" stroke="none" /><path d="M 85.44109423537348 115.13401014063109 l -11.36960914702714 11.818730260909467 a37.399707227151964,37.399707227151964 0 0,0 -0.4601055306317173,-0.4503101011005429 l 11.571364630034651 -11.621270056886354" fill="#ffc612" stroke="none" /><path d="M 85.18274418774928 114.88116024355367 l -15.130830108893695 15.1960869354952 a42.444418339869515,42.444418339869515 0 0,0 -0.5132932357845106,-0.5199633378758499 l 15.39016396973374 -14.933383103638686" fill="#f8ff18" stroke="none" /><path d="M 84.9287848128048 114.62390073753433 l -10.22778771720259 9.92422644645279 a35.25124247736432,35.25124247736432 0 0,0 -0.4188073358978194,-0.43911781731919924 l 10.397101604479367 -9.746701512551091" fill="#ffaa0f" stroke="none" /><path d="M 84.67929136418377 114.36230785411682 l -9.291604294014805 8.710359585933391 a33.73594419243489,33.73594419243489 0 0,0 -0.39351146236155016,-0.42707897293574754 l 9.440162164372083 -8.5491293581963" fill="#ff960d" stroke="none" /><path d="M 84.19399662182784 113.82643327865904 l -15.161571599285132 13.26271120545399 a41.143802071096815,41.143802071096815 0 0,0 -0.4617069115614891,-0.537069446440614 l 15.387621020417399 -12.999764659851845" fill="#fff617" stroke="none" /><path d="M 83.95833913139862 113.55231037782056 l -12.537599861634561 10.592010771800204 a37.41286393291526,37.41286393291526 0 0,0 -0.4113704732166178,-0.49552223533690265 l 12.718066334744716 -10.37462727934954" fill="#ffc612" stroke="none" /><path d="M 83.72743513129214 113.27417163493432 l -9.786144198718697 7.982942995533068 a33.62917246489437,33.62917246489437 0 0,0 -0.3620454060347856,-0.451707311054433 l 9.922107516808342 -7.813307850900375" fill="#ff940d" stroke="none" /><path d="M 83.50135304334701 112.99209946851258 l -11.376581336311228 8.958654410953223 a35.48047277393237,35.48047277393237 0 0,0 -0.37371612854636993,-0.48307847358727946 l 11.529104282075666 -8.76149794325269" fill="#ffad10" stroke="none" /><path d="M 83.28015986056508 112.70617746262583 l -18.350840153759528 13.94564957783316 a44.04852438870114,44.04852438870114 0 0,0 -0.4535712913220661,-0.607632866286993 l 18.58817271177668 -13.62770383203686" fill="#e4ff1a" stroke="none" /><path d="M 82.85270091963577 112.12312394758628 l -10.694091120385469 7.560712130324671 a34.09686805342201,34.09686805342201 0 0,0 -0.33469987853070626,-0.48216013812000824 l 10.82265190607831 -7.37551073001765" fill="#ff9b0e" stroke="none" /><path d="M 82.6465618267979 111.8261652097733 l -18.870095990519165 12.85974977873691 a43.83536045397864,43.83536045397864 0 0,0 -0.4195605392595706,-0.62718607947155 l 19.088659635189465 -12.533026785059539" fill="#e7ff1a" stroke="none" /><path d="M 82.44556493220864 111.52570212397912 l -10.620814445650213 6.973300088660741 a33.705456056964195,33.705456056964195 0 0,0 -0.3142554463624899,-0.48773143145277187 l 10.739274755389749 -6.78944705728652" fill="#ff950d" stroke="none" /><path d="M 82.24976979558568 111.22182372390057 l -9.023907837882932 5.704979703996365 a31.676034192977067,31.676034192977067 0 0,0 -0.28740021851662073,-0.4633806624705661 l 9.12077269606751 -5.548802710160535" fill="#ff7a0b" stroke="none" /><path d="M 82.05923443525364 110.91462005526583 l -8.6749527938116 5.277579342983796 a31.15419369996205,31.15419369996205 0 0,0 -0.2747786893064111,-0.4605448885182251 l 8.764512358816244 -5.1274723605794605" fill="#ff730a" stroke="none" /><line stroke="#e1ed5e" stroke-width="0.3" x1="26.63291911575756" x2="22.317208475507996" y1="142.92168965132927" y2="145.44649492493687" /><path d="M 25.769776987707644 143.4266507060508 a86.0,86.0 0 0,1 -11.730757126820373,-40.83630448921669" fill="none" id="id33" stroke="none" /><text fill="#e1ed5e" style="font-size:6.75px; font-family:Arial;" text-anchor="middle"><textPath startOffset="21.46611528233685" xlink:href="#id33">September</textPath></text><path d="M 81.87401531095188 110.60418214915194 l -6.702177809680089 3.9209519101488373 a28.764860029277283,28.764860029277283 0 0,0 -0.24634774558199007,-0.429528059135476 l 6.768677551414457 -3.8050040051550544" fill="#ff5107" stroke="none" /><path d="M 81.51974371655577 109.97397251340807 l -15.619473111764492 8.429980250339936 a38.74915511539226,38.74915511539226 0 0,0 -0.31174155072144516,-0.5896975310941901 l 15.762267170710823 -8.15986770415962" fill="#ffd814" stroke="none" /><path d="M 81.35079622478065 109.6543875284942 l -20.181256329045976 10.44750605767856 a43.7251730432111,43.7251730432111 0 0,0 -0.3402679020260586,-0.671380851921653 l 20.358102900858302 -10.09857099405422" fill="#e8ff1a" stroke="none" /><path d="M 81.18737489456691 109.33194174019688 l -11.507616105101722 5.708315690102539 a33.845625576057685,33.845625576057685 0 0,0 -0.2544010369056325,-0.5241414871237038 l 11.604170398622074 -5.50938524701355" fill="#ff970e" stroke="none" /><path d="M 81.02952815118164 109.00673069616217 l -11.547830043430368 5.482636180855271 a33.78325773046825,33.78325773046825 0 0,0 -0.24488901678187697,-0.527469155798475 l 11.64049367705207 -5.283046957777969" fill="#ff960d" stroke="none" /><path d="M 80.87730276802145 108.67885076344099 l -15.0394007899234 6.825643550379894 a37.51584045687022,37.51584045687022 0 0,0 -0.2618228991787269,-0.5903415184213041 l 15.154664773833407 -6.565753695465894" fill="#ffc812" stroke="none" /><path d="M 80.73074385275274 108.34839909993369 l -11.689079786718619 5.064290101537493 a33.73898035530334,33.73898035530334 0 0,0 -0.2262905846960247,-0.5348840970633102 l 11.77452135260695 -4.862331478808024" fill="#ff960d" stroke="none" /><path d="M 80.45479744820244 107.68017299344265 l -13.283870969682667 5.219819380196227 a35.27262212422966,35.27262212422966 0 0,0 -0.21718818163806888,-0.5670098078637759 l 13.371753430914245 -4.9903860054992935" fill="#ffaa0f" stroke="none" /><path d="M 80.32549172779594 107.34259656027581 l -11.790790498348809 4.400365008279316 a33.585148103301826,33.585148103301826 0 0,0 -0.19747385625257996,-0.543363240760601 l 11.864788615606614 -4.196753970512598" fill="#ff940d" stroke="none" /><path d="M 80.20201598880116 107.00284435728193 l -20.453110404571774 7.234572404165038 a42.69490177651672,42.69490177651672 0 0,0 -0.2391100914712672,-0.6949658507683185 l 20.57461132698627 -6.881433850307423" fill="#f5ff19" stroke="none" /><path d="M 80.0844068197444 106.66101706037122 l -19.228021179725204 6.431050080009971 a41.27498960837113,41.27498960837113 0 0,0 -0.21955886564184954,-0.6757327062267966 l 19.335872296383304 -6.099118473805371" fill="#fff817" stroke="none" /><path d="M 79.97269907076064 106.31721596034903 l -3.839956469471686 1.2112383182187179 a25.02645799071079,25.02645799071079 0 0,0 -0.12605377306748686,-0.4119510238070473 l 3.8602370150453034 -1.1449603218596227" fill="#ff1b02" stroke="none" /><path d="M 79.86692584326677 105.97154293290107 l -22.069135595440272 6.5457857888092414 a44.019427827878474,44.019427827878474 0 0,0 -0.2092125246325239,-0.7282962443505399 l 22.1785407569589 -6.164932068954106" fill="#e5ff1a" stroke="none" /><path d="M 79.76711848015287 105.62410040840567 l -14.80885209488241 4.116391974773777 a36.37032150796089,36.37032150796089 0 0,0 -0.16247475355856808,-0.6046290000833263 l 14.877514924782751 -3.8608720415149116" fill="#ffb911" stroke="none" /><path d="M 79.58551787078972 104.9243191809786 l -21.7764806327013 5.252856310294672 a43.40106265700396,43.40106265700396 0 0,0 -0.16893229998076284,-0.7277559269480696 l 21.863673498612616 -4.877231725998028" fill="#ecff1a" stroke="none" /><path d="M 79.50377843672027 104.57218783832718 l -6.360657918616108 1.418901658994479 a27.516997090343917,27.516997090343917 0 0,0 -0.0991476207741733,-0.46318467631439075 l 6.384139578114722 -1.3092031632639245" fill="#ff3f05" stroke="none" /><path d="M 79.4281124754447 104.21870165774334 l -21.883291290751732 4.487632801558905 a43.33869481141452,43.33869481141452 0 0,0 -0.1435750429893926,-0.7320860510066929 l 21.957296266716792 -4.110283023484257" fill="#edff1a" stroke="none" /><path d="M 79.35854240842038 103.8639653848113 l -22.519717201100228 4.215565075999645 a43.91088500533136,43.91088500533136 0 0,0 -0.13268104160109748,-0.7441457434336914 l 22.588944685040513 -3.827300581832739" fill="#e6ff1a" stroke="none" /><path d="M 79.29508885075956 103.50808413554451 l -12.623461241821795 2.13882415620608 a33.80337230947174,33.80337230947174 0 0,0 -0.09226428559290682,-0.5745297944601783 l 12.658407281775993 -1.921215132052688" fill="#ff970d" stroke="none" /><path d="M 79.23777060512086 103.15116336523772 l -7.909206308559557 1.2004106444266092 a28.999783131223683,28.999783131223683 0 0,0 -0.07065721067723255,-0.4941763669092758 l 7.928697570253388 -1.0640888055369326" fill="#ff5407" stroke="none" /><path d="M 79.18660465613746 102.79330883721812 l -11.578335891382737 1.5538967780774005 a32.68214266351002,32.68214266351002 0 0,0 -0.07003081402081648,-0.5582144916784317 l 11.603368214650402 -1.35436453211156" fill="#ff880c" stroke="none" /><path d="M 79.1416061653843 102.43462659150553 l -12.428787579222416 1.4507088599665459 a33.5131657419623,33.5131657419623 0 0,0 -0.06194780778651282,-0.5735597634736269 l 12.451917688509981 -1.2365527746081368" fill="#ff930d" stroke="none" /><path d="M 79.10278846688536 102.07522291339032 l -6.317667942513863 0.6273836704347191 a27.348743064717258,27.348743064717258 0 0,0 -0.0424887516095684,-0.4688598334810256 l 6.327531290400506 -0.5185424484051273" fill="#ff3d05" stroke="none" /><path d="M 79.07016306316243 101.71520430193888 l -6.463323881807526 0.5296706782931878 a27.484990873438996,27.484990873438996 0 0,0 -0.034583240188361605,-0.4718608358579105 l 6.4714836806602225 -0.4183367059385167" fill="#ff3f05" stroke="none" /><path d="M 79.04373962182676 101.35467743843564 l -10.261307333530183 0.6633226197201536 a31.282724594726474,31.282724594726474 0 0,0 -0.030111334201894532,-0.537658099825039 l 10.271205018619609 -0.48659280355967705" fill="#ff740a" stroke="none" /><path d="M 79.0235259727143 100.99374915477108 l -10.189446823114492 0.48271955309951226 a31.200874704064482,31.200874704064482 0 0,0 -0.020797414239705818,-0.5366888502939772 l 10.1962463702054 -0.3072534557915383" fill="#ff730a" stroke="none" /><line stroke="#e1ed5e" stroke-width="0.3" x1="15.007084014347285" x2="10.007500721073583" y1="101.09737516637583" y2="101.16192664675087" /><path d="M 14.007167355692545 101.11028546245083 a86.0,86.0 0 0,1 10.666146001902534,-42.60595125391555" fill="none" id="id34" stroke="none" /><text fill="#e1ed5e" style="font-size:6.75px; font-family:Arial;" text-anchor="middle"><textPath startOffset="22.20632615414155" xlink:href="#id34">October</textPath></text><path d="M 79.05617556472873 98.46500227214037 l -9.581100390906355 -0.7022102088321774 a30.606798836137564,30.606798836137564 0 0,0 0.043032454012846555,-0.5251049361657871 l 9.567593453074013 0.867029062205743" fill="#ff6b09" stroke="none" /><path d="M 79.12142395522702 97.74499172005258 l -6.43806090400421 -0.6953482179149801 a27.475502864475086,27.475502864475086 0 0,0 0.054832791719001545,-0.4697738736268084 l 6.425137759281619 0.8060658298666503" fill="#ff3f05" stroke="none" /><path d="M 79.16333360222342 97.38593545837743 l -25.120635502950204 -3.1515100005773538 a46.31755010572353,46.31755010572353 0 0,0 0.10605395823440178,-0.7902251734943732 l 25.062665545657968 3.5834535161363865" fill="#c9ff1d" stroke="none" /><path d="M 79.21141760316559 97.0276538004421 l -24.994162997021718 -3.5736590392349696 a46.248350893680076,46.248350893680076 0 0,0 0.11946192733968211,-0.7871048409430115 l 24.928945176242735 4.003362992570073" fill="#caff1d" stroke="none" /><path d="M 79.26566170972629 96.67025291283419 l -6.2686777376608696 -1.0066929141958116 a27.348996078289627,27.348996078289627 0 0,0 0.07864547440279197,-0.46417004179033855 l 6.250420401737855 1.1144487443019782" fill="#ff3d05" stroke="none" /><path d="M 79.32604984820605 96.31383870115002 l -21.783624883885604 -3.8840160881725296 a43.12717546491244,43.12717546491244 0 0,0 0.1365987074219537,-0.7297157571334121 l 21.713540452553787 4.258409922768514" fill="#f0ff19" stroke="none" /><path d="M 79.3925641242962 95.95851677861259 l -19.41989419420582 -3.8085852611840836 a40.7898360833499,40.7898360833499 0 0,0 0.14105650551832521,-0.6878416161056501 l 19.351458392772503 4.142302533453136" fill="#fff116" stroke="none" /><path d="M 79.54389044137918 95.25157060432595 l -15.602190562696064 -3.621700406546373 a37.01702419894096,37.01702419894096 0 0,0 0.1494204516200896,-0.6194442373109209 l 15.537537310815159 3.8897298755166907" fill="#ffc112" stroke="none" /><path d="M 79.62865764111835 94.90015583598534 l -12.367688256724998 -3.0961770543762115 a33.749353911770555,33.749353911770555 0 0,0 0.14593167296171228,-0.5623342651973787 l 12.312560251892977 3.308607745122454" fill="#ff960d" stroke="none" /><path d="M 79.71946130924805 94.55025226153421 l -17.859687516002406 -4.799221220609056 a39.49326803173513,39.49326803173513 0 0,0 0.1820700390019325,-0.6550028022142558 l 17.77443070643411 5.105935326242254" fill="#ffe115" stroke="none" /><path d="M 79.81627453868168 94.20196356495316 l -24.616146909440875 -7.071306877659135 a46.61167838360471,46.61167838360471 0 0,0 0.2281621744552518,-0.769249426770427 l 24.490778837873915 7.493985691176101" fill="#c6ff1e" stroke="none" /><path d="M 79.91906864156998 93.8553929516997 l -12.1433510596647 -3.715769910237589 a33.699130717654924,33.699130717654924 0 0,0 0.17450455558683078,-0.5532271288802876 l 12.077591020309667 3.924247205544291" fill="#ff950d" stroke="none" /><path d="M 80.02781315780177 93.51064311812611 l -19.194349698993676 -6.236622273585198 a41.182133627311,41.182133627311 0 0,0 0.2248597566647607,-0.6723020517375868 l 19.084152648557144 6.566097428245107" fill="#fff617" stroke="none" /><path d="M 80.14247586403 93.16781622104843 l -18.70625929531086 -6.436079364535638 a40.78249868975114,40.78249868975114 0 0,0 0.2341049797108323,-0.6618463025581339 l 18.59270123479022 6.757123293520383" fill="#fff116" stroke="none" /><path d="M 80.38941819471856 92.48833698450439 l -11.863528370953873 -4.54422149134694 a33.704064482316156,33.704064482316156 0 0,0 0.21218546284598083,-0.5399888587682203 l 11.783549358226201 4.747759355010924" fill="#ff950d" stroke="none" /><path d="M 80.52162464483688 92.15188598940014 l -23.585521146290894 -9.502941368590056 a46.427990530063425,46.427990530063425 0 0,0 0.3050502768857926,-0.7387034418498589 l 23.418449182518902 9.907519380893225" fill="#c8ff1d" stroke="none" /><path d="M 80.65960295795068 91.81776055985345 l -11.96467083198797 -5.061829979861136 a33.99136139374333,33.99136139374333 0 0,0 0.23261306749408384,-0.5369030309986051 l 11.875767054651206 5.267032155446341" fill="#ff990e" stroke="none" /><path d="M 80.803312248108 91.48605970444005 l -23.363319235820644 -10.361886782279894 a46.55803950626209,46.55803950626209 0 0,0 0.33122205852210934,-0.7298039008058502 l 23.181494860335185 10.762512691927816" fill="#c7ff1e" stroke="none" /><path d="M 80.95270993114464 91.15688171328213 l -23.075930930050376 -10.713502343529447 a46.441653262971464,46.441653262971464 0 0,0 0.3428760858507719,-0.7221844811055218 l 22.888096650357852 11.1091292402755" fill="#c8ff1d" stroke="none" /><path d="M 81.26839172434947 90.50648371742162 l -14.650011380858652 -7.424889498940267 a37.42412303688576,37.42412303688576 0 0,0 0.29616839147550855,-0.5721030638250334 l 14.52003355622303 7.675965285025636" fill="#ffc712" stroke="none" /><path d="M 81.43458229118936 90.18545643968196 l -11.203737880335513 -5.922817099491085 a33.67294381291454,33.67294381291454 0 0,0 0.2753034156261379,-0.5100954178126319 l 11.100126365490905 6.114793500636189" fill="#ff950d" stroke="none" /><path d="M 81.6062741919709 89.86733742301443 l -11.32672513582939 -6.239621330743208 a33.931650190663795,33.931650190663795 0 0,0 0.28622535950544425,-0.5091629766763177 l 11.217642135031516 6.433667817354309" fill="#ff980e" stroke="none" /><line stroke="#e1ed5e" stroke-width="0.3" x1="26.266209847984243" x2="21.928928074336255" y1="57.711370442889674" y2="55.22380399835377" /><path d="M 25.398753493254645 57.213857153982495 a86.0,86.0 0 0,1 29.58750427330803,-30.492523968695096" fill="none" id="id35" stroke="none" /><text fill="#e1ed5e" style="font-size:6.75px; font-family:Arial;" text-anchor="middle"><textPath startOffset="21.46611528233685" xlink:href="#id35">November</textPath></text><path d="M 81.78341655067845 89.55222093294921 l -22.30293889665788 -12.791431433147988 a46.71073319718793,46.71073319718793 0 0,0 0.4060282115973563,-0.6940338295984357 l 22.079451010590198 13.173444675100315" fill="#c5ff1e" stroke="none" /><path d="M 81.96595687620814 89.24020034530311 l -21.930832217745987 -13.084773020887791 a46.537671913686225,46.537671913686225 0 0,0 0.4163663493867085,-0.6843968022315383 l 21.70235007007306 13.460337596326404" fill="#c7ff1e" stroke="none" /><path d="M 82.15384107792192 88.93136811851018 l -5.313994598518049 -3.295871693625626 a27.25310393436105,27.25310393436105 0 0,0 0.250692742702816,-0.39653571496347556 l 5.25647425956927 3.386855056303317" fill="#ff3c05" stroke="none" /><path d="M 82.34701348167596 88.62581576622439 l -22.478236129962877 -14.48319233276014 a47.74011891637901,47.74011891637901 0 0,0 0.4510381057820283,-0.6869619790518006 l 22.22560138882293 14.867972375789607" fill="#b9ff1f" stroke="none" /><path d="M 82.7489923806493 88.02491185347247 l -21.041575652385948 -14.606377131067136 a46.61433502611462,46.61433502611462 0 0,0 0.46322968838972267,-0.6552055430649929 l 20.787033344192345 14.966409174463914" fill="#c6ff1e" stroke="none" /><path d="M 82.95767976084542 87.72973835380427 l -20.929840634914964 -15.069228673074496 a46.790305965698586,46.790305965698586 0 0,0 0.4762303693712462,-0.6495776886239318 l 20.66734765303008 15.427268805369929" fill="#c4ff1e" stroke="none" /><path d="M 83.17141714833178 87.43820079747576 l -5.268087807076781 -3.932396553950154 a27.573925144127372,27.573925144127372 0 0,0 0.2871943262609554,-0.377914068818896 l 5.199617540591717 4.022495398650077" fill="#ff4006" stroke="none" /><path d="M 83.39014120810768 87.1503855733568 l -20.07883869210928 -15.533264825484721 a46.38586377026367,46.38586377026367 0 0,0 0.4940004357306394,-0.6273303868482211 l 19.808484175784667 15.876587606285991" fill="#c9ff1d" stroke="none" /><path d="M 83.6137871275137 86.86637796730984 l -10.234337424885894 -8.202866674529664 a34.11597057813601,34.11597057813601 0 0,0 0.37121670101816684,-0.4550677822914668 l 10.091622231791336 8.377818626429214" fill="#ff9b0e" stroke="none" /><path d="M 83.84228863543731 86.58626213691792 l -15.24294578522691 -12.654321791676555 a40.81108922342906,40.81108922342906 0 0,0 0.4533711413264762,-0.5366484307113127 l 15.02286403041331 12.914829172016985" fill="#fff216" stroke="none" /><path d="M 84.07557802195018 86.31012108654704 l -8.664088912400358 -7.448328628168952 a32.42558690112591,32.42558690112591 0 0,0 0.3675025481300793,-0.42011894175171316 l 8.534594500692435 7.596363126123608" fill="#ff840c" stroke="none" /><path d="M 84.31358615837235 86.03803664274999 l -9.562249790951416 -8.511045452583971 a33.801348200892775,33.801348200892775 0 0,0 0.3905767665094304,-0.43128462080763935 l 9.41432938382594 8.674382860661165" fill="#ff970d" stroke="none" /><path d="M 84.5562425177563 85.77008943001954 l -19.01621781971968 -17.521583025698142 a46.85773408273543,46.85773408273543 0 0,0 0.5516553849367106,-0.5884675015910991 l 18.711795112812517 17.84631994416729" fill="#c3ff1e" stroke="none" /><path d="M 84.80347519578584 85.50635884689758 l -9.010220307382394 -8.593471305319904 a33.451177416731426,33.451177416731426 0 0,0 0.4009931798570716,-0.4132587201383454 l 8.860962863822204 8.747294221008373" fill="#ff920d" stroke="none" /><path d="M 85.05521093208273 85.24692304244772 l -9.105752781084764 -8.988943967377839 a33.79514936836969,33.79514936836969 0 0,0 0.4122432093416454,-0.41047290599027186 l 8.949673771575805 9.144352724018221" fill="#ff970d" stroke="none" /><path d="M 86.10567301691215 84.25364557470407 l -8.485467267221367 -9.616527322017914 a33.82500496990946,33.82500496990946 0 0,0 0.4398961246707609,-0.38147358450608776 l 8.31867734390383 9.761165899943682" fill="#ff970d" stroke="none" /><path d="M 86.65592168130627 83.78471172551755 l -8.213490456042095 -9.980765422955827 a33.92583087849927,33.92583087849927 0 0,0 0.4541159886105558,-0.36719688113957344 l 8.04047106886704 10.120668401359534" fill="#ff980e" stroke="none" /><path d="M 87.22198572758235 83.33499621200491 l -7.807798635326688 -10.182880615064729 a33.831709829577285,33.831709829577285 0 0,0 0.46519220658192983,-0.3503731255516562 l 7.631360274986369 10.31577033012224" fill="#ff970d" stroke="none" /><path d="M 88.09926311788651 82.69761687909137 l -12.166282634867105 -17.688457898948524 a42.468581136030934,42.468581136030934 0 0,0 0.6058755973128505,-0.4090899078760318 l 11.860002343147714 17.89525971912322" fill="#f8ff18" stroke="none" /><path d="M 88.39885842347998 82.49532879139004 l -14.095052607057063 -21.267670938001384 a46.51439466502811,46.51439466502811 0 0,0 0.6712093028184264,-0.436573201454525 l 13.726876278454348 21.507143063615445" fill="#c7ff1e" stroke="none" /><path d="M 88.70189139769569 82.29822771554957 l -6.885285818197165 -10.787802273579107 a33.79780601087958,33.79780601087958 0 0,0 0.49309525969389584,-0.30877620638367287 l 6.698571406131027 10.904722821285711" fill="#ff970d" stroke="none" /><path d="M 89.00827224532344 82.1063720568725 l -13.417404793918156 -21.842430480736695 a46.63432309833192,46.63432309833192 0 0,0 0.687607402262193,-0.4142757661712404 l 13.039435325438314 22.070152856366555" fill="#c6ff1e" stroke="none" /><line stroke="#e1ed5e" stroke-width="0.3" x1="56.762969772571076" x2="54.21961505331055" y1="26.818313649435495" y2="22.513508569990535" /><path d="M 56.25429882871897 25.957352633546506 a86.0,86.0 0 0,1 42.265352541879196,-11.944610805530505" fill="none" id="id36" stroke="none" /><text fill="#e1ed5e" style="font-size:6.75px; font-family:Arial;" text-anchor="middle"><textPath startOffset="22.20632615414155" xlink:href="#id36">December</textPath></text><path d="M 89.3179101791058 81.91981866633112 l -9.775651124172441 -16.545970680194696 a40.21802540979162,40.21802540979162 0 0,0 0.5990633219988382,-0.34701614296360406 l 9.489391069708283 16.711790980548347" fill="#ffea16" stroke="none" /><path d="M 91.56875222667455 80.76684994638697 l -2.5664161756297417 -5.854443936764754 a27.392261399165054,27.392261399165054 0 0,0 0.43347111303791064,-0.1855897086685693 l 2.465261304801523 5.897753173396109" fill="#ff3e05" stroke="none" /><path d="M 93.25333710446033 80.11325718540243 l -2.710549110713508 -7.9897267561319145 a29.43699058428063,29.43699058428063 0 0,0 0.4812487870986665,-0.1586601587262249 l 2.572617501372432 8.035200639117374" fill="#ff5b08" stroke="none" /><path d="M 94.98787191387505 79.60689891045804 l -3.1061190284515674 -12.638024857887391 a34.01413261525671,34.01413261525671 0 0,0 0.5697793410744013,-0.1348483612001261 l 2.888116000414632 12.689619131228389" fill="#ff9a0e" stroke="none" /><path d="M 95.33964822691252 79.52364482259891 l -2.8779530033974363 -12.644965605760053 a33.96833715865758,33.96833715865758 0 0,0 0.571245972189821,-0.12485224384651972 l 2.6598643070540944 12.692631347702442" fill="#ff990e" stroke="none" /><path d="M 95.692805502759 79.44645832069477 l -2.640326132387846 -12.59939694939572 a33.87307754865993,33.87307754865993 0 0,0 0.5717026903795079,-0.11467818139045599 l 2.4230570325412013 12.642979086863386" fill="#ff980e" stroke="none" /><path d="M 96.04723909329186 79.375362276772 l -3.9915505832545506 -20.827033730740936 a42.20607955469611,42.20607955469611 0 0,0 0.7146994194652077,-0.13060675066354577 l 3.63245604268645 20.892655962755217" fill="#fbff18" stroke="none" /><path d="M 96.40284397218896 79.31037775812273 l -2.2285599323618963 -12.817921376629636 a34.01021090488497,34.01021090488497 0 0,0 0.5776404248966309,-0.09531561952209193 l 2.00759030132638 12.854383259091355" fill="#ff990e" stroke="none" /><path d="M 96.75951476605007 79.25152402106235 l -1.2899551458708227 -8.259443085128222 a29.359568431135127,29.359568431135127 0 0,0 0.49999487581912916,-0.07368624757020516 l 1.1475912896230447 8.280423816859395" fill="#ff5a08" stroke="none" /><path d="M 97.11714578562143 79.19881850522333 l -1.849379485955781 -13.344163623749347 a34.47170766088952,34.47170766088952 0 0,0 0.5884571180767495,-0.07639862275873682 l 1.6194076393711738 13.374020569672222" fill="#ffa00e" stroke="none" /><path d="M 97.47563105711357 79.15227682838746 l -1.5463069489546353 -12.770312081753975 a33.86358953969602,33.86358953969602 0 0,0 0.5792823286351826,-0.06508911923013545 l 1.3262579168097346 12.795037154454707" fill="#ff980e" stroke="none" /><path d="M 97.83486435360386 79.11191278185805 l -2.630890432853652 -25.381443843619383 a46.51743082789655,46.51743082789655 0 0,0 0.797164500346571,-0.0757003747188628 l 2.1936008054168443 25.422969762853427" fill="#c7ff1e" stroke="none" /><path d="M 98.19473922651362 79.07773832637324 l -1.0999215651370553 -12.747657925242228 a33.795022861583504,33.795022861583504 0 0,0 0.5800027519066142,-0.04501937637560594 l 0.8803286238681068 12.764702563806296" fill="#ff970d" stroke="none" /><path d="M 98.55514903715128 79.0497635885617 l -1.9241613973823743 -27.90020369259712 a48.96647570166085,48.96647570166085 0 0,0 0.8413791794157945,-0.05075428980922967 l 1.443620169126957 27.92919125178666" fill="#abff21" stroke="none" /><path d="M 98.91598698831166 79.02799685794201 l -0.6272946819124313 -12.136040710040966 a33.15224188097518,33.15224188097518 0 0,0 0.5701540991505136,-0.02455203486043081 l 0.4182997503725937 12.145040471425588" fill="#ff8e0d" stroke="none" /><path d="M 99.27714615592234 79.0124445844662 l -0.43634507793395144 -12.668973926699246 a33.676486002927724,33.676486002927724 0 0,0 0.5795135743662168,-0.014967125894297169 l 0.21820486837285571 12.674607844735904" fill="#ff950d" stroke="none" /></svg>