<?xml version="1.0" encoding="utf-8" ?>
<svg baseProfile="full" height="200mm" version="1.1" viewBox="0,0,200,200" width="200mm" xmlns="http://www.w3.org/2000/svg" xmlns:ev="http://www.w3.org/2001/xml-events" xmlns:xlink="http://www.w3.org/1999/xlink"><defs /><rect fill="#1a1a1a" height="200" width="200" x="0" y="0" /><rect fill="#1a1a1a" height="200" width="180" x="10" y="0" /><text alignment-baseline="middle" fill="#e1ed5e" style="dominant-baseline: central; font-size:9.0px; font-family:Arial;" text-anchor="middle" x="100.0" y="100.0">2021</text><line stroke="#e1ed5e" stroke-width="0.3" x1="100.0" x2="100.0" y1="15.0" y2="10.0" /><path d="M 100.0 14.0 a86.0,86.0 0 0,1 42.46469731375804,11.215312516191453" fill="none" id="id1" stroke="none" /><text fill="#e1ed5e" style="font-size:6.75px; font-family:Arial;" text-anchor="middle"><textPath startOffset="22.20632615414155" xlink:href="#id1">January</textPath></text><line stroke="#e1ed5e" stroke-width="0.3" x1="143.23703022742887" x2="145.7803849466894" y1="26.81831364943548" y2="22.513508569990506" /><path d="M 143.74570117128098 25.957352633546492 a86.0,86.0 0 0,1 28.547481713284135,27.462654790039103" fill="none" id="id2" stroke="none" /><text fill="#e1ed5e" style="font-size:6.75px; font-family:Arial;" text-anchor="middle"><textPath startOffset="19.985693538727396" xlink:href="#id2">February</textPath></text><line stroke="#e1ed5e" stroke-width="0.3" x1="172.23445277983987" x2="176.4835382374775" y1="55.19839476539836" y2="52.563006222186495" /><path d="M 173.08426987136738 54.67131705675599 a86.0,86.0 0 0,1 12.851231095245387,41.99856678651699" fill="none" id="id3" stroke="none" /><text fill="#e1ed5e" style="font-size:6.75px; font-family:Arial;" text-anchor="middle"><textPath startOffset="22.20632615414155" xlink:href="#id3">March</textPath></text><line stroke="#e1ed5e" stroke-width="0.3" x1="184.98032266829074" x2="189.97916517819016" y1="98.17113171792111" y2="98.06355123074" /><path d="M 185.9800911702706 98.14961562048488 a86.0,86.0 0 0,1 -9.607161424134198,41.387399972396054" fill="none" id="id4" stroke="none" /><text fill="#e1ed5e" style="font-size:6.75px; font-family:Arial;" text-anchor="middle"><textPath startOffset="21.466115282336823" xlink:href="#id4">April</textPath></text><line stroke="#e1ed5e" stroke-width="0.3" x1="174.80103733775053" x2="179.2010983576182" y1="140.37084112569926" y2="142.7455964860345" /><path d="M 175.68104954172406 140.8457921977663 a86.0,86.0 0 0,1 -30.038265399797805,32.042727171017184" fill="none" id="id5" stroke="none" /><text fill="#e1ed5e" style="font-size:6.75px; font-family:Arial;" text-anchor="middle"><textPath startOffset="22.206326154141568" xlink:href="#id5">May</textPath></text><line stroke="#e1ed5e" stroke-width="0.3" x1="143.8653032363475" x2="146.44561519142675" y1="172.8068346515853" y2="177.08958963109032" /><path d="M 144.38136562736335 173.6633856474863 a86.0,86.0 0 0,1 -40.68145358897372,12.25698825130547" fill="none" id="id6" stroke="none" /><text fill="#e1ed5e" style="font-size:6.75px; font-family:Arial;" text-anchor="middle"><textPath startOffset="21.466115282336833" xlink:href="#id6">June</textPath></text><line stroke="#e1ed5e" stroke-width="0.3" x1="102.19456741930631" x2="102.32365962044197" y1="184.97166512339345" y2="189.96999836594603" /><path d="M 102.22038585953345 185.97133177190398 a86.0,86.0 0 0,1 -42.740103519485714,-10.115201625700543" fill="none" id="id7" stroke="none" /><text fill="#e1ed5e" style="font-size:6.75px; font-family:Arial;" text-anchor="middle"><textPath startOffset="22.20632615414155" xlink:href="#id7">July</textPath></text><path d="M 92.06813273071674 119.44442032107085 l -1.308203187582699 3.2069690252168406 a24.463530844196683,24.463530844196683 0 0,0 -0.3885374160954159,-0.16240867143920187 l 1.363212063175577 -3.183975310757665" fill="red" stroke="none" /><path d="M 91.40352486487194 119.15986991738527 l -2.269908521671138 5.059184295417086 a26.545072626372907,26.545072626372907 0 0,0 -0.41528123392579536,-0.19063524623705072 l 2.3566577513643527 -5.019361978845961" fill="red" stroke="none" /><path d="M 91.07499286063937 119.00905698771935 l -2.8074052554266107 5.979393142743218 a27.605654140483104,27.605654140483104 0 0,0 -0.42839680837857663,-0.20565650165289193 l 2.9099147318054293 -5.930182364590764" fill="red" stroke="none" /><path d="M 90.7491055286396 118.85261126421891 l -2.938539132958025 5.988516692073541 a27.67063298399553,27.67063298399553 0 0,0 -0.42579318670107963,-0.21350154313347985 l 3.0411862273418655 -5.937047308030759" fill="red" stroke="none" /><path d="M 90.42595943632237 118.69057910512821 l -1.4492780553105995 2.8293013757301253 a24.178891812615404,24.178891812615404 0 0,0 -0.3687961435432545,-0.19293671191965683 l 1.4977651013803497 -2.8039352448657513" fill="red" stroke="none" /><line stroke="#e1ed5e" stroke-width="0.3" x1="58.666819895761336" x2="56.23545636021788" y1="174.27360380694188" y2="178.64263932499728" /><path d="M 58.180547188652646 175.14741091055294 a86.0,86.0 0 0,1 -31.652253787137756,-30.449443065178592" fill="none" id="id8" stroke="none" /><text fill="#e1ed5e" style="font-size:6.75px; font-family:Arial;" text-anchor="middle"><textPath startOffset="22.20632615414155" xlink:href="#id8">August</textPath></text><path d="M 89.1626897886671 117.98757091392108 l -16.909861495294507 28.066681386781422 a53.767087448492376,53.767087448492376 0 0,0 -0.7886372044378164,-0.48444538334771 l 17.390477899664635 -27.771447536605333" fill="red" stroke="none" /><path d="M 88.8546689885994 117.79835938074946 l -20.11219804688134 32.117855307216864 a58.895344566480674,58.895344566480674 0 0,0 -0.8545944411487385,-0.5454426060776597 l 20.662074290077 -31.766898272315405" fill="red" stroke="none" /><path d="M 88.54995079064634 117.60387380957326 l -5.48718881443641 8.43627635938283 a31.06379649521778,31.06379649521778 0 0,0 -0.44572894462866747,-0.2954048396434075 l 5.631592457805039 -8.340573498648105" fill="red" stroke="none" /><path d="M 88.24862548938628 117.40417183066458 l -17.8208417583663 26.393252282918855 a52.846289690426,52.846289690426 0 0,0 -0.7495192170246531,-0.5155261519506602 l 18.272517860013842 -26.082585341603092" fill="red" stroke="none" /><path d="M 87.36589467227662 116.77436683061367 l -19.374600147789007 25.723756581506834 a53.20383181472854,53.20383181472854 0 0,0 -0.7267928991290409,-0.5572738030130368 l 19.814521775411535 -25.38644343666643" fill="red" stroke="none" /><path d="M 87.07902340077011 116.55440617244103 l -25.957669064299097 33.257067968517674 a63.188068847889625,63.188068847889625 0 0,0 -0.8516623541454703,-0.676612082066632 l 26.526288911161924 -32.80532197244592" fill="red" stroke="none" /><path d="M 86.79598089348748 116.32954008644616 l -24.75053544981425 30.60923022971129 a60.36386642986158,60.36386642986158 0 0,0 -0.8023503941482304,-0.6602797506472559 l 25.27375597250717 -30.178655360206854" fill="red" stroke="none" /><path d="M 86.51685102203217 116.09983520530335 l -20.99511837816641 25.069658916967665 a53.69988981520147,53.69988981520147 0 0,0 -0.7035568377223824,-0.5995864004466516 l 21.42354069246585 -24.70454812629806" fill="red" stroke="none" /><path d="M 85.44109423537348 115.13401014063109 l -21.637178136655624 22.491887689142402 a52.20981399397253,52.20981399397253 0 0,0 -0.6423051396092252,-0.6286307664194161 l 22.021133228640643 -22.116106819800414" fill="red" stroke="none" /><path d="M 85.18274418774928 114.88116024355367 l -28.417712974051117 28.540273980592918 a61.27547205884572,61.27547205884572 0 0,0 -0.7410228849281713,-0.7506522701409636 l 28.904776484034823 -28.046881216471288" fill="red" stroke="none" /><path d="M 84.9287848128048 114.62390073753433 l -22.117167714197333 21.460729027518713 a51.81772214311949,51.81772214311949 0 0,0 -0.6156277236749447,-0.6454832070259742 l 22.483301989251235 -21.07683870391024" fill="red" stroke="none" /><path d="M 84.43433777217949 114.09645910891817 l -22.252356896867482 20.15201373913321 a51.0211766126476,51.0211766126476 0 0,0 -0.583928013303763,-0.656049313125151 l 22.595943759819583 -19.765990256267195" fill="red" stroke="none" /><path d="M 83.72743513129214 113.27417163493432 l -23.637984719498334 19.282434502625 a51.50518975432311,51.50518975432311 0 0,0 -0.5544952780794263,-0.6918181169507022 l 23.96639790963262 -18.87268855209604" fill="red" stroke="none" /><path d="M 83.50135304334701 112.99209946851258 l -24.562320501047324 19.341956462581972 a52.2636988885926,52.2636988885926 0 0,0 -0.5504939952916331,-0.7115876962517792 l 24.891621313557025 -18.91629077221694" fill="red" stroke="none" /><path d="M 83.28015986056508 112.70617746262583 l -24.73439725996091 18.79680896439308 a52.06622659830849,52.06622659830849 0 0,0 -0.536130232742138,-0.7182340599085649 l 25.054288759398133 -18.368262024975206" fill="red" stroke="none" /><path d="M 83.06392112726016 112.41649034213515 l -12.35510544147771 9.058002654740347 a36.31979251045246,36.31979251045246 0 0,0 -0.3653082911872679,-0.5073812656930567 l 12.509193525040585 -8.843987783596152" fill="red" stroke="none" /><path d="M 82.85270091963577 112.12312394758628 l -25.199559678309434 17.81606444099263 a51.86146399875224,51.86146399875224 0 0,0 -0.5090797686641162,-0.7333673757239597 l 25.502500354135684 -17.379655803081658" fill="red" stroke="none" /><path d="M 82.24976979558568 111.22182372390057 l -13.18882729573354 8.338071863478314 a36.60348063212868,36.60348063212868 0 0,0 -0.33210749388807786,-0.5354630254757347 l 13.330399429289574 -8.109812506637315" fill="red" stroke="none" /><path d="M 82.05923443525364 110.91462005526583 l -26.71522854727208 16.252738392392473 a52.27067222789637,52.27067222789637 0 0,0 -0.46102514936741507,-0.7727046684568358 l 26.99103457233773 -15.790471630049526" fill="red" stroke="none" /><line stroke="#e1ed5e" stroke-width="0.3" x1="26.63291911575756" x2="22.317208475507996" y1="142.92168965132927" y2="145.44649492493687" /><path d="M 25.769776987707644 143.4266507060508 a86.0,86.0 0 0,1 -11.730757126820373,-40.83630448921669" fill="none" id="id9" stroke="none" /><text fill="#e1ed5e" style="font-size:6.75px; font-family:Arial;" text-anchor="middle"><textPath startOffset="21.46611528233685" xlink:href="#id9">September</textPath></text><path d="M 81.87401531095188 110.60418214915194 l -27.40032541132427 16.02991763439349 a52.74485930055293,52.74485930055293 0 0,0 -0.4517170313537222,-0.7876067195071096 l 27.67219443883037 -15.555891069028077" fill="red" stroke="none" /><path d="M 81.69416730710424 110.29060199501025 l -27.965353751264594 15.720690226542622 a53.08116443697581,53.08116443697581 0 0,0 -0.44088606150437093,-0.80033626564379 l 28.23181622222048 -15.23698344250101" fill="red" stroke="none" /><path d="M 81.51974371655577 109.97397251340807 l -27.777148194296718 14.991594723660587 a52.5645033885599,52.5645033885599 0 0,0 -0.42288766685246054,-0.7999440963065803 l 28.031088369374064 -14.51123561226788" fill="red" stroke="none" /><path d="M 81.02952815118164 109.00673069616217 l -14.62063620007116 6.941531761045946 a37.18480355408866,37.18480355408866 0 0,0 -0.2695462366074724,-0.5805786136935533 l 14.73795705351846 -6.6888330800735645" fill="red" stroke="none" /><path d="M 80.87730276802145 108.67885076344099 l -29.61965399878703 13.442902619947695 a53.527458152417275,53.527458152417275 0 0,0 -0.3735679144719088,-0.8422970280849476 l 29.84666299799022 -12.931057255370053" fill="red" stroke="none" /><path d="M 80.73074385275274 108.34839909993369 l -29.58751880844423 12.818783117633405 a53.24503791061447,53.24503791061447 0 0,0 -0.3571195879089755,-0.844125214395937 l 29.803789377545513 -12.30758337757131" fill="red" stroke="none" /><path d="M 80.58989483394504 108.01547362559985 l -30.879584033880942 12.751836699263666 a54.40895163440784,54.40895163440784 0 0,0 -0.3500241488954632,-0.8687312322870084 l 31.09451079703379 -12.218406099133851" fill="red" stroke="none" /><path d="M 80.45479744820244 107.68017299344265 l -27.738459575251685 10.899665406125754 a50.80310127442053,50.80310127442053 0 0,0 -0.31281579091299344,-0.8166633200967969 l 27.92196964575819 -10.4205785191958" fill="red" stroke="none" /><path d="M 80.0844068197444 106.66101706037122 l -30.925346959327253 10.34336571497161 a53.60923640425242,53.60923640425242 0 0,0 -0.28516986302175135,-0.87766259272057 l 31.098809073365253 -9.809504222273235" fill="red" stroke="none" /><path d="M 79.97269907076064 106.31721596034903 l -28.18807565545828 8.891370936670203 a50.55713257897835,50.55713257897835 0 0,0 -0.25464719455780976,-0.8322017656029972 l 28.33694962252222 -8.404842198515157" fill="red" stroke="none" /><path d="M 79.86692584326677 105.97154293290107 l -30.177883475037962 8.950869866786185 a52.477336647262746,52.477336647262746 0 0,0 -0.24941069495254814,-0.8682313487390547 l 30.327486806876617 -8.430081042542534" fill="red" stroke="none" /><path d="M 79.67330655649465 105.27499134158121 l -30.703117771528703 7.967782898605681 a52.72013564302137,52.72013564302137 0 0,0 -0.22039197229938504,-0.8803563749143275 l 30.835721058123145 -7.438098684293961" fill="red" stroke="none" /><path d="M 79.58551787078972 104.9243191809786 l -15.58378975862199 3.7590742853533636 a37.03075614946895,37.03075614946895 0 0,0 -0.14413681194386696,-0.6209376134433353 l 15.646187136496412 -3.490268014561454" fill="red" stroke="none" /><path d="M 79.29508885075956 103.50808413554451 l -32.58791360804695 5.521450534844648 a54.052360420010366,54.052360420010366 0 0,0 -0.14753268913839043,-0.9186861960957213 l 32.67812805154663 -4.959685109055713" fill="red" stroke="none" /><path d="M 79.23777060512086 103.15116336523772 l -15.765263223456556 2.392754601070867 a36.94580819795026,36.94580819795026 0 0,0 -0.0900174922574686,-0.6295821311895303 l 15.804114766730624 -2.1210269979009357" fill="red" stroke="none" /><path d="M 79.18660465613746 102.79330883721812 l -13.087002066361826 1.756370737244463 a34.20433494166243,34.20433494166243 0 0,0 -0.0732925452185765,-0.5842136985705304 l 13.115296120827251 -1.5308392843865242" fill="red" stroke="none" /><path d="M 79.10278846688536 102.07522291339032 l -16.239636837856384 1.612696814484225 a37.31951579063882,37.31951579063882 0 0,0 -0.057979250924459685,-0.6397962026183641 l 16.26499068505792 -1.3329192233172948" fill="red" stroke="none" /><path d="M 79.04373962182676 101.35467743843564 l -12.11181743748343 0.7829453120414245 a33.13709705821682,33.13709705821682 0 0,0 -0.03189626916860012,-0.5695293127070579 l 12.12350005753956 -0.574344282998929" fill="red" stroke="none" /><path d="M 79.0235259727143 100.99374915477108 l -13.950051253171585 0.660876161733379 a34.9656968056471,34.9656968056471 0 0,0 -0.023306913269078022,-0.6014478695337974 l 13.959360299291864 -0.4206510451855849" fill="red" stroke="none" /><path d="M 79.0095281055655 100.63252640178507 l -62.97141568330351 1.8975792053552267 a84.0,84.0 0 0,0 -0.03111174925997018,-1.4456407368394846 l 62.994749495248485 -0.8133486527256131" fill="red" stroke="none" /><line stroke="#e1ed5e" stroke-width="0.3" x1="15.007084014347285" x2="10.007500721073583" y1="101.09737516637583" y2="101.16192664675087" /><path d="M 14.007167355692545 101.11028546245083 a86.0,86.0 0 0,1 10.666146001902534,-42.60595125391555" fill="none" id="id10" stroke="none" /><text fill="#e1ed5e" style="font-size:6.75px; font-family:Arial;" text-anchor="middle"><textPath startOffset="22.20632615414155" xlink:href="#id10">October</textPath></text><path d="M 79.12142395522702 97.74499172005258 l -32.690444222268624 -3.5307591014967947 a53.88056269716287,53.88056269716287 0 0,0 0.10752930298124244,-0.9212454009045812 l 32.62482456628379 4.092948240726238" fill="red" stroke="none" /><path d="M 79.16333360222342 97.38593545837743 l -15.612953958625194 -1.9587235575064352 a36.73534013896366,36.73534013896366 0 0,0 0.08411343475489153,-0.6267427890384079 l 15.576924524812469 2.2271846886095026" fill="red" stroke="none" /><path d="M 79.26566170972629 96.67025291283419 l -16.310542652699457 -2.619325542373158 a37.51952384066976,37.51952384066976 0 0,0 0.10789210482788854,-0.6367853101160863 l 16.263038686351344 2.899696640805072" fill="red" stroke="none" /><path d="M 79.32604984820605 96.31383870115002 l -15.56966662040218 -2.776068536043308 a36.815216570988696,36.815216570988696 0 0,0 0.11660654663433237,-0.6229168347921645 l 15.519574349857985 3.0436634482980454" fill="red" stroke="none" /><path d="M 80.14247586403 93.16781622104843 l -15.057317830598034 -5.180623824617848 a36.923620300165524,36.923620300165524 0 0,0 0.2119537463111109,-0.5992217828199513 l 14.965911003477114 5.439043233864411" fill="red" stroke="none" /><path d="M 81.10775173730289 90.83032412892265 l -30.016087533440686 -14.568821549047476 a54.36489280880674,54.36489280880674 0 0,0 0.4158655084093246,-0.8383594884958963 l 29.760862012077947 15.083340626042334" fill="red" stroke="none" /><line stroke="#e1ed5e" stroke-width="0.3" x1="26.266209847984243" x2="21.928928074336255" y1="57.711370442889674" y2="55.22380399835377" /><path d="M 25.398753493254645 57.213857153982495 a86.0,86.0 0 0,1 29.58750427330803,-30.492523968695096" fill="none" id="id11" stroke="none" /><text fill="#e1ed5e" style="font-size:6.75px; font-family:Arial;" text-anchor="middle"><textPath startOffset="21.46611528233685" xlink:href="#id11">November</textPath></text><path d="M 82.15384107792192 88.93136811851018 l -13.729879698585338 -8.515613069699446 a37.15627625693686,37.15627625693686 0 0,0 0.34178891424293134,-0.5406279815470239 l 13.581263188096443 8.750688698960685" fill="red" stroke="none" /><path d="M 83.39014120810768 87.1503855733568 l -12.610763501526627 -9.755859495885629 a36.94390637814014,36.94390637814014 0 0,0 0.3934454242090195,-0.49963573373706255 l 12.440963996723635 9.97148762357574" fill="red" stroke="none" /><path d="M 83.6137871275137 86.86637796730984 l -25.61031587779055 -20.52678135540839 a53.821289313080804,53.821289313080804 0 0,0 0.5856307507824621,-0.7179140546998705 l 25.253186634931698 20.96457957971634" fill="red" stroke="none" /><path d="M 83.84228863543731 86.58626213691792 l -24.80127441309495 -20.589413075991313 a53.2339439617221,53.2339439617221 0 0,0 0.5913768632614741,-0.7000036762368916 l 24.443186936346354 21.01327570185732" fill="red" stroke="none" /><path d="M 84.07557802195018 86.31012108654704 l -12.55160797899588 -10.790344141748674 a37.552171747410156,37.552171747410156 0 0,0 0.4256058293431355,-0.4865410363459831 l 12.364010286074901 11.0048007342976" fill="red" stroke="none" /><path d="M 84.80347519578584 85.50635884689758 l -25.152401985173537 -23.989029939963142 a55.75797581971956,55.75797581971956 0 0,0 0.6683940522571822,-0.688838824346938 l 24.735743669213235 24.418432959860205" fill="red" stroke="none" /><path d="M 85.05521093208273 85.24692304244772 l -23.6412597030002 -23.33798906005224 a54.22003753326927,54.22003753326927 0 0,0 0.6613920252194365,-0.6585517976734508 l 23.23603187761345 23.7414767083758" fill="red" stroke="none" /><path d="M 85.31137513191541 84.99185889309783 l -23.306756501142466 -23.81373977855348 a54.32115095317398,54.32115095317398 0 0,0 0.673884288074313,-0.6482761512096604 l 22.893388969455724 24.211399016525455" fill="red" stroke="none" /><path d="M 85.57189188830299 84.74124197986013 l -23.014036371467427 -24.338992287854122 a54.49675231564171,54.49675231564171 0 0,0 0.6871576367603021,-0.6386381342240599 l 22.59167085091227 24.73153500815283" fill="red" stroke="none" /><path d="M 85.83668400450813 84.49514656593479 l -10.473216248008512 -11.46523052654683 a36.5286757195973,36.5286757195973 0 0,0 0.4678958288686427,-0.4200814949823013 l 10.274309431543898 11.643811030298409" fill="red" stroke="none" /><path d="M 86.65592168130627 83.78471172551755 l -10.285354026611602 -12.498426385355797 a37.18638840393043,37.18638840393043 0 0,0 0.4977603523812054,-0.4024875880467184 l 10.068690275665896 12.673620070666649" fill="red" stroke="none" /><path d="M 86.93701828274178 83.55741782278169 l -9.874280519432656 -12.428913428484428 a36.87385601513406,36.87385601513406 0 0,0 0.5003737395262855,-0.3905496404970053 l 9.658874224746945 12.597041458204655" fill="red" stroke="none" /><path d="M 87.22198572758235 83.33499621200491 l -9.801404337608123 -12.782928311990856 a37.108096821747154,37.108096821747154 0 0,0 0.510243127808836,-0.3843045454162161 l 9.579915056040898 12.949749446912927" fill="red" stroke="none" /><path d="M 87.51073957382395 83.11751280151077 l -10.582036869494795 -14.304377992531483 a38.793109173513386,38.793109173513386 0 0,0 0.5402488795710984,-0.39251378671565074 l 10.334242673569914 14.484411014063802" fill="red" stroke="none" /><path d="M 88.70189139769569 82.29822771554957 l -9.08813428069357 -14.23920491386794 a37.892280523453266,37.892280523453266 0 0,0 0.5528318583487803,-0.3461832589811156 l 8.841683269972547 14.393532514171987" fill="red" stroke="none" /><line stroke="#e1ed5e" stroke-width="0.3" x1="56.762969772571076" x2="54.21961505331055" y1="26.818313649435495" y2="22.513508569990535" /><path d="M 56.25429882871897 25.957352633546506 a86.0,86.0 0 0,1 42.265352541879196,-11.944610805530505" fill="none" id="id12" stroke="none" /><text fill="#e1ed5e" style="font-size:6.75px; font-family:Arial;" text-anchor="middle"><textPath startOffset="22.20632615414155" xlink:href="#id12">December</textPath></text><path d="M 89.63071344664047 81.73862282372117 l -7.892275146128801 -13.899106026319116 a36.983527624184305,36.983527624184305 0 0,0 0.5562954989342087,-0.30957784286853185 l 7.651855558122547 14.032899266747833" fill="red" stroke="none" /><path d="M 91.23893434514133 80.91482961587045 l -13.283820282453041 -28.937572600220616 a52.840901200963984,52.840901200963984 0 0,0 0.8298987663051628,-0.37235138547273333 l 12.783739397681105 29.161944316209876" fill="red" stroke="none" /><path d="M 91.56875222667455 80.76684994638697 l -13.19733321218788 -30.105424108230924 a53.87105359811226,53.87105359811226 0 0,0 0.8524869569334076,-0.3649904254800695 l 12.677162497464163 30.32813406167378" fill="red" stroke="none" /><path d="M 92.23578459929587 80.48803036053334 l -5.863797729734785 -14.736098545666627 a36.85990933652651,36.85990933652651 0 0,0 0.5915433325235736,-0.22950962284207732 l 5.609271232211535 14.834850872399254" fill="red" stroke="none" /><path d="M 93.25333710446033 80.11325718540243 l -11.290410026629615 -33.280079936908834 a56.14309433126884,56.14309433126884 0 0,0 0.9178518426852098,-0.30260132171042087 l 10.715875361701997 33.46949498287849" fill="red" stroke="none" /><path d="M 93.59665428221793 80.00007090966166 l -4.9208824425075335 -15.369668334279842 a37.13820896874072,37.13820896874072 0 0,0 0.6105072841588047,-0.18968758498532004 l 4.655589785638 15.452096054147686" fill="red" stroke="none" /><path d="M 93.94186890950719 79.89281104454417 l -9.76801514830879 -32.4204483813543 a54.85999989937461,54.85999989937461 0 0,0 0.9065217438464339,-0.2646385554917458 l 9.208503186738936 32.58378526576474" fill="red" stroke="none" /><path d="M 94.28887869178378 79.79150937346287 l -4.3840040306296535 -15.512558669035027 a37.120141680544585,37.120141680544585 0 0,0 0.6163748455390654,-0.16847852898050933 l 4.116331295866866 15.585723738841832" fill="red" stroke="none" /><path d="M 94.63758080256005 79.69619591428918 l -8.124365773717138 -30.76140169514497 a52.81617754343243,52.81617754343243 0 0,0 0.8810017870047298,-0.22458697183056608 l 7.5936550980274085 30.8966916631444" fill="red" stroke="none" /><path d="M 94.98787191387505 79.60689891045804 l -7.651831562225853 -31.133397209180877 a53.05992744909613,53.05992744909613 0 0,0 0.8888202689561178,-0.2103550410307648 l 7.1147876063072015 31.260498162352516" fill="red" stroke="none" /><path d="M 95.692805502759 79.44645832069477 l -6.7827635115993585 -32.36673259724578 a54.0697937682698,54.0697937682698 0 0,0 0.9125786259361579,-0.1830546872688129 l 6.224618476196064 32.4786912405918" fill="red" stroke="none" /><path d="M 96.04723909329186 79.375362276772 l -3.0057226923185 -15.683200448666012 a36.968630035671694,36.968630035671694 0 0,0 0.6260107241346178,-0.11439945847575433 l 2.7353168470809885 15.732615388492503" fill="red" stroke="none" /><path d="M 96.40284397218896 79.31037775812273 l -2.776743766121121 -15.970888985455918 a37.21047812152528,37.21047812152528 0 0,0 0.6319947986455261,-0.10428455691690529 l 2.501419761336709 16.016319805312452" fill="red" stroke="none" /><path d="M 96.75951476605007 79.25152402106235 l -5.259183446829018 -33.67398199261314 a55.082195847190285,55.082195847190285 0 0,0 0.9380524695742624,-0.138244549793938 l 4.678761996826108 33.75952102656805" fill="red" stroke="none" /><path d="M 97.11714578562143 79.19881850522333 l -4.3988847853535615 -31.74007216125407 a53.043445010741756,53.043445010741756 0 0,0 0.9054901802644894,-0.11755861314051563 l 3.851879876581214 31.81108909755872" fill="red" stroke="none" /><path d="M 98.19473922651362 79.07773832637324 l -1.398135445016171 -16.203839392858562 a37.26404604617699,37.26404604617699 0 0,0 0.6395394180521862,-0.04964056752089874 l 1.1190058376016505 16.22550522256792" fill="red" stroke="none" /></svg>