<?xml version="1.0" encoding="utf-8" ?>
<svg baseProfile="full" height="200mm" version="1.1" viewBox="0,0,200,200" width="200mm" xmlns="http://www.w3.org/2000/svg" xmlns:ev="http://www.w3.org/2001/xml-events" xmlns:xlink="http://www.w3.org/1999/xlink"><defs /><rect fill="#1a1a1a" height="200" width="200" x="0" y="0" /><rect fill="#1a1a1a" height="200" width="180" x="10" y="0" /><text alignment-baseline="middle" fill="#e1ed5e" style="dominant-baseline: central; font-size:9.0px; font-family:Arial;" text-anchor="middle" x="100.0" y="100.0">2022</text><line stroke="#e1ed5e" stroke-width="0.3" x1="100.0" x2="100.0" y1="15.0" y2="10.0" /><path d="M 100.0 14.0 a86.0,86.0 0 0,1 42.46469731375804,11.215312516191453" fill="none" id="id13" stroke="none" /><text fill="#e1ed5e" style="font-size:6.75px; font-family:Arial;" text-anchor="middle"><textPath startOffset="22.20632615414155" xlink:href="#id13">January</textPath></text><line stroke="#e1ed5e" stroke-width="0.3" x1="143.23703022742887" x2="145.7803849466894" y1="26.81831364943548" y2="22.513508569990506" /><path d="M 143.74570117128098 25.957352633546492 a86.0,86.0 0 0,1 28.547481713284135,27.462654790039103" fill="none" id="id14" stroke="none" /><text fill="#e1ed5e" style="font-size:6.75px; font-family:Arial;" text-anchor="middle"><textPath startOffset="19.985693538727396" xlink:href="#id14">February</textPath></text><path d="M 114.68862486808459 84.99185889309783 l 11.067693785479403 -11.30844524604702 a36.82323543438518,36.82323543438518 0 0,0 0.44918069715712267,0.4472517724943745 l -11.260710282803847 11.116257622902527" fill="red" stroke="none" /><path d="M 114.94478906791727 85.2469230424477 l 22.324751251558173 -22.038368810403675 a52.37011664414593,52.37011664414593 0 0,0 0.6277823749222924,0.6469849209861117 l -22.700797890183573 21.650819693867447" fill="red" stroke="none" /><path d="M 115.19652480421416 85.50635884689758 l 11.404867452395663 -10.877359026708604 a36.760328074079965,36.760328074079965 0 0,0 0.432778778809484,0.4616582266062439 l -11.59041355317561 10.679431383224305" fill="red" stroke="none" /><path d="M 116.38621287248628 86.86637796730983 l 12.251318573255595 -9.819485978568395 a36.700863405134726,36.700863405134726 0 0,0 0.390857063773176,0.4963487788356597 l -12.418529717622734 9.607144805779695" fill="red" stroke="none" /><path d="M 116.60985879189232 87.15038557335679 l 24.700910346308667 -19.108962810212315 a52.22959224227009,52.22959224227009 0 0,0 0.5439937359842124,0.7158319903262474 l -25.026180022516993 18.680946044005033" fill="red" stroke="none" /><path d="M 116.82858285166822 87.43820079747576 l 25.89421106013757 -19.328893152342058 a53.31278813289882,53.31278813289882 0 0,0 0.5426160026257303,0.7401276177773672 l -26.223089675276928 18.880303090893197" fill="red" stroke="none" /><path d="M 117.04232023915458 87.72973835380427 l 25.742034594207873 -18.53394932989604 a52.72001927509737,52.72001927509737 0 0,0 0.5239048907813746,0.7410263139050386 l -26.057252104793132 18.088096515659206" fill="red" stroke="none" /><path d="M 117.65298651832404 88.62581576622439 l 26.416864363498284 -17.020931944699484 a52.42551267784755,52.42551267784755 0 0,0 0.482245823905616,0.7627970818335725 l -26.70593778364986 16.563687215151706" fill="red" stroke="none" /><line stroke="#e1ed5e" stroke-width="0.3" x1="172.23445277983987" x2="176.4835382374775" y1="55.19839476539836" y2="52.563006222186495" /><path d="M 173.08426987136738 54.67131705675599 a86.0,86.0 0 0,1 12.851231095245387,41.99856678651699" fill="none" id="id15" stroke="none" /><text fill="#e1ed5e" style="font-size:6.75px; font-family:Arial;" text-anchor="middle"><textPath startOffset="22.20632615414155" xlink:href="#id15">March</textPath></text><path d="M 118.03404312379186 89.2402003453031 l 27.57328289851161 -16.451274834696314 a53.10810448295049,53.10810448295049 0 0,0 0.46163669907531674,0.7890867604543303 l -27.852379272057256 15.974208661888088" fill="red" stroke="none" /><path d="M 118.21658344932153 89.55222093294921 l 13.922796017281357 -7.985157984692679 a37.050140092202525,37.050140092202525 0 0,0 0.31253091458945476,0.555957623918049 l -14.058184573163246 7.7443168508398355" fill="red" stroke="none" /><path d="M 118.3937258080291 89.86733742301442 l 28.608705778220134 -15.759850148925516 a53.66237779190844,53.66237779190844 0 0,0 0.4387331258833143,0.8129058502478104 l -28.875747003321912 15.265063315345246" fill="red" stroke="none" /><path d="M 118.89224826269711 90.83032412892265 l 28.84940237869705 -14.002550951507196 a53.068044074397896,53.068044074397896 0 0,0 0.39179835250380657,0.8252272514103197 l -29.08615892504261 13.503881284456336" fill="red" stroke="none" /><path d="M 119.04729006885535 91.15688171328212 l 30.792500739145577 -14.296087548189268 a54.94931841666005,54.94931841666005 0 0,0 0.39091908837582373,0.8613383929473333 l -31.034022144484748 13.763927146399872" fill="red" stroke="none" /><path d="M 119.196687751892 91.48605970444005 l 28.74038721323547 -12.746675049743642 a52.44022235911295,52.44022235911295 0 0,0 0.35886414909143355,0.8283079340279298 l -28.95554207216958 12.25006797112911" fill="red" stroke="none" /><path d="M 119.34039704204932 91.81776055985345 l 29.345528319256854 -12.415057389138187 a52.86367339639139,52.86367339639139 0 0,0 0.3473352609634804,0.8410998848088365 l -29.55488526710653 11.908082933876047" fill="red" stroke="none" /><path d="M 119.47837535516314 92.15188598940014 l 14.632005078118425 -5.8954426107365485 a36.77503775534536,36.77503775534536 0 0,0 0.23151891402860236,0.5891903832276688 l -14.731317542028728 5.642703222613095" fill="red" stroke="none" /><line stroke="#e1ed5e" stroke-width="0.3" x1="184.98032266829074" x2="189.97916517819016" y1="98.17113171792111" y2="98.06355123074" /><path d="M 185.9800911702706 98.14961562048488 a86.0,86.0 0 0,1 -9.607161424134198,41.387399972396054" fill="none" id="id16" stroke="none" /><text fill="#e1ed5e" style="font-size:6.75px; font-family:Arial;" text-anchor="middle"><textPath startOffset="21.466115282336823" xlink:href="#id16">April</textPath></text><line stroke="#e1ed5e" stroke-width="0.3" x1="174.80103733775053" x2="179.2010983576182" y1="140.37084112569926" y2="142.7455964860345" /><path d="M 175.68104954172406 140.8457921977663 a86.0,86.0 0 0,1 -30.038265399797805,32.042727171017184" fill="none" id="id17" stroke="none" /><text fill="#e1ed5e" style="font-size:6.75px; font-family:Arial;" text-anchor="middle"><textPath startOffset="22.206326154141568" xlink:href="#id17">May</textPath></text><line stroke="#e1ed5e" stroke-width="0.3" x1="143.8653032363475" x2="146.44561519142675" y1="172.8068346515853" y2="177.08958963109032" /><path d="M 144.38136562736335 173.6633856474863 a86.0,86.0 0 0,1 -40.68145358897372,12.25698825130547" fill="none" id="id18" stroke="none" /><text fill="#e1ed5e" style="font-size:6.75px; font-family:Arial;" text-anchor="middle"><textPath startOffset="21.466115282336833" xlink:href="#id18">June</textPath></text><path d="M 101.62511606390274 120.93702456842531 l 0.6451185042640665 8.311321433181634 a29.336320642238295,29.336320642238295 0 0,0 -0.5037985564438522,0.034744898103502043 l -0.501957187041284 -8.32119467580142" fill="red" stroke="none" /><path d="M 101.26447882468166 120.96189622390904 l 0.5349172080705379 8.867589385516718 a29.883708568476273,29.883708568476273 0 0,0 -0.5137321596797271,0.026554084597610012 l -0.3821969799773311 -8.87548327687653" fill="red" stroke="none" /><line stroke="#e1ed5e" stroke-width="0.3" x1="102.19456741930631" x2="102.32365962044197" y1="184.97166512339345" y2="189.96999836594603" /><path d="M 102.22038585953345 185.97133177190398 a86.0,86.0 0 0,1 -42.740103519485714,-10.115201625700543" fill="none" id="id19" stroke="none" /><text fill="#e1ed5e" style="font-size:6.75px; font-family:Arial;" text-anchor="middle"><textPath startOffset="22.20632615414155" xlink:href="#id19">July</textPath></text><path d="M 100.54218724476979 120.99299961872073 l 0.22478188501022597 8.70335123490144 a29.70625347746602,29.70625347746602 0 0,0 -0.5112874985248729,0.008802277962598795 l -0.0749346965926852 -8.7059309901432" fill="red" stroke="none" /><path d="M 100.18074693466247 120.99922214144158 l 0.08814753312971596 10.241001502281113 a31.241380852078535,31.241380852078535 0 0,0 -0.5377889355843357,0.0 l 0.08814753312970891 -10.241001502281113" fill="red" stroke="none" /><path d="M 99.45781275523022 120.99299961872073 l -0.270969722191844 10.491702505974006 a31.49520109689214,31.49520109689214 0 0,0 -0.541836913153409,-0.01866195885044481 l 0.451526987019896 -10.485483748697467" fill="red" stroke="none" /><path d="M 99.09653310690486 120.98055641714683 l -0.49728021365237657 11.547977748162902 a32.55867975518639,32.55867975518639 0 0,0 -0.5597177080155463,-0.028931012180922054 l 0.6959859900814118 -11.537706929219778" fill="red" stroke="none" /><path d="M 98.37488393609728 120.93702456842531 l -0.9917764540887908 12.777455374957004 a33.815888045465385,33.815888045465385 0 0,0 -0.5799516300090586,-0.05004066694637353 l 1.2115724018393912 -12.758490455731968" fill="red" stroke="none" /><path d="M 97.65516085044442 120.86867818915974 l -1.1737708253806274 10.446365000062059 a31.512101581750258,31.512101581750258 0 0,0 -0.5385156714147193,-0.06520674823752684 l 1.353413919846736 -10.424612723099182" fill="red" stroke="none" /><path d="M 97.2962882734958 120.8252237178851 l -2.131018475795358 16.414078494516595 a37.55183411493522,37.55183411493522 0 0,0 -0.6402970545263463,-0.08873933735729916 l 2.4132441215085354 -16.37496459166669" fill="red" stroke="none" /><path d="M 96.58105272829116 120.7198165907248 l -2.6028845602600597 15.774238796160805 a36.987545703839125,36.987545703839125 0 0,0 -0.6272929735784222,-0.10906292414290332 l 2.874026505310532 -15.727097293496895" fill="red" stroke="none" /><path d="M 96.22490169976321 120.6578951692458 l -1.6580381166239526 9.073029329509886 a30.22328312534775,30.22328312534775 0 0,0 -0.5109640144508213,-0.09792746947410129 l 1.813969745646469 -9.043144661687316" fill="red" stroke="none" /><path d="M 95.86986931433489 120.58985236759428 l -5.536577898928012 27.601383645383457 a49.15120022255782,49.15120022255782 0 0,0 -0.8281006818921325,-0.17353654936261714 l 6.010870042249532 -27.5019911152943" fill="red" stroke="none" /><path d="M 95.51606077576429 120.51570834832081 l -6.6890208537044655 30.60478612839083 a52.327239488117,52.327239488117 0 0,0 -0.8782998836883514,-0.1998981940285429 l 7.214840886785679 -30.4851112007846" fill="red" stroke="none" /><path d="M 95.16358092515715 120.4354850818985 l -4.3600715836963095 18.422757917753568 a39.93167276051189,39.93167276051189 0 0,0 -0.667518217013653,-0.16405973710442343 l 4.676543085453173 -18.344976922335114" fill="red" stroke="none" /><path d="M 94.81253420990036 120.34920634021253 l -4.682882588395926 18.369845299052443 a39.95733645974088,39.95733645974088 0 0,0 -0.6650224272607795,-0.1756384673343563 l 4.998395458468195 -18.286515482414504" fill="red" stroke="none" /><path d="M 94.46302465271185 120.25689768951611 l -9.891247963238627 36.18690448226267 a58.51438180589778,58.51438180589778 0 0,0 -0.9693014118046805,-0.27393426106610863 l 10.51268054314792 -36.01128142785804" fill="red" stroke="none" /><path d="M 94.11515582081647 120.15858648285463 l -13.003396054305124 44.54324973611935 a67.4024719815595,67.4024719815595 0 0,0 -1.1109372541622808,-0.33471628152183835 l 13.76820828290765 -44.312818085491784" fill="red" stroke="none" /><path d="M 93.76903079525671 120.05430185196036 l -15.760300794137175 50.72434464332083 a74.11634607741831,74.11634607741831 0 0,0 -1.2150798063956159,-0.38903018305227827 l 16.63110194562373 -50.44554161360885" fill="red" stroke="none" /><path d="M 93.42475214034765 119.94407469862007 l -11.623720918970813 35.257128435630364 a58.12379282251013,58.12379282251013 0 0,0 -0.9475015961729167,-0.3214439851694591 l 12.228892248080955 -35.05182146356278" fill="red" stroke="none" /><path d="M 93.08242187328487 119.8279376855182 l -6.53255037985619 18.724328007091664 a40.83115412129401,40.83115412129401 0 0,0 -0.6616210983042512,-0.23723378650074017 l 6.8538910387901675 -18.609106679550965" fill="red" stroke="none" /><path d="M 92.7421414339146 119.70592522655815 l -9.185754289440988 24.940385036311273 a47.57820324298546,47.57820324298546 0 0,0 -0.766076540913003,-0.28966459720942617 l 9.613701051114274 -24.778572188995216" fill="red" stroke="none" /><path d="M 92.40401165467489 119.57807347666478 l -5.7548396520735965 14.832654874208938 a36.9099286622685,36.9099286622685 0 0,0 -0.5903460534502154,-0.2349108780218645 l 6.00930678156567 -14.731397151781007" fill="red" stroke="none" /><path d="M 92.06813273071674 119.44442032107085 l -10.266357156656515 25.16725973130177 a48.180674230983236,48.180674230983236 0 0,0 -0.7652204741280032,-0.3198622202467245 l 10.69804909028198 -24.986812468035072" fill="red" stroke="none" /><path d="M 91.7346041902142 119.30500536409082 l -19.595782827650545 45.76873283593619 a70.78726353231063,70.78726353231063 0 0,0 -1.1160094977667587,-0.4892257673250113 l 20.380713000075048 -45.424642515316734" fill="red" stroke="none" /><path d="M 91.40352486487194 119.15986991738527 l -15.5677443161267 34.69747208192889 a59.02984659407043,59.02984659407043 0 0,0 -0.9234854195757966,-0.4239268620277106 l 16.162697731469915 -34.42435814956711" fill="red" stroke="none" /><path d="M 91.07499286063937 119.00905698771935 l -21.904743771118873 46.654138886931825 a72.5405323503696,72.5405323503696 0 0,0 -1.1257162166430514,-0.5404121936504988 l 22.704572655762167 -46.27017241678177" fill="red" stroke="none" /><path d="M 90.42595943632237 118.69057910512821 l -14.688239850750225 28.674592197475413 a53.217644662586444,53.217644662586444 0 0,0 -0.8117188443589868,-0.4246529351668191 l 15.179649597635708 -28.417509843363877" fill="red" stroke="none" /><path d="M 90.10565033884886 118.52300852407294 l -7.7425193244038875 14.49461120287994 a37.432904777044754,37.432904777044754 0 0,0 -0.5657309553203522,-0.3084816239740054 l 7.99087309159288 -14.35918892714617" fill="red" stroke="none" /><line stroke="#e1ed5e" stroke-width="0.3" x1="58.666819895761336" x2="56.23545636021788" y1="174.27360380694188" y2="178.64263932499728" /><path d="M 58.180547188652646 175.14741091055294 a86.0,86.0 0 0,1 -31.652253787137756,-30.449443065178592" fill="none" id="id20" stroke="none" /><text fill="#e1ed5e" style="font-size:6.75px; font-family:Arial;" text-anchor="middle"><textPath startOffset="22.20632615414155" xlink:href="#id20">August</textPath></text><path d="M 89.7882731507175 118.34994917583269 l -18.864523734340906 33.89858119596762 a59.794124075987604,59.794124075987604 0 0,0 -0.8950646016263349,-0.5082410405546045 l 19.44523710288845 -33.56883698961838" fill="red" stroke="none" /><path d="M 89.4739219176387 118.17145234162733 l -16.304293387687387 28.14654118467349 a53.52779985692712,53.52779985692712 0 0,0 -0.7933129099351471,-0.4687032504602947 l 16.786374168650916 -27.861719361919448" fill="red" stroke="none" /><path d="M 89.1626897886671 117.98757091392108 l -22.54011501251056 37.41167404910933 a64.67711231221685,64.67711231221685 0 0,0 -0.948661708594141,-0.5827455038908443 l 23.18075592103701 -37.01814007839011" fill="red" stroke="none" /><path d="M 88.8546689885994 117.79835938074946 l -11.669111073437845 18.634801633660047 a42.98690485652969,42.98690485652969 0 0,0 -0.6237567706410515,-0.3981110830532839 l 11.98814964612582 -18.431176121782958" fill="red" stroke="none" /><path d="M 88.54995079064634 117.60387380957326 l -10.550465868174868 16.220809743231147 a40.35011624672124,40.35011624672124 0 0,0 -0.5789767111390877,-0.38371419350788455 l 10.828117278053917 -16.036797528631944" fill="red" stroke="none" /><path d="M 88.24862548938628 117.40417183066458 l -10.598164053959515 15.696229246892681 a39.93918408711549,39.93918408711549 0 0,0 -0.5664576673393507,-0.38961474883278063 l 10.866778605921755 -15.5114737086948" fill="red" stroke="none" /><path d="M 87.65650970185807 116.9893568818739 l -18.741874526687567 25.795977254272007 a52.885581432318574,52.885581432318574 0 0,0 -0.731873562494509,-0.5414225649076863 l 19.18313305960064 -25.469544740624556" fill="red" stroke="none" /><path d="M 87.36589467227662 116.77436683061367 l -29.82235322449733 39.59529224773341 a70.5697480327478,70.5697480327478 0 0,0 -0.964020635621363,-0.7391699154457188 l 30.49950258861218 -39.07608299046033" fill="red" stroke="none" /><path d="M 87.07902340077011 116.55440617244103 l -17.559397685657583 22.497169559855262 a49.53865948652731,49.53865948652731 0 0,0 -0.667692685166082,-0.5304554506746667 l 17.944047863541023 -22.191580195175465" fill="red" stroke="none" /><path d="M 86.79598089348748 116.32954008644616 l -23.652390596258744 29.251143706039525 a58.61734957475559,58.61734957475559 0 0,0 -0.7791358691358367,-0.6411757769988725 l 24.15239659393927 -28.83967281018347" fill="red" stroke="none" /><path d="M 86.51685102203217 116.09983520530335 l -10.079205790267396 12.035285858578566 a36.69835962960019,36.69835962960019 0 0,0 -0.4808088422425636,-0.4097557262841869 l 10.284880109087018 -11.86000574207143" fill="red" stroke="none" /><path d="M 86.24171649860922 115.8653595955263 l -8.914560649587656 10.279822357748312 a34.60676814243701,34.60676814243701 0 0,0 -0.4466871021998207,-0.3941494322725204 l 9.090190104694067 -10.124849783703503" fill="red" stroke="none" /><path d="M 85.97065885151581 115.62618273729859 l -9.194732727114413 10.241291611191123 a34.763254113345525,34.763254113345525 0 0,0 -0.44182515165953046,-0.4035968004677431 l 9.369657428240798 -10.081502044136803" fill="red" stroke="none" /><path d="M 85.70375840098266 115.38237550388516 l -20.83244553173713 22.415156991711836 a51.6011445831015,51.6011445831015 0 0,0 -0.6454176945904367,-0.6102827151765595 l 21.215199060718383 -22.053239639789346" fill="red" stroke="none" /><path d="M 85.44109423537348 115.13401014063109 l -32.29342294432069 33.56907436700999 a67.5805530164534,67.5805530164534 0 0,0 -0.8314018614414713,-0.8137017083164793 l 32.866474758137954 -33.00822255577094" fill="red" stroke="none" /><path d="M 85.18274418774928 114.88116024355367 l -29.97959198003674 30.108889118484893 a63.48907082107941,63.48907082107941 0 0,0 -0.767792606739348,-0.7777698570027374 l 30.493425211831624 -29.588378767501492" fill="red" stroke="none" /><path d="M 83.95833913139862 113.55231037782056 l -32.79831747141057 27.708663204123987 a63.935994753994116,63.935994753994116 0 0,0 -0.7030036637849102,-0.8468132002884327 l 33.27041713508901 -27.139988746721794" fill="red" stroke="none" /><path d="M 83.72743513129214 113.27417163493432 l -31.95597519503462 26.067746721127484 a62.239686829345835,62.239686829345835 0 0,0 -0.6700608738776228,-0.8360039667316306 l 32.3999539809671 -25.513814920817595" fill="red" stroke="none" /><path d="M 83.50135304334701 112.99209946851258 l -22.477455779977895 17.70019941997769 a49.61001708926159,49.61001708926159 0 0,0 -0.5225427418018946,-0.6754569332494041 l 22.77880533899786 -17.310664492615032" fill="red" stroke="none" /><path d="M 83.28015986056508 112.70617746262583 l -12.037278201489586 9.147682736175575 a36.118735593355055,36.118735593355055 0 0,0 -0.3719176015848687,-0.49824440522874724 l 12.19295706976954 -8.93912545143752" fill="red" stroke="none" /><path d="M 83.06392112726016 112.41649034213515 l -41.85919625328939 30.688585587841303 a72.90357980287735,72.90357980287735 0 0,0 -0.7332718696440582,-1.0184504931654927 l 42.381247915309054 -29.963501489224672" fill="red" stroke="none" /><path d="M 82.6465618267979 111.8261652097733 l -26.099210315883422 17.786306664975044 a52.58356350846515,52.58356350846515 0 0,0 -0.5032920462685302,-0.7523533216098872 l 26.401505467562682 -17.334416429159337" fill="red" stroke="none" /><path d="M 82.44556493220864 111.52570212397912 l -39.28399598659607 25.792663462684928 a67.99461489547731,67.99461489547731 0 0,0 -0.6339530910992927,-0.9839092756378527 l 39.722153941072406 -25.112632587125628" fill="red" stroke="none" /><path d="M 82.05923443525364 110.91462005526583 l -27.797509295878598 16.9111653208052 a53.537501987123434,53.537501987123434 0 0,0 -0.4721985350171035,-0.7914319054976554 l 28.08448870659393 -16.430171321421433" fill="red" stroke="none" /><line stroke="#e1ed5e" stroke-width="0.3" x1="26.63291911575756" x2="22.317208475507996" y1="142.92168965132927" y2="145.44649492493687" /><path d="M 25.769776987707644 143.4266507060508 a86.0,86.0 0 0,1 -11.730757126820373,-40.83630448921669" fill="none" id="id21" stroke="none" /><text fill="#e1ed5e" style="font-size:6.75px; font-family:Arial;" text-anchor="middle"><textPath startOffset="21.46611528233685" xlink:href="#id21">September</textPath></text><path d="M 81.87401531095188 110.60418214915194 l -39.86931426785286 23.32460707161151 a67.19090294889119,67.19090294889119 0 0,0 -0.5754357034322587,-1.0033206525539446 l 40.264901967437496 -22.634866573199258" fill="red" stroke="none" /><path d="M 81.69416730710424 110.29060199501025 l -41.11118842638395 23.11060549580857 a68.16174191240759,68.16174191240759 0 0,0 -0.5661436077333898,-1.0277150955631917 l 41.502908443568856 -22.399519881847556" fill="red" stroke="none" /><path d="M 81.35079622478065 109.6543875284942 l -28.486599473415623 14.74704625463927 a53.07743323265241,53.07743323265241 0 0,0 -0.41304689253384147,-0.8149807047381291 l 28.736225035735732 -14.254511338198457" fill="red" stroke="none" /><path d="M 81.18737489456691 109.33194174019688 l -26.2574512117581 13.024923612782942 a50.31044829504809,50.31044829504809 0 0,0 -0.3781590676965193,-0.7791196864708166 l 26.47776353606934 -12.571014970346841" fill="red" stroke="none" /><path d="M 81.02952815118164 109.00673069616217 l -48.09915941037957 22.83634160359839 a74.24497754550512,74.24497754550512 0 0,0 -0.5381890549801419,-1.1592113448812005 l 48.48512308219954 -22.005010191438366" fill="red" stroke="none" /><path d="M 80.87730276802145 108.67885076344099 l -25.77910507091973 11.69986655184984 a49.309876997059064,49.309876997059064 0 0,0 -0.34413343260585666,-0.7759300419532723 l 25.976679588256864 -11.254388173403873" fill="red" stroke="none" /><path d="M 80.73074385275274 108.34839909993369 l -28.208339276282338 12.221254023777224 a51.74198195691917,51.74198195691917 0 0,0 -0.34703844713321147,-0.8202963755228746 l 28.414528704607854 -11.73388312258819" fill="red" stroke="none" /><path d="M 80.58989483394504 108.01547362559985 l -29.82649004485576 12.316957700819543 a53.26959800492807,53.26959800492807 0 0,0 -0.3426944490488406,-0.8505395183720008 l 30.03408710816199 -11.801718814604737" fill="red" stroke="none" /><path d="M 80.32549172779594 107.34259656027581 l -23.925381184605197 8.92903747117079 a46.53725856450203,46.53725856450203 0 0,0 -0.27362963771632565,-0.7529112437421671 l 24.07553508332675 -8.515878430422507" fill="red" stroke="none" /><path d="M 80.20201598880116 107.00284435728193 l -18.142808185924284 6.417383803228704 a40.24433173038709,40.24433173038709 0 0,0 -0.22538582924075667,-0.6550767205417075 l 18.250584846108268 -6.104134379597699" fill="red" stroke="none" /><path d="M 80.0844068197444 106.66101706037122 l -25.081383194566303 8.388779578122014 a47.44706799936412,47.44706799936412 0 0,0 -0.25239072200418655,-0.7767787700480642 l 25.22206616758674 -7.955801908096147" fill="red" stroke="none" /><path d="M 79.86692584326677 105.97154293290107 l -60.399222470199675 17.914628798703227 a84.0,84.0 0 0,0 -0.3992294524555837,-1.389770097981616 l 60.698644559541364 -16.872301225217015" fill="red" stroke="none" /><path d="M 79.76711848015287 105.62410040840567 l -39.67170968539613 11.02747912722782 a62.17584055321517,62.17584055321517 0 0,0 -0.2777540574935332,-1.0336261749790205 l 39.85565181923144 -10.342962019073262" fill="red" stroke="none" /><path d="M 79.58551787078972 104.9243191809786 l -16.740207987939282 4.038021967289038 a38.22034218265639,38.22034218265639 0 0,0 -0.14876710190242207,-0.6408847813988438 l 16.80723565577226 -3.7492685285416196" fill="red" stroke="none" /><path d="M 79.50377843672027 104.57218783832718 l -53.565236139894154 11.949047314882645 a75.88182080120818,75.88182080120818 0 0,0 -0.2734129006791973,-1.2772940481317225 l 53.76298307929779 -11.025239447334757" fill="red" stroke="none" /><path d="M 79.4281124754447 104.21870165774334 l -30.125077364494377 6.177785760569685 a51.7519970590573,51.7519970590573 0 0,0 -0.1714471382877014,-0.8742052644533405 l 30.226954435757744 -5.6583167690483895" fill="red" stroke="none" /><path d="M 79.35854240842038 103.8639653848113 l -49.36451916787615 9.240761823929423 a71.22198155949448,71.22198155949448 0 0,0 -0.2152041958858391,-1.2069794177451865 l 49.516269806101185 -8.389663655451024" fill="red" stroke="none" /><path d="M 79.29508885075956 103.50808413554451 l -23.808035227520364 4.033854097616495 a45.14735017089262,45.14735017089262 0 0,0 -0.12322699557295452,-0.7673346190621532 l 23.87394397745461 -3.6234402488611286" fill="red" stroke="none" /><path d="M 79.23777060512086 103.15116336523772 l -59.7252403426911 9.064729310539526 a81.40921826563866,81.40921826563866 0 0,0 -0.19835142421705826,-1.3872693989949845 l 59.87242581792476 -8.035314439564141" fill="red" stroke="none" /><path d="M 79.1416061653843 102.43462659150553 l -19.4133022261508 2.265953083611008 a40.545097766473255,40.545097766473255 0 0,0 -0.0749460657480635,-0.6939074888957902 l 19.449430593399914 -1.931449272830436" fill="red" stroke="none" /><path d="M 79.10278846688536 102.07522291339032 l -49.767184315989205 4.942190543642676 a71.01197738653525,71.01197738653525 0 0,0 -0.11032354435232901,-1.2174111188152876 l 49.844882456618606 -4.084798036278823" fill="red" stroke="none" /><path d="M 79.07016306316243 101.71520430193888 l -28.652611549763872 2.348087218273584 a49.74866365948654,49.74866365948654 0 0,0 -0.06259670932067403,-0.8540823653634413 l 28.688784817748882 -1.8545317164133823" fill="red" stroke="none" /><path d="M 79.04373962182676 101.35467743843564 l -51.158652369627816 3.3070534005241283 a72.26543001351246,72.26543001351246 0 0,0 -0.06955943072641814,-1.2420303630027907 l 51.20799815124177 -2.4259513211859" fill="red" stroke="none" /><path d="M 79.0235259727143 100.99374915477108 l -50.16478079229196 2.376529460898495 a71.22104264366902,71.22104264366902 0 0,0 -0.04747346157738272,-1.2250790997276026 l 50.19825638672054 -1.5126731141568954" fill="red" stroke="none" /><path d="M 79.0095281055655 100.63252640178507 l -30.646072281610888 0.9234880438429947 a51.659983308163106,51.659983308163106 0 0,0 -0.01913371961259304,-0.8890687658896237 l 30.65742806390849 -0.395829462163242" fill="red" stroke="none" /><line stroke="#e1ed5e" stroke-width="0.3" x1="15.007084014347285" x2="10.007500721073583" y1="101.09737516637583" y2="101.16192664675087" /><path d="M 14.007167355692545 101.11028546245083 a86.0,86.0 0 0,1 10.666146001902534,-42.60595125391555" fill="none" id="id22" stroke="none" /><text fill="#e1ed5e" style="font-size:6.75px; font-family:Arial;" text-anchor="middle"><textPath startOffset="22.20632615414155" xlink:href="#id22">October</textPath></text><path d="M 79.00175016825051 100.2711162175752 l -31.6422686800238 0.40854510584283577 a52.64490600906129,52.64490600906129 0 0,0 -0.0038999915701026545,-0.9062206925301919 l 31.644612968883404 0.13618506489103147" fill="red" stroke="none" /><path d="M 79.00019446554 99.90962569577889 l -20.183999560772108 -0.08686341945933085 a41.18418647166362,41.18418647166362 0 0,0 0.009152681196472839,-0.7088852452753724 l 20.179513872457918 0.4342849227951752" fill="red" stroke="none" /><path d="M 79.01574976396665 99.18683210126434 l -23.323628860282337 -0.9038219644673463 a44.34113444877195,44.34113444877195 0 0,0 0.03611984844056167,-0.7624329128184493 l 23.304615403608278 1.3051659839088048" fill="red" stroke="none" /><path d="M 79.03285615573316 98.82574320788736 l -21.97031609987121 -1.2304390667968754 a43.00474425721326,43.00474425721326 0 0,0 0.04775453428974141,-0.7387415088050966 l 21.945880974577054 1.6084396398549838" fill="red" stroke="none" /><path d="M 79.08570108090925 98.10471618934814 l -38.25927790600978 -3.4671107218564585 a59.416053970272635,59.416053970272635 0 0,0 0.10107201087799844,-1.0177813562901548 l 38.19392876944955 4.125167608851044" fill="red" stroke="none" /><path d="M 79.12142395522702 97.74499172005258 l -42.66346417463077 -4.607903563860057 a63.91158294253239,63.91158294253239 0 0,0 0.12754818476682767,-1.092754954718391 l 42.57782563686035 5.34160225690331" fill="red" stroke="none" /><path d="M 79.16333360222342 97.38593545837743 l -30.556600283286567 -3.833479107847923 a51.796126102853506,51.796126102853506 0 0,0 0.1185983322061983,-0.883695330226587 l 30.486085952022535 4.358892780139169" fill="red" stroke="none" /><path d="M 79.21141760316559 97.0276538004421 l -53.699741335118304 -7.677975295659728 a75.24586181543597,75.24586181543597 0 0,0 0.19436402602704994,-1.2806160857932765 l 53.559621415651954 8.601190493845097" fill="red" stroke="none" /><path d="M 79.26566170972629 96.67025291283419 l -52.139399174046105 -8.373115654614105 a73.80744277084494,73.80744277084494 0 0,0 0.21224257499447613,-1.2526676919807307 l 51.98754473753141 9.269369134910663" fill="red" stroke="none" /><path d="M 79.32604984820605 96.31383870115002 l -49.278926149217355 -8.786422966409694 a71.05610643033145,71.05610643033145 0 0,0 0.22505930861892015,-1.2022758259452107 l 49.12038111668858 9.633376869817477" fill="red" stroke="none" /><path d="M 79.3925641242962 95.95851677861259 l -29.33899941037241 -5.753897504012765 a50.89789662983864,50.89789662983864 0 0,0 0.17601148046212892,-0.8582944879383132 l 29.235608633995284 6.258067648114481" fill="red" stroke="none" /><path d="M 79.46518482838121 95.60439243477599 l -30.223502830213583 -6.469532673060977 a51.90817005802401,51.90817005802401 0 0,0 0.1945459211437742,-0.8721112178659063 l 30.107662522067773 6.988822060476842" fill="red" stroke="none" /><path d="M 79.54389044137918 95.25157060432595 l -38.73506859669535 -8.991481876889187 a60.76496303950402,60.76496303950402 0 0,0 0.24527979805304023,-1.0168431147501247 l 38.57455599838149 9.65691022329871" fill="red" stroke="none" /><path d="M 79.62865764111835 94.90015583598534 l -19.241433978005155 -4.816978334136146 a40.83522275653763,40.83522275653763 0 0,0 0.1765708578660341,-0.6803995431438522 l 19.155666788268814 5.147474302828861" fill="red" stroke="none" /><path d="M 79.81627453868168 94.20196356495316 l -49.09796300257091 -14.104025489301051 a72.08359331531676,72.08359331531676 0 0,0 0.3528461098958354,-1.1896216733715426 l 48.84791099556336 14.947076549419133" fill="red" stroke="none" /><path d="M 79.91906864156998 93.8553929516997 l -42.49820031132011 -13.004115023947374 a65.44326762578493,65.44326762578493 0 0,0 0.3388855465997118,-1.0743597915476653 l 42.268059280952194 13.733724981921455" fill="red" stroke="none" /><path d="M 80.02781315780177 93.51064311812611 l -29.36565113997423 -9.54147844808192 a51.87687286384231,51.87687286384231 0 0,0 0.2832544111059935,-0.846894635904964 l 29.197059435096463 10.045546186909206" fill="red" stroke="none" /><path d="M 80.14247586403 93.16781622104843 l -50.39827314391463 -17.340040072634377 a74.2978698036722,74.2978698036722 0 0,0 0.42649425272507446,-1.205756684787529 l 50.09232581037975 18.204994383848515" fill="red" stroke="none" /><path d="M 80.2630227832202 92.82701384747504 l -34.803071153946725 -12.648438750811463 a58.030214211906845,58.030214211906845 0 0,0 0.3492739430786983,-0.9358805193716161 l 34.580192622366404 13.24564240721242" fill="red" stroke="none" /><path d="M 80.52162464483688 92.15188598940014 l -52.13283199664661 -21.005058263069092 a77.20537914315237,77.20537914315237 0 0,0 0.5072699036896925,-1.2283943080724167 l 51.76354040607072 21.89932714159482" fill="red" stroke="none" /><path d="M 80.65960295795068 91.81776055985345 l -49.041130868938986 -20.74757174388919 a74.24935915269056,74.24935915269056 0 0,0 0.5081106046890007,-1.1727893307068702 l 48.67672955440731 21.588660219182657" fill="red" stroke="none" /><path d="M 80.803312248108 91.48605970444005 l -26.471070476966375 -11.74020833767214 a49.9577289166203,49.9577289166203 0 0,0 0.3554080452340972,-0.7830945165516883 l 26.265060114768925 12.194124863065898" fill="red" stroke="none" /><path d="M 80.95270993114464 91.15688171328213 l -44.76940173747984 -20.78516753611441 a70.35911791590493,70.35911791590493 0 0,0 0.5194573676849086,-1.0941096944895652 l 44.404986175953184 21.55271964624451" fill="red" stroke="none" /><path d="M 81.10775173730289 90.83032412892265 l -50.315195767037096 -24.42134097319266 a76.92871194658613,76.92871194658613 0 0,0 0.588467966219535,-1.1863155110965384 l 49.88736778786415 25.28381607278816" fill="red" stroke="none" /><path d="M 81.43458229118936 90.18545643968196 l -36.10920989122982 -19.08900833607185 a61.84440326683094,61.84440326683094 0 0,0 0.5056277690276931,-0.9368514644587748 l 35.77527402298365 19.707740783863095" fill="red" stroke="none" /><path d="M 81.6062741919709 89.86733742301443 l -44.089348471036 -24.28776507591155 a71.33652929019951,71.33652929019951 0 0,0 0.6017486219275022,-1.0704436534934334 l 43.66474220781606 25.04309223933977" fill="red" stroke="none" /><line stroke="#e1ed5e" stroke-width="0.3" x1="26.266209847984243" x2="21.928928074336255" y1="57.711370442889674" y2="55.22380399835377" /><path d="M 25.398753493254645 57.213857153982495 a86.0,86.0 0 0,1 29.58750427330803,-30.492523968695096" fill="none" id="id23" stroke="none" /><text fill="#e1ed5e" style="font-size:6.75px; font-family:Arial;" text-anchor="middle"><textPath startOffset="21.46611528233685" xlink:href="#id23">November</textPath></text><path d="M 81.78341655067845 89.55222093294921 l -25.485262323464625 -14.616593224637223 a50.379302122247836,50.379302122247836 0 0,0 0.4379168671120461,-0.7485418787325998 l 25.229885781882253 15.053114515723713" fill="red" stroke="none" /><path d="M 81.96595687620814 89.24020034530311 l -33.196468409937175 -19.80628231187769 a59.65610344964629,59.65610344964629 0 0,0 0.5337352082853168,-0.8773203461973043 l 32.85061740336564 20.37477043128207" fill="red" stroke="none" /><path d="M 82.15384107792192 88.93136811851018 l -46.34641159734992 -28.74519784559567 a75.53692572132582,75.53692572132582 0 0,0 0.6948404530370799,-1.099070730408937 l 45.84474354806688 29.538716223718822" fill="red" stroke="none" /><path d="M 82.34701348167596 88.62581576622439 l -21.13796402036919 -13.619627299042717 a46.14573066528893,46.14573066528893 0 0,0 0.4359746775171677,-0.6640193443620072 l 20.900392707494102 13.981464707382392" fill="red" stroke="none" /><path d="M 82.54541684631803 88.32363383020206 l -35.326333064539256 -23.631798976006426 a63.50190267069391,63.50190267069391 0 0,0 0.6155920841541979,-0.9033054234228262 l 34.91431651471632 24.236382422699666" fill="red" stroke="none" /><path d="M 82.7489923806493 88.02491185347247 l -18.492110732892144 -12.836621542809672 a43.51081988713139,43.51081988713139 0 0,0 0.43238852440146497,-0.6115829037865661 l 18.2684095886868 13.153030946928023" fill="red" stroke="none" /><path d="M 82.95767976084542 87.72973835380427 l -13.069509665559837 -9.409886736869497 a37.104597210078694,37.104597210078694 0 0,0 0.3776495081626737,-0.5151135047228379 l 12.905597544883529 9.633462685263835" fill="red" stroke="none" /><path d="M 83.17141714833178 87.43820079747576 l -40.37460400670259 -30.13787155365562 a71.38253616564661,71.38253616564661 0 0,0 0.7434799098690287,-0.9783324116522051 l 39.84984815660945 30.828388741188853" fill="red" stroke="none" /><path d="M 84.07557802195018 86.31012108654704 l -5.122734406985811 -4.403903252129434 a27.7554993641205,27.7554993641205 0 0,0 0.31457307995812706,-0.35961140984744244 l 5.04616946344984 4.491430218179819" fill="red" stroke="none" /><path d="M 85.31137513191541 84.99185889309783 l -10.972029752403445 -11.21070026854549 a36.68646669581115,36.68646669581115 0 0,0 0.45511615747206774,-0.4378213829000655 l 10.77743035131895 11.39790473820787" fill="red" stroke="none" /><path d="M 85.57189188830299 84.74124197986013 l -12.936098839515331 -13.680851320815334 a39.82839201971227,39.82839201971227 0 0,0 0.5022021051403655,-0.4667421247653475 l 12.69868885058011 13.90149803165533" fill="red" stroke="none" /><path d="M 88.09926311788651 82.69761687909137 l -7.126749802237761 -10.361522711296058 a33.575838566091726,33.575838566091726 0 0,0 0.47900779122690224,-0.32342819888111496 l 6.94733731660432 10.482662822475838" fill="red" stroke="none" /><path d="M 88.70189139769569 82.29822771554957 l -8.245594223255937 -12.919120927930075 a36.32623599077975,36.32623599077975 0 0,0 0.5299839511419553,-0.3318759015842727 l 8.021991119741738 13.059141170837279" fill="red" stroke="none" /><line stroke="#e1ed5e" stroke-width="0.3" x1="56.762969772571076" x2="54.21961505331055" y1="26.818313649435495" y2="22.513508569990535" /><path d="M 56.25429882871897 25.957352633546506 a86.0,86.0 0 0,1 42.265352541879196,-11.944610805530505" fill="none" id="id24" stroke="none" /><text fill="#e1ed5e" style="font-size:6.75px; font-family:Arial;" text-anchor="middle"><textPath startOffset="22.20632615414155" xlink:href="#id24">December</textPath></text><path d="M 89.3179101791058 81.91981866633112 l -10.631039773164993 -17.993775570797343 a41.89964033065735,41.89964033065735 0 0,0 0.6241116382836892,-0.3615257445127343 l 10.319731402415984 18.174105472700123" fill="red" stroke="none" /><path d="M 89.63071344664047 81.73862282372117 l -7.388765728418235 -13.01237429783369 a35.963814482155634,35.963814482155634 0 0,0 0.5409572695235653,-0.30104213480785735 l 7.163684369822624 13.137631830201732" fill="red" stroke="none" /><path d="M 91.23893434514133 80.91482961587045 l -10.790557008318556 -23.50622939678734 a46.86462721564264,46.86462721564264 0 0,0 0.7360377174813145,-0.3302386688493753 l 10.384337172370467 23.688488396153247" fill="red" stroke="none" /><path d="M 94.98787191387505 79.60689891045804 l -4.0529575207202475 -16.490474906352357 a37.981231619108186,37.981231619108186 0 0,0 0.636233220171043,-0.15057584734357915 l 3.7685006135866703 16.557796665836808" fill="red" stroke="none" /><path d="M 95.33964822691252 79.52364482259891 l -10.112817028630731 -44.433047848043984 a66.56934067244258,66.56934067244258 0 0,0 1.1194974765131447,-0.24467878764620413 l 9.346476827964064 44.600540133786055" fill="red" stroke="none" /><path d="M 95.692805502759 79.44645832069477 l -6.315653738773509 -30.137727106377717 a51.79237043955171,51.79237043955171 0 0,0 0.8741407531951647,-0.17534441160170214 l 5.795946576111208 30.24197547405663" fill="red" stroke="none" /><path d="M 96.04723909329186 79.375362276772 l -9.469200693086403 -49.40820819493773 a71.30742289961054,71.30742289961054 0 0,0 1.2074889278419418,-0.2206608834881277 l 8.617316644141567 49.56388455977659" fill="red" stroke="none" /><path d="M 96.40284397218896 79.31037775812273 l -4.8425865987228365 -27.852916756052394 a49.27075550433193,49.27075550433193 0 0,0 0.8368304514222351,-0.13808419472466082 l 4.362426941161716 27.932147213716682" fill="red" stroke="none" /><path d="M 96.75951476605007 79.25152402106235 l -7.6660006698251415 -49.08457199124674 a70.67960118432558,70.67960118432558 0 0,0 1.2036770397355638,-0.17739070665318424 l 6.81995464966093 49.20925718206089" fill="red" stroke="none" /><path d="M 97.11714578562143 79.19881850522333 l -2.2405077334583936 -16.16634229079983 a37.320860821874255,37.320860821874255 0 0,0 0.6370942344785737,-0.0827131163622811 l 1.9618987704719622 16.20251373032625" fill="red" stroke="none" /><path d="M 97.83486435360386 79.11191278185805 l -4.896982339893674 -47.24350383850482 a68.49662189015183,68.49662189015183 0 0,0 1.1738196713079299,-0.11146832169740493 l 4.083037541495507 47.32079770471741" fill="red" stroke="none" /><path d="M 98.19473922651362 79.07773832637324 l -2.1947133922638007 -25.43586420640891 a46.53037318178205,46.53037318178205 0 0,0 0.7985715708259997,-0.061984523334922055 l 1.756551632075467 25.469873991932296" fill="red" stroke="none" /><path d="M 98.55514903715128 79.0497635885617 l -1.4125582969146853 -20.481995047401945 a41.53064641125506,41.53064641125506 0 0,0 0.7136111124477782,-0.04304697109026348 l 1.059785135627284 20.503275287872516" fill="red" stroke="none" /><path d="M 99.27714615592234 79.0124445844662 l -0.5369801167144561 -15.590841840184835 a36.60008643986964,36.60008643986964 0 0,0 0.6298236375682844,-0.016266486397662268 l 0.2685298439512926 15.597775118724856" fill="red" stroke="none" /><path d="M 99.63851952072746 79.00311137660856 l -0.3246169982371169 -18.855643245137635 a39.858437326126705,39.858437326126705 0 0,0 0.686097477509648,-0.00590545759762954 l 4.618984981672408e-15 18.858437326126705" fill="red" stroke="none" /></svg>