<?xml version="1.0" encoding="utf-8" ?>
<svg baseProfile="full" height="200mm" version="1.1" viewBox="0,0,200,200" width="200mm" xmlns="http://www.w3.org/2000/svg" xmlns:ev="http://www.w3.org/2001/xml-events" xmlns:xlink="http://www.w3.org/1999/xlink"><defs /><rect fill="#1a1a1a" height="200" width="200" x="0" y="0" /><rect fill="#1a1a1a" height="200" width="180" x="10" y="0" /><text alignment-baseline="middle" fill="#e1ed5e" style="dominant-baseline: central; font-size:9.0px; font-family:Arial;" text-anchor="middle" x="100.0" y="100.0">2026</text><line stroke="#e1ed5e" stroke-width="0.3" x1="100.0" x2="100.0" y1="15.0" y2="10.0" /><path d="M 100.0 14.0 a86.0,86.0 0 0,1 42.46469731375804,11.215312516191453" fill="none" id="id61" stroke="none" /><text fill="#e1ed5e" style="font-size:6.75px; font-family:Arial;" text-anchor="middle"><textPath startOffset="22.20632615414155" xlink:href="#id61">January</textPath></text><path d="M 100.0 79.0 l 0.0 -22.380745001924282 a43.38074500192428,43.38074500192428 0 0,0 0.746728214023568,0.006427325488611632 l -0.3852477347510397 22.377429053044228" fill="red" stroke="none" /><path d="M 100.72285384407766 79.0124445844662 l 0.737583552338758 -21.415222185126602 a42.427920354878566,42.427920354878566 0 0,0 0.7296777332771276,0.031421458112797854 l -1.1061021180052173 21.399353000489608" fill="red" stroke="none" /><path d="M 101.08401301168833 79.027996857942 l 2.188753773240617 -42.34501847731624 a63.401547529826416,63.401547529826416 0 0,0 1.0894135481457394,0.06571640028350374 l -2.9173293702259686 42.301068807652435" fill="red" stroke="none" /><path d="M 101.80526077348638 79.07773832637324 l 1.9644355622604281 -22.767034811938196 a43.851627539549106,43.851627539549106 0 0,0 0.7514808994133896,0.07136216634701457 l -2.356041588764062 22.729847101076004" fill="red" stroke="none" /><path d="M 102.16513564639614 79.11191278185805 l 4.2706268908578755 -41.20075669201778 a62.42149932143652,62.42149932143652 0 0,0 1.067803855862147,0.11998020490692014 l -4.979197450229749 41.12114053364026" fill="red" stroke="none" /><path d="M 102.52436894288641 79.15227682838746 l 2.701441390155251 -22.310091567636242 a43.473049889606834,43.473049889606834 0 0,0 0.7421165758222694,0.09634803043006876 l -3.085072694485367 22.26028521404204" fill="red" stroke="none" /><path d="M 102.88285421437855 79.19881850522331 l 2.835146302669851 -20.456945936405386 a41.65247422471592,41.65247422471592 0 0,0 0.7093436583168709,0.10453881618979034 l -3.1868589414153776 20.405112636054625" fill="red" stroke="none" /><path d="M 103.59715602781102 79.31037775812273 l 2.3366322318838124 -13.439516613153243 a34.64113107415585,34.64113107415585 0 0,0 0.5865978676420823,0.10719701087238057 l -2.5676252206287957 13.397304120930125" fill="red" stroke="none" /><path d="M 103.95276090670814 79.375362276772 l 3.8056803139146167 -19.857203513550477 a41.218598715793306,41.218598715793306 0 0,0 0.6956788542653504,0.13954663355876026 l -4.146925577647092 19.78875292391451" fill="red" stroke="none" /><path d="M 104.307194497241 79.44645832069477 l 8.874553348444467 -42.348564070953984 a64.26844781137962,64.26844781137962 0 0,0 1.0808033310451421,0.23622174616040464 l -9.602199403643137 42.18952882669771" fill="red" stroke="none" /><path d="M 104.66035177308747 79.52364482259891 l 4.474292639931945 -19.65886047314017 a41.16159938422897,41.16159938422897 0 0,0 0.6895083652433205,0.16318435293128408 l -4.812024692137788 19.578930208068016" fill="red" stroke="none" /><path d="M 105.01212808612495 79.60689891045804 l 4.828065451270195 -19.644196062595103 a41.22880755129738,41.22880755129738 0 0,0 0.687718324539771,0.17531471361243867 l -5.165492664494991 19.558178352813798" fill="red" stroke="none" /><path d="M 105.36241919743992 79.69619591428918 l 16.08725759231978 -60.91141225713248 a84.0,84.0 0 0,0 1.3948084431051566,0.3812538366948255 l -17.13336392464865 60.62547187961136" fill="red" stroke="none" /><path d="M 106.40334571778207 80.00007090966166 l 6.079086277759887 -18.987151381131234 a40.93657963499362,40.93657963499362 0 0,0 0.669249094634978,0.22064090430714872 l -6.405018194637282 18.87969675256485" fill="red" stroke="none" /><path d="M 107.08798089147638 80.2323363322302 l 6.74570645923591 -18.813094805042912 a40.985922339929914,40.985922339929914 0 0,0 0.6620547262960393,0.24384034300450463 l -7.068543511304526 18.694191194232083" fill="red" stroke="none" /><path d="M 107.4271985657038 80.35727306442388 l 7.111720524984303 -18.808381528865358 a41.10800299783264,41.10800299783264 0 0,0 0.6597185268339885,0.2559605390693282 l -7.434422216817959 18.68317828590548" fill="red" stroke="none" /><path d="M 107.76421540070413 80.48803036053334 l 13.140929454447843 -33.02399576991464 a56.54248617553526,56.54248617553526 0 0,0 0.9012229607870123,0.367631474065943 l -13.707436284823244 32.79290340966512" fill="red" stroke="none" /><path d="M 108.76106565485865 80.91482961587045 l 9.072154558684277 -19.762848758886577 a42.74567035994247,42.74567035994247 0 0,0 0.6660626054465778,0.3127253241816416 l -9.410995375430453 19.60375845206493" fill="red" stroke="none" /><path d="M 109.08828744355905 81.06846463323043 l 9.676451643404526 -20.15672233626112 a43.35905122647815,43.35905122647815 0 0,0 0.6700599027694637,0.3287954842507681 l -10.021982813184422 19.98717169187552" fill="red" stroke="none" /><path d="M 109.73455568895987 81.39251694778311 l 10.09578856834115 -19.297975242693948 a42.77927444347668,42.77927444347668 0 0,0 0.6495420743917792,0.34696288107351964 l -10.426475689261242 19.121333635118674" fill="red" stroke="none" /><line stroke="#e1ed5e" stroke-width="0.3" x1="143.23703022742887" x2="145.7803849466894" y1="26.81831364943548" y2="22.513508569990506" /><path d="M 143.74570117128098 25.957352633546492 a86.0,86.0 0 0,1 28.547481713284135,27.462654790039103" fill="none" id="id62" stroke="none" /><text fill="#e1ed5e" style="font-size:6.75px; font-family:Arial;" text-anchor="middle"><textPath startOffset="19.985693538727396" xlink:href="#id62">February</textPath></text><path d="M 110.68208982089419 81.91981866633111 l 11.46535796794268 -19.405917249484087 a43.53983268852923,43.53983268852923 0 0,0 0.6419801824240932,0.3867858767452273 l -11.797700216584412 19.205684763280246" fill="red" stroke="none" /><path d="M 111.2981086023043 82.29822771554956 l 7.209240964771207 -11.295372207351933 a34.399947335372396,34.399947335372396 0 0,0 0.49639611209057255,0.32286983945987985 l -7.40260410264606 11.169603443732525" fill="red" stroke="none" /><path d="M 112.77801427241765 83.33499621200491 l 8.60909296783722 -11.227923514681132 a35.14859527233689,35.14859527233689 0 0,0 0.4769621611663415,0.37227653223876866 l -8.801087684162994 11.07806859321914" fill="red" stroke="none" /><path d="M 113.89432698308785 84.25364557470407 l 8.740066123676659 -9.905062623864477 a34.20980777410926,34.20980777410926 0 0,0 0.43819344798517484,0.39341440415519907 l -8.909270559257823 9.75314921093998" fill="red" stroke="none" /><path d="M 114.68862486808459 84.99185889309783 l 9.547353266056968 -9.755033320087183 a34.6496384370759,34.6496384370759 0 0,0 0.4226665192726254,0.4208514549158912 l -9.713855585496917 9.589246014521173" fill="red" stroke="none" /><path d="M 117.65298651832404 88.62581576622439 l 11.650062868470405 -7.5063764005882865 a34.85891956490915,34.85891956490915 0 0,0 0.320656251648685,0.5072011843428225 l -11.777546716365046 7.304727568531257" fill="red" stroke="none" /><line stroke="#e1ed5e" stroke-width="0.3" x1="172.23445277983987" x2="176.4835382374775" y1="55.19839476539836" y2="52.563006222186495" /><path d="M 173.08426987136738 54.67131705675599 a86.0,86.0 0 0,1 12.851231095245387,41.99856678651699" fill="none" id="id63" stroke="none" /><text fill="#e1ed5e" style="font-size:6.75px; font-family:Arial;" text-anchor="middle"><textPath startOffset="22.20632615414155" xlink:href="#id63">March</textPath></text><path d="M 118.21658344932153 89.55222093294921 l 11.657816392834869 -6.686121490093031 a34.43908120480464,34.43908120480464 0 0,0 0.29050571792097774,0.5167772566823164 l -11.77117975204828 6.48446072347592" fill="red" stroke="none" /><path d="M 118.89224826269711 90.83032412892265 l 11.865965162950681 -5.759349174793217 a34.189815471247144,34.189815471247144 0 0,0 0.2524214639466298,0.531663978570769 l -11.963344820739069 5.554242780581907" fill="red" stroke="none" /><path d="M 119.34039704204932 91.81776055985345 l 11.981730307097138 -5.069047241728253 a34.00988474548806,34.00988474548806 0 0,0 0.22345840601796618,0.5411222547342787 l -12.067210400001303 4.862050416540671" fill="red" stroke="none" /><path d="M 119.97218684219823 93.5106431181261 l 13.438718116854355 -4.366504208287973 a35.13030444205878,35.13030444205878 0 0,0 0.18191561722034855,0.5767222195137616 l -13.51188921784291 4.1345318223477925" fill="red" stroke="none" /><path d="M 120.6074358757038 95.95851677861258 l 23.395778188687675 -4.588326542476938 a44.84145921529704,44.84145921529704 0 0,0 0.1420284380252882,0.7587215951315918 l -23.47129235062282 4.184926869882784" fill="red" stroke="none" /><path d="M 120.91429891909075 98.10471618934814 l 12.768275019169833 -1.1570794233840505 a33.82059592051692,33.82059592051692 0 0,0 0.04755097867074058,0.5802423819953313 l -12.786300481660067 0.9371231241809505" fill="red" stroke="none" /><path d="M 120.94382443527127 98.46500227214037 l 19.753434284258056 -1.447752622137943 a40.80641698231684,40.80641698231684 0 0,0 0.04531340605976243,0.7009783355562766 l -19.775428281322235 1.107515222328631" fill="red" stroke="none" /><line stroke="#e1ed5e" stroke-width="0.3" x1="184.98032266829074" x2="189.97916517819016" y1="98.17113171792111" y2="98.06355123074" /><path d="M 185.9800911702706 98.14961562048488 a86.0,86.0 0 0,1 -9.607161424134198,41.387399972396054" fill="none" id="id64" stroke="none" /><text fill="#e1ed5e" style="font-size:6.75px; font-family:Arial;" text-anchor="middle"><textPath startOffset="21.466115282336823" xlink:href="#id64">April</textPath></text><path d="M 120.99980553446 99.90962569577887 l 29.94606553569078 -0.12887523327334519 a50.946342846725685,50.946342846725685 0 0,0 -0.003774160174121901,0.8769819075846116 l -29.943847078227158 -0.3866161525149511" fill="red" stroke="none" /><path d="M 120.95626037817324 101.35467743843564 l 13.09824639934557 0.8467111288016481 a34.12558488120075,34.12558488120075 0 0,0 -0.042938828102551105,0.5858661944015497 l -13.08173101257868 -1.072050459699968" fill="red" stroke="none" /><path d="M 120.76222939487914 103.15116336523771 l 12.85459101225214 1.95099069095699 a34.001802750714006,34.001802750714006 0 0,0 -0.09280588962973545,0.5779023633145022 l -12.819103368261116 -2.1719722839646973" fill="red" stroke="none" /><path d="M 120.70491114924044 103.5080841355445 l 17.174897635838164 2.909985244157636 a38.41967631509652,38.41967631509652 0 0,0 -0.1160888164937944,0.6510877334972348 l -17.122262377005182 -3.205191728388089" fill="red" stroke="none" /><path d="M 120.49622156327973 104.57218783832717 l 16.643916677912948 3.7128362016353598 a38.053008973242314,38.053008973242314 0 0,0 -0.14811578181487722,0.6380789115083296 l -16.57754033016752 -3.9987837704922544" fill="red" stroke="none" /><path d="M 120.23288151984713 105.62410040840565 l 16.439907822462427 4.569773821280248 a38.06321780874638,38.06321780874638 0 0,0 -0.1809042571962399,0.6297514517090379 l -16.358810928380088 -4.852082748493868" fill="red" stroke="none" /><line stroke="#e1ed5e" stroke-width="0.3" x1="174.80103733775053" x2="179.2010983576182" y1="140.37084112569926" y2="142.7455964860345" /><path d="M 175.68104954172406 140.8457921977663 a86.0,86.0 0 0,1 -30.038265399797805,32.042727171017184" fill="none" id="id65" stroke="none" /><text fill="#e1ed5e" style="font-size:6.75px; font-family:Arial;" text-anchor="middle"><textPath startOffset="22.206326154141568" xlink:href="#id65">May</textPath></text><line stroke="#e1ed5e" stroke-width="0.3" x1="143.8653032363475" x2="146.44561519142675" y1="172.8068346515853" y2="177.08958963109032" /><path d="M 144.38136562736335 173.6633856474863 a86.0,86.0 0 0,1 -40.68145358897372,12.25698825130547" fill="none" id="id66" stroke="none" /><text fill="#e1ed5e" style="font-size:6.75px; font-family:Arial;" text-anchor="middle"><textPath startOffset="21.466115282336833" xlink:href="#id66">June</textPath></text><line stroke="#e1ed5e" stroke-width="0.3" x1="102.19456741930631" x2="102.32365962044197" y1="184.97166512339345" y2="189.96999836594603" /><path d="M 102.22038585953345 185.97133177190398 a86.0,86.0 0 0,1 -42.740103519485714,-10.115201625700543" fill="none" id="id67" stroke="none" /><text fill="#e1ed5e" style="font-size:6.75px; font-family:Arial;" text-anchor="middle"><textPath startOffset="22.20632615414155" xlink:href="#id67">July</textPath></text><line stroke="#e1ed5e" stroke-width="0.3" x1="58.666819895761336" x2="56.23545636021788" y1="174.27360380694188" y2="178.64263932499728" /><path d="M 58.180547188652646 175.14741091055294 a86.0,86.0 0 0,1 -31.652253787137756,-30.449443065178592" fill="none" id="id68" stroke="none" /><text fill="#e1ed5e" style="font-size:6.75px; font-family:Arial;" text-anchor="middle"><textPath startOffset="22.20632615414155" xlink:href="#id68">August</textPath></text><line stroke="#e1ed5e" stroke-width="0.3" x1="26.63291911575756" x2="22.317208475507996" y1="142.92168965132927" y2="145.44649492493687" /><path d="M 25.769776987707644 143.4266507060508 a86.0,86.0 0 0,1 -11.730757126820373,-40.83630448921669" fill="none" id="id69" stroke="none" /><text fill="#e1ed5e" style="font-size:6.75px; font-family:Arial;" text-anchor="middle"><textPath startOffset="21.46611528233685" xlink:href="#id69">September</textPath></text><line stroke="#e1ed5e" stroke-width="0.3" x1="15.007084014347285" x2="10.007500721073583" y1="101.09737516637583" y2="101.16192664675087" /><path d="M 14.007167355692545 101.11028546245083 a86.0,86.0 0 0,1 10.666146001902534,-42.60595125391555" fill="none" id="id70" stroke="none" /><text fill="#e1ed5e" style="font-size:6.75px; font-family:Arial;" text-anchor="middle"><textPath startOffset="22.20632615414155" xlink:href="#id70">October</textPath></text><line stroke="#e1ed5e" stroke-width="0.3" x1="26.266209847984243" x2="21.928928074336255" y1="57.711370442889674" y2="55.22380399835377" /><path d="M 25.398753493254645 57.213857153982495 a86.0,86.0 0 0,1 29.58750427330803,-30.492523968695096" fill="none" id="id71" stroke="none" /><text fill="#e1ed5e" style="font-size:6.75px; font-family:Arial;" text-anchor="middle"><textPath startOffset="21.46611528233685" xlink:href="#id71">November</textPath></text><line stroke="#e1ed5e" stroke-width="0.3" x1="56.762969772571076" x2="54.21961505331055" y1="26.818313649435495" y2="22.513508569990535" /><path d="M 56.25429882871897 25.957352633546506 a86.0,86.0 0 0,1 42.265352541879196,-11.944610805530505" fill="none" id="id72" stroke="none" /><text fill="#e1ed5e" style="font-size:6.75px; font-family:Arial;" text-anchor="middle"><textPath startOffset="22.20632615414155" xlink:href="#id72">December</textPath></text></svg>