<?xml version="1.0" encoding="utf-8" ?>
<svg baseProfile="full" height="200mm" version="1.1" viewBox="0,0,200,200" width="200mm" xmlns="http://www.w3.org/2000/svg" xmlns:ev="http://www.w3.org/2001/xml-events" xmlns:xlink="http://www.w3.org/1999/xlink"><defs /><rect fill="#1a1a1a" height="200" width="200" x="0" y="0" /><rect fill="#1a1a1a" height="200" width="180" x="10" y="0" /><text alignment-baseline="middle" fill="#e1ed5e" style="dominant-baseline: central; font-size:9.0px; font-family:Arial;" text-anchor="middle" x="100.0" y="100.0">2025</text><line stroke="#e1ed5e" stroke-width="0.3" x1="100.0" x2="100.0" y1="15.0" y2="10.0" /><path d="M 100.0 14.0 a86.0,86.0 0 0,1 42.46469731375804,11.215312516191453" fill="none" id="id49" stroke="none" /><text fill="#e1ed5e" style="font-size:6.75px; font-family:Arial;" text-anchor="middle"><textPath startOffset="22.20632615414155" xlink:href="#id49">January</textPath></text><path d="M 100.36148047927253 79.00311137660856 l 0.11507323243570688 -6.684122611126007 a27.685113082767497,27.685113082767497 0 0,0 0.4764124985585846,0.012304329283987975 l -0.23011236618915928 6.681151489699659" fill="#ff4406" stroke="none" /><path d="M 101.80526077348638 79.07773832637324 l 0.28864373153072576 -3.345267215813401 a24.357696822071333,24.357696822071333 0 0,0 0.4174153832484421,0.03963862027422199 l -0.346184241869412 3.339803051024001" fill="#ff1402" stroke="none" /><path d="M 102.16513564639614 79.11191278185805 l 0.6908109108301663 -6.664579459805605 a27.700286493172122,27.700286493172122 0 0,0 0.4738507252698692,0.05324265013752796 l -0.8054283396097608 6.651700856197476" fill="#ff4406" stroke="none" /><path d="M 102.52436894288641 79.15227682838746 l 0.6581331290284499 -5.435250391079499 a26.47495077870611,26.47495077870611 0 0,0 0.45194666274504147,0.05867564778037748 l -0.7515945202813376 5.423116420134985" fill="#ff3304" stroke="none" /><path d="M 103.2404852339499 79.25152402106235 l 1.3018747786267297 -8.335763202659622 a29.436813741575584,29.436813741575584 0 0,0 0.4999643679023729,0.08249840456390156 l -1.445168352667978 8.312118535156097" fill="#ff5d08" stroke="none" /><path d="M 103.95276090670814 79.375362276772 l 0.6455525951363034 -3.368351570007841 a24.429654567483656,24.429654567483656 0 0,0 0.41231858018243206,0.08270722829278315 l -0.7034375847858607 3.3567403856378495" fill="#ff1502" stroke="none" /><path d="M 104.307194497241 79.44645832069477 l 1.2308289093890346 -5.8734039768638295 a27.00098442587778,27.00098442587778 0 0,0 0.4540759097626674,0.09924340646673262 l -1.33174754330523 5.851347072301227" fill="#ff3a05" stroke="none" /><path d="M 104.66035177308747 79.52364482259891 l 1.8186982504434694 -7.990879905601374 a29.195231844915064,29.195231844915064 0 0,0 0.48905671507993065,0.11574392367067944 l -1.9559786524859237 7.958390069789826" fill="#ff5a08" stroke="none" /><path d="M 105.01212808612495 79.60689891045804 l 1.4343115992732753 -5.83585673296245 a27.00953189287427,27.00953189287427 0 0,0 0.4505332829929613,0.11485096537690856 l -1.5345537709512616 5.810302771416674" fill="#ff3b05" stroke="none" /><path d="M 105.36241919743992 79.69619591428918 l 2.079093045285533 -7.87209957169975 a29.142025519347754,29.142025519347754 0 0,0 0.4838993243282403,0.13226796474178387 l -2.214290258837484 7.835145066131673" fill="#ff5908" stroke="none" /><path d="M 106.0581310904928 79.89281104454417 l 0.99121098842856 -3.2898704800783674 a24.435949213721383,24.435949213721383 0 0,0 0.40169748096545926,0.1248093626991111 l -1.0476938421047375 3.2723209824967356" fill="#ff1502" stroke="none" /><path d="M 106.74666289553966 80.11325718540242 l 2.8219517928228717 -8.31810191319365 a29.783748138425423,29.783748138425423 0 0,0 0.48408234409959855,0.16888682465035967 l -2.9647161409857437 8.268294235371084" fill="#ff6209" stroke="none" /><path d="M 107.4271985657038 80.35727306442388 l 2.8650403937887 -7.5771780728275235 a29.100745891915086,29.100745891915086 0 0,0 0.46702101317343636,0.1811968975045283 l -2.9950445719618033 7.526738471432449" fill="#ff5808" stroke="none" /><path d="M 107.76421540070413 80.48803036053334 l 2.2286328080377653 -5.6006967148294935 a27.027819496680717,27.027819496680717 0 0,0 0.4307927216853574,0.17573116773652203 l -2.3247093993115104 5.561504660909391" fill="#ff3b05" stroke="none" /><path d="M 108.09893153111575 80.62456947434976 l 3.1713080868252828 -7.586859979695497 a29.22299454779514,29.22299454779514 0 0,0 0.46244170163035175,0.19799340279052774 l -3.3014335462459496 7.531147048942178" fill="#ff5a08" stroke="none" /><path d="M 108.76106565485865 80.91482961587045 l 1.1131564506887925 -2.424908266017472 a23.668201151021027,23.668201151021027 0 0,0 0.36879767218847687,0.17315545212938183 l -1.1547323341768674 2.405387831248087" fill="#ff0a01" stroke="none" /><path d="M 109.41281617654863 81.2277094730956 l 0.9047929071438842 -1.8044584108531154 a23.01859365928768,23.01859365928768 0 0,0 0.35266624287294196,0.18064934723070905 l -0.9357196376055817 1.7886165383099057" fill="#ff0000" stroke="none" /><path d="M 109.73455568895987 81.39251694778311 l 1.1247678690010297 -2.1499798993240997 a23.426420476058258,23.426420476058258 0 0,0 0.3556966767096083,0.19000084614226792 l -1.1616095922389493 2.1303003266800773" fill="#ff0601" stroke="none" /><path d="M 110.05341064243156 81.56283822128135 l 0.9974553147993932 -1.8292543356759987 a23.083527904687383,23.083527904687383 0 0,0 0.3472157335392488,0.19322517979209355 l -1.028795137410677 1.8118137583237253" fill="#ff0100" stroke="none" /><line stroke="#e1ed5e" stroke-width="0.3" x1="143.23703022742887" x2="145.7803849466894" y1="26.81831364943548" y2="22.513508569990506" /><path d="M 143.74570117128098 25.957352633546492 a86.0,86.0 0 0,1 28.547481713284135,27.462654790039103" fill="none" id="id50" stroke="none" /><text fill="#e1ed5e" style="font-size:6.75px; font-family:Arial;" text-anchor="middle"><textPath startOffset="19.985693538727396" xlink:href="#id50">February</textPath></text><path d="M 110.99172775467656 82.1063720568725 l 1.7964872961488925 -2.924533430894578 a24.432238685412827,24.432238685412827 0 0,0 0.35645571418476013,0.22321253552118672 l -1.8465621627059159 2.8931765540504473" fill="#ff1502" stroke="none" /><path d="M 111.90073688211348 82.69761687909136 l 3.7841096018399596 -5.50168571502073 a27.677426988414066,27.677426988414066 0 0,0 0.3902106794150694,0.27336751765198075 l -3.8782514208386796 5.435733354604814" fill="#ff4406" stroke="none" /><path d="M 112.19680574252982 82.90503203632743 l 1.2043795356734899 -1.6880509547388014 a23.073655249009263,23.073655249009263 0 0,0 0.32133326411479746,0.23346228204217787 l -1.233258116142076 1.6670694378799489" fill="#ff0100" stroke="none" /><path d="M 113.06298171725822 83.55741782278167 l 1.2531454177862993 -1.5773540036983664 a23.014551833808717,23.014551833808717 0 0,0 0.308062490668809,0.24909844314396978 l -1.2801113070195995 1.555549463290267" fill="#ff0000" stroke="none" /><path d="M 113.34407831869373 83.78471172551755 l 3.8949420109550137 -4.733006357700284 a27.12959398742964,27.12959398742964 0 0,0 0.35803630947501763,0.2998451126122865 l -3.9758358573891486 4.665260087694178" fill="#ff3c05" stroke="none" /><path d="M 113.6212207817346 84.01681056812373 l 4.381030816403568 -5.14071730922701 a27.754287931948408,27.754287931948408 0 0,0 0.36094610230278024,0.31300890309501617 l -4.468870717353113 5.064543412712323" fill="#ff4506" stroke="none" /><path d="M 113.89432698308785 84.25364557470407 l 6.221312304367378 -7.050574572936404 a30.40294254991544,30.40294254991544 0 0,0 0.38943130907988605,0.34963527438736586 l -6.341754601043253 6.942440289779741" fill="#ff6a09" stroke="none" /><path d="M 114.16331599549186 84.49514656593476 l 4.557442055078141 -4.9891191526562935 a27.757335865916147,27.757335865916147 0 0,0 0.349996366864435,0.3252834790184696 l -4.642646305737423 4.909931087563184" fill="#ff4506" stroke="none" /><path d="M 114.42810811169701 84.74124197986012 l 6.459498271868841 -6.831382208874054 a30.401749880101974,30.401749880101974 0 0,0 0.3771507270128914,0.3628187005702721 l -6.57613224249415 6.71918042154148" fill="#ff6a09" stroke="none" /><path d="M 115.19652480421416 85.50635884689758 l 4.142920113787389 -3.9512979598173152 a26.725080142363126,26.725080142363126 0 0,0 0.31463395876906847,0.33562956999648313 l -4.21032139452692 3.8793989729427776" fill="#ff3705" stroke="none" /><path d="M 115.4437574822437 85.77008943001954 l 4.482956321178212 -4.130605366785828 a27.09580167604816,27.09580167604816 0 0,0 0.3130937423476079,0.34572593027591364 l -4.553393704141856 4.052826649240365" fill="#ff3c05" stroke="none" /><path d="M 115.68641384162765 86.03803664274999 l 6.572004365381927 -5.84952590563737 a29.79819269505515,29.79819269505515 0 0,0 0.33772439581420255,0.38607736598054593 l -6.671720624773977 5.735532983453876" fill="#ff6209" stroke="none" /><path d="M 116.82858285166822 87.43820079747576 l 4.870495681257318 -3.63561146556384 a27.07777910997804,27.07777910997804 0 0,0 0.275596845995229,0.37591378821552734 l -4.932355139766174 3.5512352336768185" fill="#ff3c05" stroke="none" /><path d="M 117.04232023915458 87.72973835380427 l 5.206431629211901 -3.748566946106646 a27.41550344549057,27.41550344549057 0 0,0 0.2724414090855738,0.38534905224624927 l -5.270185658101358 3.6583913935286034" fill="#ff4006" stroke="none" /><path d="M 117.2510076193507 88.02491185347247 l 6.697191951979354 -4.648972728364381 a29.152627028800765,29.152627028800765 0 0,0 0.28260769640705913,0.41469192251923537 l -6.776224114055147 4.533002782574739" fill="#ff5908" stroke="none" /><path d="M 117.45458315368197 88.32363383020206 l 5.058665727460128 -3.384030019185639 a27.08619405810637,27.08619405810637 0 0,0 0.25590438268935645,0.38975993142642884 l -5.116166745507409 3.2964520237815362" fill="#ff3c05" stroke="none" /><path d="M 117.65298651832404 88.62581576622439 l 5.687971651220598 -3.6648777480411363 a27.76641340838529,27.76641340838529 0 0,0 0.25541451532030063,0.4040044253081872 l -5.750213762786854 3.566425675018743" fill="#ff4506" stroke="none" /><line stroke="#e1ed5e" stroke-width="0.3" x1="172.23445277983987" x2="176.4835382374775" y1="55.19839476539836" y2="52.563006222186495" /><path d="M 173.08426987136738 54.67131705675599 a86.0,86.0 0 0,1 12.851231095245387,41.99856678651699" fill="none" id="id51" stroke="none" /><text fill="#e1ed5e" style="font-size:6.75px; font-family:Arial;" text-anchor="middle"><textPath startOffset="22.20632615414155" xlink:href="#id51">March</textPath></text><path d="M 117.84615892207809 88.93136811851018 l 1.7332288467718582 -1.0749916637558943 a23.03953164045738,23.03953164045738 0 0,0 0.20613161952983908,0.3388261838470646 l -1.7514762645879212 1.0449977067017482" fill="#ff0100" stroke="none" /><path d="M 118.03404312379186 89.2402003453031 l 2.8554736163807433 -1.7036847378387265 a24.32509718050332,24.32509718050332 0 0,0 0.21144338847,0.361425291276631 l -2.8843766793210706 1.6542800342082002" fill="#ff1402" stroke="none" /><path d="M 118.21658344932153 89.55222093294921 l 5.829564201491743 -3.3434369844276435 a27.720296842264684,27.720296842264684 0 0,0 0.23383041746250893,0.4159582211666697 l -5.886252260246685 3.24259525332618" fill="#ff4506" stroke="none" /><path d="M 118.3937258080291 89.86733742301442 l 5.918288181208748 -3.260243074155926 a27.75687204987758,27.75687204987758 0 0,0 0.22693476771396898,0.420475659155896 l -5.973531048141182 3.157886431667571" fill="#ff4506" stroke="none" /><path d="M 118.56541770881063 90.18545643968196 l 7.662387971818895 -4.050694775899624 a29.66719779387637,29.66719779387637 0 0,0 0.23478135323405996,0.45352284504438256 l -7.730978758213072 3.918199208594896" fill="#ff6008" stroke="none" /><path d="M 118.73160827565052 90.50648371742162 l 9.017751404354444 -4.570358750282479 a31.109798192695052,31.109798192695052 0 0,0 0.23797512279507718,0.47974332611604725 l -9.095086540102928 4.414455835667483" fill="#ff740a" stroke="none" /><path d="M 118.89224826269711 90.83032412892265 l 6.00227189894497 -2.9133053429154843 a27.671927455385315,27.671927455385315 0 0,0 0.20430026726489692,0.4303084659238494 l -6.051530360051624 2.8095544613510945" fill="#ff4406" stroke="none" /><path d="M 119.04729006885535 91.15688171328212 l 2.504773694025778 -1.1628956128487393 a23.76156069364162,23.76156069364162 0 0,0 0.169043910141184,0.37246584837668334 l -2.524419921130309 1.1196077556299933" fill="#ff0b01" stroke="none" /><path d="M 119.34039704204932 91.81776055985345 l 4.755952382393284 -2.0120756091031033 a26.164061513996515,26.164061513996515 0 0,0 0.1719082415193811,0.41628944247858507 l -4.789882310798863 1.9299115961712154" fill="#ff2e04" stroke="none" /><path d="M 119.47837535516314 92.15188598940014 l 6.2745325665434795 -2.5280982652591724 a27.764690663099174,27.764690663099174 0 0,0 0.17479386624766852,0.44483132392192576 l -6.317119982672849 2.419717936441462" fill="#ff4506" stroke="none" /><path d="M 119.61058180528143 92.48833698450437 l 6.085767389815151 -2.3311003353644684 a27.516946639069086,27.516946639069086 0 0,0 0.1656197996963789,0.4437787222024357 l -6.124991778013156 2.225998476132699" fill="#ff4206" stroke="none" /><path d="M 119.7369772167798 92.82701384747503 l 6.3058364338349255 -2.2917226342811348 a27.709364035641265,27.709364035641265 0 0,0 0.15906087939123892,0.44968652540740695 l -6.344350394035974 2.182838482447113" fill="#ff4506" stroke="none" /><path d="M 119.85752413597 93.16781622104841 l 6.321982672740379 -2.1751426397246534 a27.685709417674232,27.685709417674232 0 0,0 0.15116754122280568,0.4519717072883679 l -6.358487507734955 2.0659978295139716" fill="#ff4406" stroke="none" /><path d="M 120.37134235888165 94.90015583598534 l 8.432353547914039 -2.110989461206936 a29.692575157129514,29.692575157129514 0 0,0 0.11985506900547754,0.49687663906087337 l -8.467441417180334 1.965527590486657" fill="#ff6108" stroke="none" /><path d="M 120.45610955862082 95.25157060432595 l 6.5739333079050875 -1.5259919328747422 a27.748722139485572,27.748722139485572 0 0,0 0.10399905647134967,0.46620737799536865 l -6.599226751378475 1.4126063853294095" fill="#ff4506" stroke="none" /><path d="M 120.53481517161879 95.60439243477599 l 8.53928395751404 -1.8278879479335404 a29.7327283741828,29.7327283741828 0 0,0 0.10281960328101448,0.5013849012370948 l -8.569482856710051 1.6806273905330336" fill="#ff6109" stroke="none" /><path d="M 120.67395015179393 96.31383870115 l 1.9630520227051718 -0.3500117945818449 a22.994011409243505,22.994011409243505 0 0,0 0.06612216881842707,0.3902567833277216 l -1.968786053043822 0.3161692229382854" fill="#ff0000" stroke="none" /><path d="M 120.83666639777658 97.38593545837742 l 2.640019359962631 -0.33120369959044166 a23.660713834969837,23.660713834969837 0 0,0 0.04721962688127076,0.40454892657855746 l -2.645329339847491 0.28571103468703146" fill="#ff0a01" stroke="none" /><path d="M 120.87857604477298 97.74499172005257 l 7.10805448175974 -0.7677114414466252 a28.149392937375367,28.149392937375367 0 0,0 0.04788462981063905,0.4821916873995086 l -7.120216237252608 0.6452442233426816" fill="#ff4b07" stroke="none" /><path d="M 120.91429891909075 98.10471618934814 l 8.477544576307741 -0.768247267178971 a29.512283236994218,29.512283236994218 0 0,0 0.04149359029702508,0.5063269010338799 l -8.489512650424262 0.6222064489373224" fill="#ff5e08" stroke="none" /><path d="M 120.98425023603335 99.18683210126433 l 2.585755195743138 -0.10020148899848175 a23.587695938612214,23.587695938612214 0 0,0 0.01223000192699761,0.4058542236229857 l -2.5870968921257806 0.05567711795049699" fill="#ff0901" stroke="none" /><line stroke="#e1ed5e" stroke-width="0.3" x1="184.98032266829074" x2="189.97916517819016" y1="98.17113171792111" y2="98.06355123074" /><path d="M 185.9800911702706 98.14961562048488 a86.0,86.0 0 0,1 -9.607161424134198,41.387399972396054" fill="none" id="id52" stroke="none" /><text fill="#e1ed5e" style="font-size:6.75px; font-family:Arial;" text-anchor="middle"><textPath startOffset="21.466115282336823" xlink:href="#id52">April</textPath></text><path d="M 120.99513854157772 99.54816195383933 l 6.334724087246168 -0.13633010084119865 a27.336190902895222,27.336190902895222 0 0,0 0.0060751337320276615,0.4705258025778117 l -6.336132228095911 0.027268040202924265" fill="#ff3f05" stroke="none" /><path d="M 120.99980553446 99.90962569577887 l 3.8516914945720715 -0.016576055350854785 a24.85172716258172,24.85172716258172 0 0,0 -0.0018410428241599987,0.42779351521625375 l -3.8514061544584086 -0.049726938069083654" fill="#ff1b02" stroke="none" /><path d="M 120.99824983174949 100.27111621757518 l 3.3471476307519006 0.04321626862173548 a24.347426609788727,24.347426609788727 0 0,0 -0.009017750378681817,0.41901942552763827 l -3.3459078176882113 -0.10082550993948858" fill="#ff1402" stroke="none" /><path d="M 120.9904718944345 100.63252640178507 l 3.4995599581679566 0.10545566003963933 a24.50114849685741,24.50114849685741 0 0,0 -0.016331610554854884,0.4214463005406418 l -3.4972262147618984 -0.16567920759428734" fill="#ff1602" stroke="none" /><path d="M 120.92983693683757 101.71520430193887 l 8.602050980499296 0.7049397896302576 a29.630887623999797,29.630887623999797 0 0,0 -0.046034270066743106,0.5079843342126549 l -8.588642114155478 -0.852905512391483" fill="#ff6008" stroke="none" /><path d="M 120.89721153311464 102.0752229133903 l 6.5826981176642425 0.6537028131270478 a27.615076860943535,27.615076860943535 0 0,0 -0.05104541560063737,0.4726171521551093 l -6.570470400562553 -0.7669162871669485" fill="#ff4306" stroke="none" /><path d="M 120.8583938346157 102.4346265915055 l 8.651005285503699 1.0097597963841525 a29.709736350556582,29.709736350556582 0 0,0 -0.06366158554519527,0.5074454739879548 l -8.632342190711656 -1.1585230246595022" fill="#ff6108" stroke="none" /><path d="M 120.81339534386255 102.79330883721812 l 6.618879847390524 0.8883017530175699 a27.678222101623042,27.678222101623042 0 0,0 -0.06743726190489627,0.4716560526951294 l -6.6026085344690255 -1.0021032776931087" fill="#ff4406" stroke="none" /><path d="M 120.76222939487914 103.15116336523771 l 8.513250375506475 1.292088734411572 a29.610744756039075,29.610744756039075 0 0,0 -0.08082075911770659,0.5032709441753981 l -8.48974786202748 -1.4384389082801747" fill="#ff5f08" stroke="none" /><path d="M 120.5718875245553 104.21870165774334 l 6.538832374158111 1.3409262005559668 a27.674909129918973,27.674909129918973 0 0,0 -0.09971660012042884,0.4658427583971262 l -6.514781735313239 -1.453282778369262" fill="#ff4406" stroke="none" /><path d="M 120.41448212921028 104.9243191809786 l 6.4824882498859475 1.563686064987466 a27.668415705379005,27.668415705379005 0 0,0 -0.11566542144348188,0.4620258626598228 l -6.4546115141474045 -1.6750397670446848" fill="#ff4406" stroke="none" /><path d="M 120.32669344350535 105.2749913415812 l 8.471721705137657 2.198501136797791 a29.752341166670874,29.752341166670874 0 0,0 -0.1329106837229108,0.4946100981209138 l -8.43262294507297 -2.3440021680942533" fill="#ff6109" stroke="none" /><path d="M 120.23288151984713 105.62410040840565 l 3.235744228219487 0.8994344388155626 a24.358425675846227,24.358425675846227 0 0,0 -0.11576905887200685,0.4030072814071439 l -3.2197825324613807 -0.9549991957272885" fill="#ff1402" stroke="none" /><path d="M 120.13307415673323 105.97154293290107 l 2.1326946092081833 0.6325649685939366 a23.22452798041245,23.22452798041245 0 0,0 -0.11697777530999298,0.38229013800183953 l -2.1214900613920578 -0.6691820791478333" fill="#ff0300" stroke="none" /><path d="M 119.9155931802556 106.66101706037122 l 6.360326723752151 2.1272901305520815 a27.70664739884393,27.70664739884393 0 0,0 -0.15516932275842527,0.45099468508593754 l -6.322766570050495 -2.2364575187273195" fill="#ff4506" stroke="none" /><path d="M 119.79798401119884 107.00284435728193 l 8.137302752615124 2.878286225123327 a29.631351440038365,29.631351440038365 0 0,0 -0.17422633411774172,0.4793960442589802 l -8.086552157492156 -3.0179300663884385" fill="#ff6008" stroke="none" /><path d="M 119.67450827220406 107.3425965602758 l 6.184505897489089 2.3080796277924756 a27.601162379786455,27.601162379786455 0 0,0 -0.1699518183607089,0.4436905689251203 l -6.143859799534873 -2.41419376355074" fill="#ff4306" stroke="none" /><path d="M 119.54520255179757 107.68017299344265 l 8.062821570379096 3.1682385645104123 a29.66295719009516,29.66295719009516 0 0,0 -0.19082799856079713,0.4736194427376413 l -8.007090957560907 -3.306557375090867" fill="#ff6008" stroke="none" /><path d="M 119.41010516605496 108.01547362559984 l 5.621615636603343 2.3214666527029433 a27.082085973193326,27.082085973193326 0 0,0 -0.18164215412332443,0.42934839612262515 l -5.5808225012877095 -2.417889574491732" fill="#ff3c05" stroke="none" /><path d="M 119.12269723197855 108.67885076344098 l 7.96720726389893 3.615923109902605 a29.749359492137216,29.749359492137216 0 0,0 -0.2156479832123899,0.46448657089427775 l -7.903784663846709 -3.752529748075713" fill="#ff6109" stroke="none" /><path d="M 118.97047184881838 109.00673069616215 l 5.4254534332502296 2.575876781941874 a27.005887623999797,27.005887623999797 0 0,0 -0.20299006731796948,0.4182196623469248 l -5.380310109317546 -2.6688854002540743" fill="#ff3b05" stroke="none" /><path d="M 118.81262510543309 109.33194174019688 l 7.784301188810064 3.8613773875258697 a29.689394704293612,29.689394704293612 0 0,0 -0.23104192265791246,0.45586763235694316 l -7.716680596365882 -3.994799231585507" fill="#ff6008" stroke="none" /><line stroke="#e1ed5e" stroke-width="0.3" x1="174.80103733775053" x2="179.2010983576182" y1="140.37084112569926" y2="142.7455964860345" /><path d="M 175.68104954172406 140.8457921977663 a86.0,86.0 0 0,1 -30.038265399797805,32.042727171017184" fill="none" id="id53" stroke="none" /><text fill="#e1ed5e" style="font-size:6.75px; font-family:Arial;" text-anchor="middle"><textPath startOffset="22.206326154141568" xlink:href="#id53">May</textPath></text><path d="M 118.48025628344425 109.97397251340804 l 2.0520142209372554 1.1074918617381933 a23.33180200419012,23.33180200419012 0 0,0 -0.19379127045415742,0.35178744635389386 l -2.032646541031588 -1.142649826489892" fill="#ff0500" stroke="none" /><path d="M 118.12598468904814 110.60418214915192 l 3.134426877565101 1.8337229184012573 a24.631414544261304,24.631414544261304 0 0,0 -0.21724804915247756,0.3641202264639924 l -3.1023979527143966 -1.887405238751354" fill="#ff1802" stroke="none" /><path d="M 117.75023020441432 111.22182372390056 l 2.249637929584885 1.422237345526029 a23.661508948178813,23.661508948178813 0 0,0 -0.22060992272446747,0.34239149917222866 l -2.224823143483367 -1.4607504446197106" fill="#ff0a01" stroke="none" /><path d="M 117.55443506779139 111.5257021239791 l 5.5842684263377915 3.6664588870992767 a27.68034240351364,27.68034240351364 0 0,0 -0.264936326870199,0.3960438616380743 l -5.520328994056872 -3.762039662943158" fill="#ff4406" stroke="none" /><path d="M 117.35343817320211 111.8261652097733 l 2.1308521385595403 1.4521508174165993 a23.57861839614307,23.57861839614307 0 0,0 -0.2314511907881476,0.3334227027758365 l -2.1055400406092564 -1.4886147823794555" fill="#ff0901" stroke="none" /><path d="M 117.14729908036423 112.12312394758627 l 5.390208473567306 3.810872203378993 a27.601294898654615,27.601294898654615 0 0,0 -0.27761672567600204,0.38558535091897095 l -5.3238119555157 -3.903091159749095" fill="#ff4306" stroke="none" /><path d="M 116.71984013943494 112.70617746262583 l 2.3126572936887855 1.7574949125583437 a23.90468107125729,23.90468107125729 0 0,0 -0.2517882137875425,0.3254702077131831 l -2.2820622626831746 -1.7970431143847794" fill="#ff0d01" stroke="none" /><path d="M 116.27256486870786 113.27417163493432 l 5.186451334693832 4.23079248713586 a27.693196733725422,27.693196733725422 0 0,0 -0.3044985667405838,0.3667881393342584 l -5.112856768059705 -4.319441883583889" fill="#ff4406" stroke="none" /><path d="M 116.0416608686014 113.55231037782055 l 6.104451847434624 5.157160895030622 a28.99128530681273,28.99128530681273 0 0,0 -0.32533397808195447,0.37843691558758463 l -6.014775359781891 -5.261474909779735" fill="#ff5708" stroke="none" /><path d="M 115.80600337817218 113.82643327865902 l 5.077344946387697 4.4414498374024936 a27.745806724385996,27.745806724385996 0 0,0 -0.3175456716939905,0.35676592842675137 l -5.000140425045369 -4.528189935570111" fill="#ff4506" stroke="none" /><path d="M 115.56566222782051 114.09645910891815 l 8.756495366840001 7.929992124297475 a32.81359328066234,32.81359328066234 0 0,0 -0.3827527400316991,0.41540250472016355 l -8.618696218812579 -8.079545883818973" fill="#ff8b0c" stroke="none" /><path d="M 115.07121518719521 114.62390073753431 l 2.5656673404407515 2.4895182004976606 a24.57496150642401,24.57496150642401 0 0,0 -0.2971924696883674,0.3010544027422296 l -2.5224342456968487 -2.533313097220555" fill="#ff1702" stroke="none" /><path d="M 114.55890576462653 115.13401014063108 l 5.685642793180185 5.910236461387125 a29.20106267511422,29.20106267511422 0 0,0 -0.3652415601171718,0.34535869231951705 l -5.583065398672206 -6.0072297904525636" fill="#ff5a08" stroke="none" /><path d="M 114.29624159901734 115.38237550388516 l 4.283874550883072 4.609335012759591 a27.29265845470379,27.29265845470379 0 0,0 -0.3468772779908308,0.3168641690637446 l -4.203897723425376 -4.682391948409919" fill="#ff3f05" stroke="none" /><path d="M 114.0293411484842 115.62618273729858 l 3.963624407191271 4.4147703468939765 a26.933002246510338,26.933002246510338 0 0,0 -0.3476379151476514,0.30675004095048714 l -3.887044139137032 -4.482343529616752" fill="#ff3905" stroke="none" /><path d="M 113.75828350139079 115.86535959552629 l 6.1887879173580105 7.136598526946151 a30.44627621980463,30.44627621980463 0 0,0 -0.3988962713209298,0.3399480562894897 l -6.065026169460033 -7.2420709734585875" fill="#ff6b09" stroke="none" /><path d="M 113.48314897796784 116.09983520530334 l 3.9258350923714893 4.687725258666096 a27.114486836459097,27.114486836459097 0 0,0 -0.3604030107255949,0.2965871417151161 l -3.844561953101203 -4.75460751923839" fill="#ff3c05" stroke="none" /><path d="M 113.20401910651253 116.32954008644616 l 2.9224686759586818 3.6142457088624367 a25.647966781937047,25.647966781937047 0 0,0 -0.3456888011743597,0.27463609066574896 l -2.8598223820669713 -3.6640157135333116" fill="#ff2703" stroke="none" /><path d="M 112.63410532772338 116.77436683061366 l 6.028761495518251 8.004417743628645 a31.02081177272383,31.02081177272383 0 0,0 -0.4292911490938231,0.3175793291977082 l -5.890085376005864 -8.107007021566123" fill="#ff730a" stroke="none" /><path d="M 112.34349029814194 116.9893568818739 l 3.915974400186712 5.389876365444937 a27.66225357800944,27.66225357800944 0 0,0 -0.3876307275296472,0.2765642318582552 l -3.8226163448081802 -5.4564848591474115" fill="#ff4406" stroke="none" /><path d="M 112.04921762599082 117.19931262002967 l 5.385110965837651 7.686823316661228 a30.385450059317968,30.385450059317968 0 0,0 -0.430957005133479,0.2964161578065825 l -5.251997076081289 -7.778380263832904" fill="#ff6a09" stroke="none" /><path d="M 111.7513745106137 117.40417183066458 l 5.5610056935039065 8.23603218105518 a30.937656182951763,30.937656182951763 0 0,0 -0.44391897950511194,0.2942052934538988 l -5.418412015258831 -8.330535495600397" fill="#ff720a" stroke="none" /><path d="M 111.45004920935366 117.60387380957326 l 3.6365040680614436 5.5909417987354715 a27.669542115758386,27.669542115758386 0 0,0 -0.40149585770002183,0.2562536525031879 l -3.539726408314491 -5.652709880062468" fill="#ff4406" stroke="none" /><path d="M 111.1453310114006 117.79835938074945 l 2.5261052953055216 4.034023739041182 a25.759680187798168,25.759680187798168 0 0,0 -0.377834157187307,0.23209659915923542 l -2.4562919381859056 -4.076908805028796" fill="#ff2903" stroke="none" /><line stroke="#e1ed5e" stroke-width="0.3" x1="143.8653032363475" x2="146.44561519142675" y1="172.8068346515853" y2="177.08958963109032" /><path d="M 144.38136562736335 173.6633856474863 a86.0,86.0 0 0,1 -40.68145358897372,12.25698825130547" fill="none" id="id54" stroke="none" /><text fill="#e1ed5e" style="font-size:6.75px; font-family:Arial;" text-anchor="middle"><textPath startOffset="21.466115282336833" xlink:href="#id54">June</textPath></text><path d="M 110.5260780823613 118.17145234162733 l 2.3281279106679085 4.019109970769285 a25.644720069667063,25.644720069667063 0 0,0 -0.3838785417076436,0.21797625459612027 l -2.258600602039066 -4.058589391160034" fill="#ff2703" stroke="none" /><path d="M 110.21172684928248 118.3499491758327 l 1.5592943713274172 2.8019719765644284 a24.206625312365905,24.206625312365905 0 0,0 -0.36583955598989926,0.19948489522159454 l -1.5108320034688691 -2.828397523545793" fill="#ff1202" stroke="none" /><path d="M 109.89434966115114 118.52300852407294 l 4.625746453517702 8.659764807497202 a30.81779286669864,30.81779286669864 0 0,0 -0.4700580675836973,0.24591216464352633 l -4.475997483407509 -8.738106391085447" fill="#ff700a" stroke="none" /><path d="M 109.57404056367764 118.69057910512821 l 4.575563445298495 8.932480487844737 a31.036183961430698,31.036183961430698 0 0,0 -0.47758197940834823,0.23946951891460502 l -4.421127558207386 -9.009917847668644" fill="#ff730a" stroke="none" /><path d="M 109.2508944713604 118.85261126421891 l 2.9373872489251873 5.9861692410286915 a27.668018148774514,27.668018148774514 0 0,0 -0.4293646007726317,0.2061211008146825 l -2.833909980152323 -6.035844618342934" fill="#ff4406" stroke="none" /><path d="M 108.59647513512805 119.15986991738527 l 2.188746500962838 4.8782899480759685 a26.346805033192823,26.346805033192823 0 0,0 -0.41537535406253223,0.18208834846458827 l -2.1044504722425517 -4.9152428498350105" fill="#ff3104" stroke="none" /><path d="M 108.2653958097858 119.30500536409082 l 2.650050674606841 6.189569582115797 a27.733018653608298,27.733018653608298 0 0,0 -0.44046443977465055,0.18411417154852772 l -2.5431147753347294 -6.234268796684297" fill="#ff4506" stroke="none" /><path d="M 107.93186726928326 119.44442032107085 l 3.8063883199986726 9.331095930700926 a31.07759610773153,31.07759610773153 0 0,0 -0.4970623590414453,0.19779137086057094 l -3.645204884915361 -9.395234145967565" fill="#ff740a" stroke="none" /><path d="M 107.59598834532513 119.57807347666477 l 2.207739298842573 5.690277584043633 a27.103554029835678,27.103554029835678 0 0,0 -0.4364056543200144,0.1650112767163794 l -2.109463423762284 -5.727437110866644" fill="#ff3c05" stroke="none" /><path d="M 107.2578585660854 119.70592522655815 l 3.174408569650524 8.618886320599396 a30.184882752353786,30.184882752353786 0 0,0 -0.48911072215766127,0.17537770323977056 l -3.0255782868631282 -8.672251564879126" fill="#ff6709" stroke="none" /><path d="M 106.91757812671514 119.82793768551818 l 3.3187507551155133 9.512575349466175 a31.074879470934196,31.074879470934196 0 0,0 -0.5065653232489707,0.1718544611550063 l -3.1545156989293153 -9.568292797519304" fill="#ff740a" stroke="none" /><path d="M 106.2309692047433 120.05430185196036 l 1.6794968266577683 5.405440985900679 a26.66034467526567,26.66034467526567 0 0,0 -0.43941964200753264,0.13239353352258165 l -1.5862022102099897 -5.433549888528986" fill="#ff3605" stroke="none" /><path d="M 105.53697534728816 120.25689768951611 l 0.7671569700195542 2.8066262316115274 a23.909584269379305,23.909584269379305 0 0,0 -0.3979346766929499,0.10509816488660274 l -0.7187318505151069 -2.819415745801714" fill="#ff0e01" stroke="none" /><path d="M 104.48393922423573 120.51570834832081 l 0.7174336713437218 3.28252887126533 a24.36001590226418,24.36001590226418 0 0,0 -0.41041817266367625,0.08600711850282089 l -0.6608240372506676 -3.2943919704946922" fill="#ff1402" stroke="none" /><path d="M 103.7750983002368 120.6578951692458 l 0.8081056398808155 4.422073351914306 a25.495305045813666,25.495305045813666 0 0,0 -0.43238948165239866,0.07517645378463551 l -0.731867186756367 -4.435328384219948" fill="#ff2503" stroke="none" /><path d="M 103.41894727170886 120.7198165907248 l 1.0036474754059144 6.082396117726775 a27.16464522805866,27.16464522805866 0 0,0 -0.4620112882505042,0.07215666148268944 l -0.898800323546893 -6.09877108655657" fill="#ff3d05" stroke="none" /><path d="M 103.06178313531738 120.77559828337769 l 1.4619344027424421 9.919893253601817 a31.027040159527473,31.027040159527473 0 0,0 -0.529042665772609,0.0733204928283343 l -1.2909631457830024 -9.943588311922754" fill="#ff730a" stroke="none" /><path d="M 102.70371172650421 120.8252237178851 l 0.8568828661951994 6.600103558973061 a27.655495115733146,27.655495115733146 0 0,0 -0.4726094666177676,0.05722642467108685 l -0.7431459765260514 -6.613875512369499" fill="#ff4406" stroke="none" /><path d="M 102.34483914955558 120.86867818915974 l 0.4702832765653033 4.185442894129852 a25.21178092737966,25.21178092737966 0 0,0 -0.4316826001431569,0.044745666548500235 l -0.3981680798165437 -4.1929179291341105" fill="#ff2103" stroke="none" /><path d="M 101.98527174616119 120.90594882070398 l 0.31986242158030326 3.368318432050722 a24.383471741928968,24.383471741928968 0 0,0 -0.41818313814496505,0.036082600782024965 l -0.2618349656937965 -3.37332528511141" fill="#ff1502" stroke="none" /><path d="M 101.62511606390274 120.93702456842531 l 0.35945904355381914 4.631055586365448 a25.644985107403386,25.644985107403386 0 0,0 -0.4404065061428287,0.03037301116553975 l -0.27968977663206 -4.636556942047273" fill="#ff2703" stroke="none" /><path d="M 101.26447882468166 120.96189622390904 l 0.836316438495297 13.864034772192452 a34.889236312694045,34.889236312694045 0 0,0 -0.5997824091821069,0.031001899595908263 l -0.5975459608997106 -13.876376478550563" fill="#ffa70f" stroke="none" /><path d="M 100.90346689309514 120.98055641714683 l 0.11650234890926049 2.7054495551542708 a23.707956811469824,23.707956811469824 0 0,0 -0.40786677616001665,0.014047756452884853 l -0.06991522107459154 -2.7070541100332495" fill="#ff0b01" stroke="none" /><line stroke="#e1ed5e" stroke-width="0.3" x1="102.19456741930631" x2="102.32365962044197" y1="184.97166512339345" y2="189.96999836594603" /><path d="M 102.22038585953345 185.97133177190398 a86.0,86.0 0 0,1 -42.740103519485714,-10.115201625700543" fill="none" id="id55" stroke="none" /><text fill="#e1ed5e" style="font-size:6.75px; font-family:Arial;" text-anchor="middle"><textPath startOffset="22.20632615414155" xlink:href="#id55">July</textPath></text><path d="M 100.54218724476979 120.99299961872073 l 0.1739386825706567 6.7347484325953815 a27.73699421965318,27.73699421965318 0 0,0 -0.4773937043903201,0.008218765559029005 l -0.05798528828766866 -6.73674467543357" fill="#ff4506" stroke="none" /><path d="M 100.18074693466247 120.99922214144158 l 0.07336328603223947 8.523364135021534 a29.523679859656205,29.523679859656205 0 0,0 -0.5082204413893839,0.0 l 0.0733632860322336 -8.523364135021534" fill="#ff5e08" stroke="none" /><path d="M 99.81925306533755 120.99922214144158 l -0.0557160855053298 6.473108152915472 a27.473347931443573,27.473347931443573 0 0,0 -0.47285597123940926,-0.008140644367664743 l 0.167131746637407 -6.471190031268647" fill="#ff4106" stroke="none" /><path d="M 99.45781275523022 120.99299961872073 l -0.2544620488380169 9.852540327656795 a30.85582578186132,30.85582578186132 0 0,0 -0.5308372327266353,-0.0182831076158587 l 0.42401963323929515 -9.846700421614843" fill="#ff710a" stroke="none" /><path d="M 99.09653310690486 120.98055641714683 l -0.3288057802965223 7.635618168765306 a28.64269442411086,28.64269442411086 0 0,0 -0.4923978304709739,-0.025451343466910047 l 0.46019167918098514 -7.628827018536193" fill="#ff5207" stroke="none" /><path d="M 98.73552117531835 120.96189622390904 l -1.652808069206533 27.39942381674083 a48.44922949743797,48.44922949743797 0 0,0 -0.832028398492574,-0.05738154973865294 l 2.1241992284780373 -27.36691392248589" fill="#afff20" stroke="none" /><path d="M 98.37488393609728 120.93702456842531 l -0.5153427344526301 6.639367939347433 a27.65933816290986,27.65933816290986 0 0,0 -0.47436513366096256,-0.040930219756653535 l 0.6295521858551344 -6.629513467312115" fill="#ff4406" stroke="none" /><path d="M 98.01472825383883 120.90594882070398 l -0.5797976187508668 6.105571878212578 a27.13303947800187,27.13303947800187 0 0,0 -0.4645788833953838,-0.04815550081237646 l 0.6848090987518438 -6.09468700894444" fill="#ff3c05" stroke="none" /><path d="M 97.65516085044442 120.86867818915974 l -0.8998306179340566 8.0083427445237 a29.058737410707522,29.058737410707522 0 0,0 -0.4965897132120765,-0.06013009857577277 l 1.0375477541975224 -7.991667117222579" fill="#ff5808" stroke="none" /><path d="M 96.93821686468263 120.77559828337769 l -0.3691014850035036 2.504522312432198 a23.531574197945325,23.531574197945325 0 0,0 -0.40022068458767823,-0.06250623997850296 l 0.41215803319969896 -2.4977977651065895" fill="#ff0801" stroke="none" /><path d="M 96.58105272829116 120.7198165907248 l -2.8833155073079597 17.473732039966105 a38.71002031955979,38.71002031955979 0 0,0 -0.6565054071975746,-0.1141418801746608 l 3.1836698859775843 -17.42151158127044" fill="#ffd914" stroke="none" /><path d="M 96.22490169976321 120.6578951692458 l -0.370891949392853 2.0295754971980955 a23.063186258424413,23.063186258424413 0 0,0 -0.3899132396621773,-0.07472780038258608 l 0.40577280362672535 -2.0228904984670413" fill="#ff0100" stroke="none" /><path d="M 95.86986931433489 120.58985236759428 l -0.8353801007287318 4.164602588612942 a25.24756102178358,25.24756102178358 0 0,0 -0.425371555599506,-0.0891407452860452 l 0.9069431177576246 -4.149605862600355" fill="#ff2103" stroke="none" /><path d="M 95.51606077576429 120.51570834832081 l -1.0324197344239123 4.723708575265554 a25.835215942650883,25.835215942650883 0 0,0 -0.433637764565177,-0.09869454341167984 l 1.113577648381952 -4.705237298276187" fill="#ff2a04" stroke="none" /><path d="M 95.16358092515715 120.4354850818985 l -1.2724944904112996 5.376714005380746 a26.52524168917384,26.52524168917384 0 0,0 -0.44340947458937763,-0.10897926075515017 l 1.3648572497438878 -5.354013486311566" fill="#ff3404" stroke="none" /><path d="M 94.81253420990036 120.34920634021253 l -1.498269148850024 5.877356940128971 a27.065322336370752,27.065322336370752 0 0,0 -0.45045661071186904,-0.1189696850254294 l 1.5992162023733822 -5.85069590579996" fill="#ff3b05" stroke="none" /><path d="M 94.46302465271185 120.25689768951611 l -2.0171588192839707 7.379729412332173 a28.650446777898377,28.650446777898377 0 0,0 -0.4745998787575446,-0.1341266663869363 l 2.143889866146129 -7.343913952606716" fill="#ff5207" stroke="none" /><path d="M 94.11515582081647 120.15858648285463 l -3.8751818497366712 13.274470160320098 a34.828542671075546,34.828542671075546 0 0,0 -0.5740490582016672,-0.17295627223993332 l 4.103105882378585 -13.205798518974438" fill="#ffa60f" stroke="none" /><path d="M 93.76903079525671 120.05430185196036 l -5.859394760787262 18.858393829514025 a40.747696695862885,40.747696695862885 0 0,0 -0.6680267718616194,-0.21388107675993553 l 6.183142877739821 -18.754739906094386" fill="#fff316" stroke="none" /><path d="M 93.42475214034765 119.94407469862007 l -2.091786720174318 6.344817943173908 a27.68073996011813,27.68073996011813 0 0,0 -0.4512359572877355,-0.1530837361627566 l 2.2006924103992795 -6.307871220113029" fill="#ff4406" stroke="none" /><path d="M 93.08242187328487 119.8279376855182 l -2.200386840524686 6.306995361492999 a27.679812328040992,27.679812328040992 0 0,0 -0.44851898574630944,-0.16082295074746533 l 2.308625386900722 -6.268184869705576" fill="#ff4406" stroke="none" /><path d="M 92.7421414339146 119.70592522655815 l -1.7205514288237826 4.671496075065608 a25.97827006083247,25.97827006083247 0 0,0 -0.418286986699954,-0.15816034697523293 l 1.8007086362840197 -4.641187477983742" fill="#ff2c04" stroke="none" /><path d="M 92.40401165467489 119.57807347666478 l -2.4092054561449983 6.209541049364215 a27.660530832723325,27.660530832723325 0 0,0 -0.4424090158193389,-0.17604367767603635 l 2.5157355480061954 -6.167150527282112" fill="#ff4406" stroke="none" /><path d="M 92.06813273071674 119.44442032107085 l -2.331288650920925 5.714991801967566 a27.172198803543935,27.172198803543935 0 0,0 -0.43155732424718146,-0.1803909965356578 l 2.4293174346655686 -5.674015762411934" fill="#ff3d05" stroke="none" /><path d="M 91.7346041902142 119.30500536409082 l -1.308778077321921 3.056837008723838 a24.325229699371484,24.325229699371484 0 0,0 -0.3835038398887303,-0.1681168132682542 l 1.3612025918683945 -3.033855642161132" fill="#ff1402" stroke="none" /><path d="M 91.40352486487194 119.15986991738527 l -13.572479572585618 30.250415313187045 a54.155690738824234,54.155690738824234 0 0,0 -0.8472322675726537,-0.38892277992399615 l 14.09117983592569 -30.012305462928975" fill="#70ff27" stroke="none" /><path d="M 91.07499286063937 119.00905698771935 l -2.7490630504539206 5.8551321442030515 a27.468378473887473,27.468378473887473 0 0,0 -0.4262665035816558,-0.20463382589196058 l 2.8494422220358184 -5.806944041811528" fill="#ff4106" stroke="none" /><path d="M 90.42595943632237 118.69057910512821 l -4.54601990442186 8.87480516423109 a30.97138223489916,30.97138223489916 0 0,0 -0.47240073767464175,-0.2471377389136823 l 4.698111544622997 -8.79523800637269" fill="#ff720a" stroke="none" /><path d="M 90.10565033884886 118.52300852407294 l -3.140170428782303 5.878648482351009 a27.66477143650453,27.66477143650453 0 0,0 -0.4181032080387885,-0.22798320542935813 l 3.240896448689732 -5.823724625161885" fill="#ff4406" stroke="none" /><line stroke="#e1ed5e" stroke-width="0.3" x1="58.666819895761336" x2="56.23545636021788" y1="174.27360380694188" y2="178.64263932499728" /><path d="M 58.180547188652646 175.14741091055294 a86.0,86.0 0 0,1 -31.652253787137756,-30.449443065178592" fill="none" id="id56" stroke="none" /><text fill="#e1ed5e" style="font-size:6.75px; font-family:Arial;" text-anchor="middle"><textPath startOffset="22.20632615414155" xlink:href="#id56">August</textPath></text><path d="M 89.7882731507175 118.34994917583269 l -2.360287409269346 4.241315366116896 a25.853834843627737,25.853834843627737 0 0,0 -0.3870088029957065,-0.2197536986502837 l 2.4329449791862596 -4.200058501671979" fill="#ff2a04" stroke="none" /><path d="M 89.4739219176387 118.17145234162733 l -16.689261929642335 28.8111227561215 a54.29582944190625,54.29582944190625 0 0,0 -0.8046955519754445,-0.47542831601299 l 17.18272535264616 -28.51957586781476" fill="#6fff28" stroke="none" /><path d="M 88.24862548938628 117.40417183066458 l -3.7335760416811192 5.52954881265861 a27.671993714819394,27.671993714819394 0 0,0 -0.39247203889131466,-0.26994584710056113 l 3.828204965195324 -5.4644621761929475" fill="#ff4406" stroke="none" /><path d="M 87.95078237400918 117.19931262002967 l -3.861584616215151 5.512109008614591 a27.7301694979428,27.7301694979428 0 0,0 -0.38858243225537703,-0.2772432479107379 l 3.955894376319415 -5.444821498859634" fill="#ff4506" stroke="none" /><path d="M 87.65650970185807 116.9893568818739 l -3.9139491916414415 5.387088905018046 a27.65880808743721,27.65880808743721 0 0,0 -0.3827650157389437,-0.2831604080245277 l 4.00609917779895 -5.318918548253752" fill="#ff4406" stroke="none" /><path d="M 86.79598089348748 116.32954008644616 l -3.801400671977104 4.7012295390481995 a27.04584206275084,27.04584206275084 0 0,0 -0.35949059135125194,-0.2958362826872211 l 3.8817613918730443 -4.635098137503798" fill="#ff3b05" stroke="none" /><path d="M 86.51685102203217 116.09983520530335 l -2.1530172862217416 2.5708551881300847 a24.353323699421964,24.353323699421964 0 0,0 -0.3190685766573874,-0.271917163072372 l 2.1969513394561853 -2.533413634834761" fill="#ff1402" stroke="none" /><path d="M 86.24171649860922 115.8653595955263 l -4.351664467264428 5.018120291331794 a27.642176969482797,27.642176969482797 0 0,0 -0.35679159285179607,-0.3148270972445376 l 4.4373984130228115 -4.942470052314967" fill="#ff4406" stroke="none" /><path d="M 85.97065885151581 115.62618273729859 l -2.249884274913565 2.5059696279017682 a24.367768256051693,24.367768256051693 0 0,0 -0.30970325362035594,-0.28290657918892476 l 2.2926870780007755 -2.4668702821262674" fill="#ff1402" stroke="none" /><path d="M 85.70375840098266 115.38237550388516 l -2.28822141957667 2.462065352503617 a24.361208572077643,24.361208572077643 0 0,0 -0.3047055487055263,-0.28811811506248614 l 2.3302628026730132 -2.4223126006952" fill="#ff1402" stroke="none" /><path d="M 85.44109423537348 115.13401014063109 l -15.91775105649433 16.546532397395886 a43.96002031955978,43.96002031955978 0 0,0 -0.5408130163390154,-0.5292993625391637 l 16.20021402520914 -16.270082931934155" fill="#e4ff1a" stroke="none" /><path d="M 85.18274418774928 114.88116024355367 l -44.45176743675218 44.64348073066098 a84.0,84.0 0 0,0 -1.015837499777867,-1.0290380240773414 l 45.21364556158558 -43.871702212602976" fill="#4dd2ff" stroke="none" /><path d="M 84.9287848128048 114.62390073753433 l -4.810923468739865 4.668135010274465 a27.703466946008028,27.703466946008028 0 0,0 -0.3291349289104097,-0.345096657098459 l 4.8905649490292324 -4.5846312365935065" fill="#ff4406" stroke="none" /><path d="M 84.67929136418377 114.36230785411682 l -4.869150297725289 4.56455619816501 a27.67411401671,27.67411401671 0 0,0 -0.3228035063775647,-0.35033945170604225 l 4.947000212098583 -4.480065491657625" fill="#ff4406" stroke="none" /><path d="M 84.43433777217949 114.09645910891817 l -6.91593841638375 6.263160645494769 a30.330454729030468,30.330454729030468 0 0,0 -0.3471264942982943,-0.3900002962068374 l 7.022723760330384 -6.143186179547067" fill="#ff6909" stroke="none" /><path d="M 84.19399662182784 113.82643327865904 l -2.4733660345951516 2.163597566875 a24.2861366332635,24.2861366332635 0 0,0 -0.2725338100579073,-0.31701839162236267 l 2.5102423542238377 -2.1207020760911073" fill="#ff1302" stroke="none" /><path d="M 83.95833913139862 113.55231037782056 l -2.0367406459112254 1.720678526906062 a23.66627962743267,23.66627962743267 0 0,0 -0.2602208873148719,-0.31345282211277753 l 2.0660575331196336 -1.6853644476795233" fill="#ff0a01" stroke="none" /><path d="M 83.72743513129214 113.27417163493432 l -23.94003091799927 19.52882547497202 a51.894985107403386,51.894985107403386 0 0,0 -0.5586917422363645,-0.6970538512223441 l 24.272640572290495 -19.113843790171416" fill="#89ff24" stroke="none" /><path d="M 83.50135304334701 112.99209946851258 l -25.26177020989356 19.89274830717551 a53.15398061438272,53.15398061438272 0 0,0 -0.5598713404583049,-0.7237091789585518 l 25.600448367569932 -19.4549611341037" fill="#7bff26" stroke="none" /><path d="M 83.28015986056508 112.70617746262583 l -5.328744770188055 4.0495588557306075 a27.692865436555014,27.692865436555014 0 0,0 -0.28515572112305315,-0.38201268792627774 l 5.397661758006193 -3.9572332882950216" fill="#ff4406" stroke="none" /><path d="M 83.06392112726016 112.41649034213515 l -7.055541730703372 5.172688815167143 a29.748564378928236,29.748564378928236 0 0,0 -0.29921418784023,-0.41558233689766083 l 7.14353571091921 -5.050472872818344" fill="#ff6109" stroke="none" /><path d="M 82.6465618267979 111.8261652097733 l -6.572696291205016 4.479215671133592 a28.95384872655678,28.95384872655678 0 0,0 -0.27712541335454244,-0.4142648920951959 l 6.648824809970289 -4.3654138648325755" fill="#ff5608" stroke="none" /><path d="M 82.44556493220864 111.52570212397912 l -5.545829189592683 3.64122086657135 a27.634358356261203,27.634358356261203 0 0,0 -0.25765109380246864,-0.39988021926181 l 5.607685146772197 -3.5452190473880916" fill="#ff4406" stroke="none" /><path d="M 82.24976979558568 111.22182372390057 l -35.637058370147535 22.530005665430533 a63.16160675972436,63.16160675972436 0 0,0 -0.5730723572911882,-0.9239751101643738 l 36.01959536710668 -21.913234223900897" fill="#33ff50" stroke="none" /><line stroke="#e1ed5e" stroke-width="0.3" x1="26.63291911575756" x2="22.317208475507996" y1="142.92168965132927" y2="145.44649492493687" /><path d="M 25.769776987707644 143.4266507060508 a86.0,86.0 0 0,1 -11.730757126820373,-40.83630448921669" fill="none" id="id57" stroke="none" /><text fill="#e1ed5e" style="font-size:6.75px; font-family:Arial;" text-anchor="middle"><textPath startOffset="21.46611528233685" xlink:href="#id57">September</textPath></text><path d="M 81.87401531095188 110.60418214915194 l -7.915219965480639 4.630613768270184 a30.17023941742181,30.17023941742181 0 0,0 -0.25838368261086564,-0.4505137298574721 l 7.993755644243882 -4.493680192554405" fill="#ff6709" stroke="none" /><path d="M 81.69416730710424 110.29060199501025 l -5.829245837323026 3.2769035885617726 a27.68716712522402,27.68716712522402 0 0,0 -0.22996643343321455,-0.4174558749472634 l 5.884788680207758 -3.1760771952166866" fill="#ff4406" stroke="none" /><path d="M 81.51974371655577 109.97397251340807 l -7.708231187514813 4.16020669908907 a29.759232147815332,29.759232147815332 0 0,0 -0.2394165537393684,-0.45288589319085865 l 7.778700249479067 -4.026905790812084" fill="#ff6109" stroke="none" /><path d="M 81.35079622478065 109.6543875284942 l -38.66742960862791 20.017495367202272 a64.5415919933362,64.5415919933362 0 0,0 -0.5022606103649067,-0.991007833726427 l 39.00626888877908 -19.34893332177316" fill="#34ff60" stroke="none" /><path d="M 81.18737489456691 109.33194174019688 l -7.829175688960587 3.883637237954943 a29.739486836459093,29.739486836459093 0 0,0 -0.2235371974802144,-0.460552836340073 l 7.89486614305552 -3.7482954456495854" fill="#ff6109" stroke="none" /><path d="M 81.02952815118164 109.00673069616217 l -28.0663455064716 13.325236062484992 a52.068982381300955,52.068982381300955 0 0,0 -0.37743908541685006,-0.8129702114305187 l 28.291559208728277 -12.840145783775645" fill="#87ff25" stroke="none" /><path d="M 80.87730276802145 108.67885076344099 l -3.0460704046130327 1.3824613827154955 a24.34510752959588,24.34510752959588 0 0,0 -0.16990440722085345,-0.3830895848294835 l 3.069415896565166 -1.3298234613933162" fill="#ff1402" stroke="none" /><path d="M 80.73074385275274 108.34839909993369 l -6.146857204605953 2.663123929757098 a27.698961304490496,27.698961304490496 0 0,0 -0.1857795962728454,-0.4391280871834386 l 6.191787782071105 -2.5569213169075007" fill="#ff4406" stroke="none" /><path d="M 80.58989483394504 108.01547362559985 l -8.408416206674788 3.4722860984563333 a30.097155261630107,30.097155261630107 0 0,0 -0.1936212854350349,-0.4805521516837053 l 8.466940106367211 -3.3270345789298226" fill="#ff6609" stroke="none" /><path d="M 80.45479744820244 107.68017299344265 l -6.168280818953658 2.423789860256081 a27.627401115682662,27.627401115682662 0 0,0 -0.1701133811534494,-0.44411235839532326 l 6.2090884797006165 -2.3172539350275994" fill="#ff4306" stroke="none" /><path d="M 80.32549172779594 107.34259656027581 l -7.798948361062841 2.910595305226074 a29.324371481939572,29.324371481939572 0 0,0 -0.17242135425189578,-0.47442951487618873 l 7.847893976319961 -2.7759179933437683" fill="#ff5b08" stroke="none" /><path d="M 80.20201598880116 107.00284435728193 l -6.290221356916505 2.224945787935793 a27.67212623368756,27.67212623368756 0 0,0 -0.1549759891608611,-0.4504327671539607 l 6.327588177020595 -2.1163403176925355" fill="#ff4406" stroke="none" /><path d="M 80.0844068197444 106.66101706037122 l -27.463870433681667 9.18563197424334 a49.95928200015145,49.95928200015145 0 0,0 -0.26575423490863487,-0.817907433712914 l 27.617916919606554 -8.71152564055262" fill="#9eff22" stroke="none" /><path d="M 79.97269907076064 106.31721596034903 l -21.522764063094073 6.788930227322865 a43.568095766968725,43.568095766968725 0 0,0 -0.21944467166829912,-0.7171578839957329 l 21.6364355072685 -6.417445370775084" fill="#e9ff1a" stroke="none" /><path d="M 79.86692584326677 105.97154293290107 l -6.387602351125001 1.894586061775674 a27.66265113461393,27.66265113461393 0 0,0 -0.13147315554692562,-0.4576753021164722 l 6.419268143558031 -1.784353284154606" fill="#ff4406" stroke="none" /><path d="M 79.76711848015287 105.62410040840567 l -6.414927090653501 1.783146608902278 a27.6581454930964,27.6581454930964 0 0,0 -0.12355542064411629,-0.45979568396143133 l 6.444670587639392 -1.6724599917653078" fill="#ff4406" stroke="none" /><path d="M 79.67330655649465 105.27499134158121 l -5.831796434668011 1.5134126848637561 a27.02497034101522,27.02497034101522 0 0,0 -0.11297555368822619,-0.4512811780812005 l 5.856983302651296 -1.4128036673851638" fill="#ff3b05" stroke="none" /><path d="M 79.58551787078972 104.9243191809786 l -5.072831595552683 1.223652981728648 a26.218327990509124,26.218327990509124 0 0,0 -0.10205101391387146,-0.43963309701778264 l 5.09314317539711 -1.1361512273622911" fill="#ff2f04" stroke="none" /><path d="M 79.50377843672027 104.57218783832718 l -6.720108689220063 1.4990860206222398 a27.885282833127192,27.885282833127192 0 0,0 -0.10047460623854376,-0.4693839106277213 l 6.7449173341830475 -1.3831882905783548" fill="#ff4706" stroke="none" /><path d="M 79.4281124754447 104.21870165774334 l -28.40110383738922 5.824248440864677 a49.992146679455786,49.992146679455786 0 0,0 -0.1656169997704787,-0.8444775137591554 l 28.497150770135363 -5.334507200037567" fill="#9eff22" stroke="none" /><path d="M 79.35854240842038 103.8639653848113 l -28.666483978537396 5.366205429334678 a50.16442120806724,50.16442120806724 0 0,0 -0.15157671398320569,-0.8501227089653447 l 28.75460713485979 -4.87196396963612" fill="#9cff22" stroke="none" /><path d="M 79.29508885075956 103.50808413554451 l -6.675709782440089 1.1310819646833643 a27.770852790468737,27.770852790468737 0 0,0 -0.07579888389716767,-0.47199972238335564 l 6.694190420698548 -1.016003012606795" fill="#ff4506" stroke="none" /><path d="M 79.23777060512086 103.15116336523772 l -9.367883628546815 1.4217997084343834 a30.47516533306409,30.47516533306409 0 0,0 -0.0742519406996318,-0.5193179003134718 l 9.390969620263046 -1.2603363361405109" fill="#ff6b09" stroke="none" /><path d="M 79.18660465613746 102.79330883721812 l -6.277720784326161 0.8425157286803306 a27.334004341570537,27.334004341570537 0 0,0 -0.05857090198146548,-0.4668677172167735 l 6.291293195554474 -0.7343302571761486" fill="#ff3f05" stroke="none" /><path d="M 79.1416061653843 102.43462659150553 l -8.860223657667925 1.034180114474868 a29.92037509150112,29.92037509150112 0 0,0 -0.055306671394158465,-0.5120710884986882 l 8.876712630563135 -0.8815127040913976" fill="#ff6409" stroke="none" /><path d="M 79.10278846688536 102.07522291339032 l -7.426799456883937 0.7375273194539536 a28.463330136052704,28.463330136052704 0 0,0 -0.044220363666076554,-0.4879680282316879 l 7.438394416827089 -0.6095779026736995" fill="#ff4f07" stroke="none" /><path d="M 79.07016306316243 101.71520430193888 l -1.993292646154131 0.16335072901066208 a22.999974758310827,22.999974758310827 0 0,0 -0.028939927797523524,-0.394862321917499 l 1.9958091326159897 -0.1290152705964025" fill="#ff0000" stroke="none" /><path d="M 79.04373962182676 101.35467743843564 l -6.5415910719950165 0.4228686643888775 a27.555244591968094,27.555244591968094 0 0,0 -0.0265234307328707,-0.4735936731683933 l 6.547900853615419 -0.3102032748850466" fill="#ff4206" stroke="none" /><path d="M 79.0235259727143 100.99374915477108 l -4.887909735287579 0.23156209006914244 a25.89339172577429,25.89339172577429 0 0,0 -0.017259631305200158,-0.44539439253948504 l 4.89117149944398 -0.1473904505156606" fill="#ff2b04" stroke="none" /><path d="M 79.0095281055655 100.63252640178507 l -6.522069757768848 0.19653590147092445 a27.52503029002701,27.52503029002701 0 0,0 -0.010194664770909578,-0.4737060127381403 l 6.524486485224765 -0.08424007294265533" fill="#ff4206" stroke="none" /><line stroke="#e1ed5e" stroke-width="0.3" x1="15.007084014347285" x2="10.007500721073583" y1="101.09737516637583" y2="101.16192664675087" /><path d="M 14.007167355692545 101.11028546245083 a86.0,86.0 0 0,1 10.666146001902534,-42.60595125391555" fill="none" id="id58" stroke="none" /><text fill="#e1ed5e" style="font-size:6.75px; font-family:Arial;" text-anchor="middle"><textPath startOffset="22.20632615414155" xlink:href="#id58">October</textPath></text><path d="M 79.00175016825051 100.2711162175752 l -28.98827284888701 0.374278378045826 a49.990688971906,49.990688971906 0 0,0 -0.0037033643015812376,-0.8605314400672415 l 28.990420510478092 0.1247625402250909" fill="#9eff22" stroke="none" /><path d="M 79.00486145842228 99.54816195383935 l -2.0898687139034187 -0.04497623078563539 a23.09035262639776,23.09035262639776 0 0,0 0.011972134024910349,-0.39729684335243787 l 2.0887848854228634 0.08094322156306769" fill="#ff0100" stroke="none" /><path d="M 79.01574976396665 99.18683210126434 l -28.507464391477235 -1.1047025581925667 a49.52886071635914,49.52886071635914 0 0,0 0.0403457188172624,-0.8516343574425352 l 28.484225064426475 1.5952480222581111" fill="#a3ff21" stroke="none" /><path d="M 79.03285615573316 98.82574320788736 l -53.01220301216425 -2.9689279529080723 a74.09527475578665,74.09527475578665 0 0,0 0.08227895317478896,-1.27281898808727 l 52.95324346798505 3.881006005248354" fill="#40ffcb" stroke="none" /><path d="M 79.08570108090925 98.10471618934814 l -2.0539745190057883 -0.18613412136945495 a23.062391145215436,23.062391145215436 0 0,0 0.03923118573084825,-0.3950526864475937 l 2.050466207592711 0.22146233852147898" fill="#ff0100" stroke="none" /><path d="M 79.21141760316559 97.0276538004421 l -3.228390706608883 -0.46159447836799994 a24.26122308604892,24.26122308604892 0 0,0 0.06266801763678564,-0.4129039364479691 l 3.2199667955327955 0.5170975272080611" fill="#ff1302" stroke="none" /><path d="M 79.26566170972629 96.67025291283419 l -3.2823786349228348 -0.5271203037975184 a24.324434586162507,24.324434586162507 0 0,0 0.06994796782054562,-0.41283686560430094 l 3.272818805582066 0.5835429577176473" fill="#ff1402" stroke="none" /><path d="M 79.32604984820605 96.31383870115002 l -3.4928418823609784 -0.6227730295965789 a24.54792765731883,24.54792765731883 0 0,0 0.07775179226855469,-0.4153531833099148 l 3.481604366182562 0.6828042903690663" fill="#ff1702" stroke="none" /><path d="M 79.3925641242962 95.95851677861259 l -7.241042659394179 -1.4200967354601841 a28.378981876467172,28.378981876467172 0 0,0 0.09813817357545974,-0.47855658741688717 l 7.215525189903724 1.5445289790404737" fill="#ff4e07" stroke="none" /><path d="M 79.46518482838121 95.60439243477599 l -5.195191095066227 -1.1120636387231384 a26.31288020294318,26.31288020294318 0 0,0 0.0986176841006949,-0.4420837408388121 l 5.175279023963494 1.2013255491119097" fill="#ff3104" stroke="none" /><path d="M 79.54389044137918 95.25157060432595 l -6.588713733886754 -1.5294228789698816 a27.7638955498902,27.7638955498902 0 0,0 0.11206988950549612,-0.46460204394749377 l 6.561411044120444 1.6426101545767722" fill="#ff4506" stroke="none" /><path d="M 79.62865764111835 94.90015583598534 l -6.524131029959379 -1.633277325188099 a27.72546507812303,27.72546507812303 0 0,0 0.11988447284263175,-0.4619637778169237 l 6.495050225246439 1.7453375285538864" fill="#ff4506" stroke="none" /><path d="M 79.71946130924805 94.55025226153421 l -6.726051893323318 -1.8074118569225832 a27.964661635156624,27.964661635156624 0 0,0 0.128921390615167,-0.46379883577328584 l 6.693943732141791 1.9229219961148116" fill="#ff4806" stroke="none" /><path d="M 79.91906864156998 93.8553929516997 l -3.859041845192396 -1.1808364511788711 a25.035663351591488,25.035663351591488 0 0,0 0.12964243331956785,-0.41100194161264186 l 3.8381439281046243 1.2470885592179275" fill="#ff1e03" stroke="none" /><path d="M 80.02781315780177 93.51064311812611 l -6.4036072977840925 -2.0806581379908278 a27.73315117247646,27.73315117247646 0 0,0 0.15142657931774736,-0.45274619822125084 l 6.366843424694572 2.190577439134401" fill="#ff4506" stroke="none" /><path d="M 80.14247586403 93.16781622104843 l -6.2530625230900805 -2.1514299590672077 a27.61282404018477,27.61282404018477 0 0,0 0.15850670800881436,-0.4481198082837764 l 6.215102734271457 2.258747393777595" fill="#ff4306" stroke="none" /><path d="M 80.2630227832202 92.82701384747504 l -2.462513851639207 -0.8949484799116995 a23.62009680187798,23.62009680187798 0 0,0 0.14216532642403606,-0.3809323946630152 l 2.4467439367135437 0.9372040116040561" fill="#ff0901" stroke="none" /><path d="M 80.38941819471856 92.48833698450439 l -5.748422020395476 -2.2018831219192174 a27.15570020445768,27.15570020445768 0 0,0 0.17095993926230404,-0.43507439793057656 l 5.709668531251482 2.3005065247455576" fill="#ff3d05" stroke="none" /><path d="M 80.52162464483688 92.15188598940014 l -2.522252204154449 -1.0162512273614164 a23.71928717469773,23.71928717469773 0 0,0 0.1558451063155519,-0.37739128646605447 l 2.5043854109526973 1.0595170842807822" fill="#ff0b01" stroke="none" /><path d="M 80.95270993114464 91.15688171328213 l -4.797040075270826 -2.2271300882380682 a26.288828028371658,26.288828028371658 0 0,0 0.19408892282392037,-0.40880077031364376 l 4.757992958605154 2.3093732741922444" fill="#ff3004" stroke="none" /><path d="M 81.10775173730289 90.83032412892265 l -8.593834187448076 -4.171164431725082 a30.552622611505164,30.552622611505164 0 0,0 0.2337129952643551,-0.4711511370926555 l 8.520761179230307 4.318475157316699" fill="#ff6c0a" stroke="none" /><path d="M 81.26839172434947 90.50648371742162 l -6.075644922408935 -3.0792462211070206 a27.81140356412651,27.81140356412651 0 0,0 0.22009490109214333,-0.42515329411003505 l 6.0217405881566775 3.1833722374773914" fill="#ff4606" stroke="none" /><path d="M 81.43458229118936 90.18545643968196 l -5.938501516027855 -3.1393681912371023 a27.71724890829694,27.71724890829694 0 0,0 0.22661081664286853,-0.4198754270207865 l 5.883582600166514 3.2411246015903616" fill="#ff4506" stroke="none" /><path d="M 81.6062741919709 89.86733742301443 l -4.553569555442651 -2.508452300946768 a26.198781457455134,26.198781457455134 0 0,0 0.22099590203036826,-0.39312705032661477 l 4.509716012119853 2.5864628612081675" fill="#ff2f04" stroke="none" /><line stroke="#e1ed5e" stroke-width="0.3" x1="26.266209847984243" x2="21.928928074336255" y1="57.711370442889674" y2="55.22380399835377" /><path d="M 25.398753493254645 57.213857153982495 a86.0,86.0 0 0,1 29.58750427330803,-30.492523968695096" fill="none" id="id59" stroke="none" /><text fill="#e1ed5e" style="font-size:6.75px; font-family:Arial;" text-anchor="middle"><textPath startOffset="21.46611528233685" xlink:href="#id59">November</textPath></text><path d="M 83.84228863543731 86.58626213691792 l -5.209237660698109 -4.324582044481304 a27.77038897443017,27.77038897443017 0 0,0 0.30850176224136877,-0.3651687800289127 l 5.134025284969615 4.413609774139333" fill="#ff4506" stroke="none" /><path d="M 84.07557802195018 86.31012108654704 l -5.118449361713199 -4.400219491990349 a27.749848549864957,27.749848549864957 0 0,0 0.3145090352071638,-0.3595381956258368 l 5.041948462928192 4.487673243819129" fill="#ff4506" stroke="none" /><path d="M 84.31358615837235 86.03803664274999 l -5.0069067478820255 -4.456483760589289 a27.70293687053538,27.70293687053538 0 0,0 0.3201092288213167,-0.3534726056622573 l 4.929453878444663 4.542009153521102" fill="#ff4406" stroke="none" /><path d="M 84.5562425177563 85.77008943001954 l -4.5020578209543185 -4.148205528785196 a27.121775374208042,27.121775374208042 0 0,0 0.3193042456514854,-0.34061150641630605 l 4.429986253332377 4.225086452079553" fill="#ff3c05" stroke="none" /><path d="M 85.05521093208273 85.24692304244772 l -1.8432013399418758 -1.819556709221298 a23.590015018805058,23.590015018805058 0 0,0 0.28775796768253625,-0.2865222435201265 l 1.8116075720920264 1.8510148033915341" fill="#ff0901" stroke="none" /><path d="M 85.31137513191541 84.99185889309783 l -4.716417820397482 -4.819012317581491 a27.7429575687205,27.7429575687205 0 0,0 0.3441669199238627,-0.3310883042836591 l 4.6327676568611915 4.899483708627463" fill="#ff4506" stroke="none" /><path d="M 85.57189188830299 84.74124197986013 l -4.582372890474134 -4.846187632674289 a27.669608375192468,27.669608375192468 0 0,0 0.34889019791594217,-0.3242554155354948 l 4.498274808763335 4.924347634284432" fill="#ff4406" stroke="none" /><path d="M 85.83668400450813 84.49514656593479 l -4.467082408515799 -4.890200715988697 a27.6233592902037,27.6233592902037 0 0,0 0.3538276254644544,-0.3176699357003117 l 4.3822437954553735 4.966369660458287" fill="#ff4306" stroke="none" /><path d="M 86.10567301691215 84.25364557470407 l -4.841594447097328 -5.486948899384287 a28.317625640507863,28.317625640507863 0 0,0 0.36827234142961096,-0.31936214547184294 l 4.746428307020943 5.569476038275811" fill="#ff4d07" stroke="none" /><path d="M 86.37877921826538 84.01681056812374 l -4.371489738666913 -5.129521774311828 a27.73957833758235,27.73957833758235 0 0,0 0.3660864316282514,-0.3065868584065018 l 4.282545770079551 5.204009790112143" fill="#ff4506" stroke="none" /><path d="M 87.22198572758235 83.33499621200491 l -4.087492178170101 -5.33088093191782 a27.71758020546735,27.71758020546735 0 0,0 0.3811218044209054,-0.28705304160619344 l 3.9951242199908052 5.400450563029868" fill="#ff4506" stroke="none" /><path d="M 87.51073957382395 83.11751280151077 l -5.98600696998218 -8.091646950445854 a31.06513933412424,31.06513933412424 0 0,0 0.43262597601842845,-0.31432117029721657 l 5.845835677609969 8.19348735555974" fill="#ff740a" stroke="none" /><path d="M 87.80319425747018 82.90503203632743 l -1.9508439353877889 -2.7342908693946195 a24.358889491884796,24.358889491884796 0 0,0 0.34342422156523256,-0.24059061400262055 l 1.903488574238896 2.7674663261611827" fill="#ff1402" stroke="none" /><path d="M 88.09926311788651 82.69761687909137 l -1.92654386756505 -2.800986226823267 a24.399572784410733,24.399572784410733 0 0,0 0.3480951173664483,-0.23503537710895114 l 1.8780440557920621 2.8337335162308834" fill="#ff1502" stroke="none" /><path d="M 89.00827224532344 82.1063720568725 l -1.8600232947308384 -3.0279648062883795 a24.553625968649822,24.553625968649822 0 0,0 0.36203495294273347,-0.2181220083112628 l 1.8076262755704557 3.0595334240582615" fill="#ff1702" stroke="none" /><line stroke="#e1ed5e" stroke-width="0.3" x1="56.762969772571076" x2="54.21961505331055" y1="26.818313649435495" y2="22.513508569990535" /><path d="M 56.25429882871897 25.957352633546506 a86.0,86.0 0 0,1 42.265352541879196,-11.944610805530505" fill="none" id="id60" stroke="none" /><text fill="#e1ed5e" style="font-size:6.75px; font-family:Arial;" text-anchor="middle"><textPath startOffset="22.20632615414155" xlink:href="#id60">December</textPath></text><path d="M 89.3179101791058 81.91981866633112 l -3.4169704550195474 -5.783460584435609 a27.717447686599186,27.717447686599186 0 0,0 0.4128622954328466,-0.2391564899319346 l 3.3169114271213807 5.84142123175759" fill="#ff4506" stroke="none" /><path d="M 89.63071344664047 81.73862282372117 l -3.31426132675152 -5.836754133191071 a27.7120806724386,27.7120806724386 0 0,0 0.4168370821959763,-0.23196938494212913 l 3.2133001554834983 5.892938915693385" fill="#ff4506" stroke="none" /><path d="M 89.94658935756843 81.56283822128135 l -1.6028436017431507 -2.9394886812436987 a24.34808920412954,24.34808920412954 0 0,0 0.3696908976336855,-0.19747607430934994 l 1.5520076575811597 2.966643482054798" fill="#ff1402" stroke="none" /><path d="M 90.26544431104013 81.39251694778311 l -4.606971790690103 -8.806169717075903 a30.93845129616074,30.93845129616074 0 0,0 0.4740058207040732,-0.2428041918505858 l 4.454705482397267 8.884166434238995" fill="#ff720a" stroke="none" /><path d="M 90.58718382345135 81.22770947309562 l -2.9978894088301624 -5.978789970455411 a27.688293535603403,27.688293535603403 0 0,0 0.4278879437977517,-0.20996275572461884 l 2.8945301980219846 6.0295078863148595" fill="#ff4406" stroke="none" /><path d="M 91.23893434514133 80.91482961587045 l -1.4398692096520382 -3.1366217626540998 a24.45132140242825,24.45132140242825 0 0,0 0.38402300122080496,-0.17229992664597404 l 1.385664089964459 3.1609420198166025" fill="#ff1602" stroke="none" /><path d="M 91.56875222667455 80.76684994638697 l -2.688355397395531 -6.132608618042671 a27.695979629956838,27.695979629956838 0 0,0 0.43827732737825836,-0.18764747882301513 l 2.5823943122269646 6.177975624828472" fill="#ff4406" stroke="none" /><path d="M 91.90106846888425 80.62456947434976 l -2.5661165167562037 -6.139033537956548 a27.65377237044703,27.65377237044703 0 0,0 0.44076969900570423,-0.17980102729247244 l 2.460062948162119 6.182295451432598" fill="#ff4406" stroke="none" /><path d="M 92.23578459929587 80.48803036053334 l -1.2364008862153173 -3.107154465582586 a24.34411363808466,24.34411363808466 0 0,0 0.39068457758073843,-0.15157954645224286 l 1.1827331436349025 3.12797671592538" fill="#ff1402" stroke="none" /><path d="M 92.57280143429618 80.3572730644239 l -1.2637926630292577 -3.3423549893627853 a24.573305020571976,24.573305020571976 0 0,0 0.39693806557903183,-0.1461956394508931 l 1.2060722716776564 3.3636138966200004" fill="#ff1702" stroke="none" /><path d="M 94.28887869178378 79.79150937346287 l -0.9361282781439568 -3.3124387511945743 a24.442177600525028,24.442177600525028 0 0,0 0.4058589962510346,-0.11093659508781264 l 0.8789713926691997 3.328061887108683" fill="#ff1502" stroke="none" /><path d="M 94.63758080256005 79.69619591428918 l -0.8539135171630765 -3.233184896640771 a24.34404737865058,24.34404737865058 0 0,0 0.4060715909605971,-0.10351669009698747 l 0.79813303751748 3.247404582906622" fill="#ff1402" stroke="none" /><path d="M 95.33964822691252 79.52364482259891 l -1.5026714175586118 -6.6023414452412235 a27.771184087639146,27.771184087639146 0 0,0 0.46702836759151084,-0.10207431206955016 l 1.38880032581358 6.627229255406641" fill="#ff4506" stroke="none" /><path d="M 96.04723909329186 79.375362276772 l -0.6757093961069123 -3.525703129990819 a24.58986987909231,24.58986987909231 0 0,0 0.4163941762119158,-0.07609337417813544 l 0.6149200987921031 3.536811985519691" fill="#ff1802" stroke="none" /><path d="M 96.40284397218896 79.31037775812273 l -0.5893830785022819 -3.3899317004014855 a24.44078615240932,24.44078615240932 0 0,0 0.41511021902712203,-0.06849674294108113 l 0.5309436533362742 3.3995747062821935" fill="#ff1502" stroke="none" /><path d="M 97.11714578562143 79.19881850522333 l -0.4722195539145549 -3.407291495132554 a24.43985852033218,24.43985852033218 0 0,0 0.41720615794718224,-0.05416533319845336 l 0.41349866745951486 3.4149151514951437" fill="#ff1502" stroke="none" /><path d="M 97.47563105711357 79.15227682838746 l -1.2127860560414234 -10.015900422952127 a31.0890589898276,31.0890589898276 0 0,0 0.5318202450331717,-0.05975620112479569 l 1.0401991074985337 10.035292577547521" fill="#ff740a" stroke="none" /><path d="M 98.55514903715128 79.0497635885617 l -0.22897534300616643 -3.32012622181548 a24.328012595602896,24.328012595602896 0 0,0 0.41802239146672354,-0.0252162522229048 l 0.1717909026998199 3.323575743418691" fill="#ff1402" stroke="none" /><path d="M 98.91598698831166 79.02799685794201 l -0.17047751136375117 -3.2981660417547927 a24.30256897291567,24.30256897291567 0 0,0 0.4179569324313934,-0.017998104706260013 l 0.11367974654303366 3.300611872985245" fill="#ff1302" stroke="none" /><path d="M 99.27714615592234 79.0124445844662 l -0.21254826033421728 -6.171189969850148 a27.174849180907188,27.174849180907188 0 0,0 0.4676317469798151,-0.012077548376449266 l 0.10628987815952319 6.173934310368957" fill="#ff3d05" stroke="none" /><path d="M 99.63851952072746 79.00311137660856 l -0.05728056336303087 -3.3271882665395065 a24.32768129843249,24.32768129843249 0 0,0 0.4187610426355658,-0.0036044085015437097 l 8.150468501415717e-16 3.3276812984324913" fill="#ff1402" stroke="none" /></svg>