<?xml version="1.0" encoding="utf-8" ?>
<svg baseProfile="full" height="200mm" version="1.1" viewBox="0,0,200,200" width="200mm" xmlns="http://www.w3.org/2000/svg" xmlns:ev="http://www.w3.org/2001/xml-events" xmlns:xlink="http://www.w3.org/1999/xlink"><defs /><rect fill="#1a1a1a" height="200" width="200" x="0" y="0" /><rect fill="#1a1a1a" height="200" width="180" x="10" y="0" /><text alignment-baseline="middle" fill="#e1ed5e" style="dominant-baseline: central; font-size:9.0px; font-family:Arial;" text-anchor="middle" x="100.0" y="100.0">2024</text><line stroke="#e1ed5e" stroke-width="0.3" x1="100.0" x2="100.0" y1="15.0" y2="10.0" /><path d="M 100.0 14.0 a86.0,86.0 0 0,1 42.35913384403234,11.155469271406648" fill="none" id="id37" stroke="none" /><text fill="#e1ed5e" style="font-size:6.75px; font-family:Arial;" text-anchor="middle"><textPath startOffset="22.145653131862478" xlink:href="#id37">January</textPath></text><path d="M 100.0 79.0 l 0.0 -9.504784905312963 a30.504784905312963,30.504784905312963 0 0,0 0.5236551967810221,0.004494950063458369 l -0.1631622719321674 9.50338435344394" fill="#ff770b" stroke="none" /><path d="M 100.36049292484886 79.00309439819443 l 0.1795480176428851 -10.457771893913373 a31.45931309770216,31.45931309770216 0 0,0 0.5398817899472287,0.013905439816490459 l -0.3590431216608551 10.453148736746837" fill="#ff840c" stroke="none" /><path d="M 100.72087961077811 79.0123766808444 l 0.3507839032460593 -10.21269060419782 a31.218713163791563,31.218713163791563 0 0,0 0.5354369651804423,0.022993967128312257 l -0.5260466290273378 10.205164068643676" fill="#ff810b" stroke="none" /><path d="M 101.44090949804482 79.04949213459386 l 1.3290464045074828 -19.32404303594767 a40.36969291446026,40.36969291446026 0 0,0 0.6909580621361707,0.05348452393353548 l -1.660573461418887 19.29838074501908" fill="#fff617" stroke="none" /><path d="M 102.15924093988457 79.11130261209362 l 1.4155172637436373 -13.693845472973845 a34.766811285175756,34.766811285175756 0 0,0 0.5931285856808923,0.06646129517338305 l -1.6503817510253262 13.667528417293491" fill="#ffb010" stroke="none" /><path d="M 102.87502721639298 79.19773525538626 l 1.421535379055313 -10.285521865787256 a31.383290561546165,31.383290561546165 0 0,0 0.5330300879391862,0.07833706702788398 l -1.597890572602181 10.259603725460488" fill="#ff830c" stroke="none" /><path d="M 103.23170211078529 79.25015418208739 l 1.6139410439851136 -10.3626592655702 a31.48758850965119,31.48758850965119 0 0,0 0.5333735051185984,0.08776640729484277 l -1.7915920521567825 10.333426859779689" fill="#ff840c" stroke="none" /><path d="M 103.58742460773223 79.30868818359171 l 3.386611115517994 -19.533072957425492 a40.82448168320819,40.82448168320819 0 0,0 0.6894774130388173,0.12564575235672612 l -3.721423262107865 19.472059031137398" fill="#fffc17" stroke="none" /><path d="M 103.94208987418118 79.37332000966035 l 1.7111011068179103 -8.953204033375862 a30.11524708721663,30.11524708721663 0 0,0 0.5069450325921282,0.10140320434210294 l -1.8645426249409955 8.9225114323709" fill="#ff720a" stroke="none" /><path d="M 104.29559338865022 79.4440306129975 l 1.9718923826968369 -9.436218884282358 a30.640051161743116,30.640051161743116 0 0,0 0.5139322655180232,0.11200914525691788 l -2.133587064833994 9.40097828089172" fill="#ff790b" stroke="none" /><path d="M 104.64783097203109 79.52079915486377 l 1.8539685312122367 -8.168927428672358 a29.376668469602986,29.376668469602986 0 0,0 0.4908251617250966,0.11583340171949544 l -1.9939258466772183 8.135897883306635" fill="#ff6809" stroke="none" /><path d="M 104.9986988182912 79.60360301121754 l 1.942004931792861 -7.924042832522808 a29.15854386313905,29.15854386313905 0 0,0 0.48513528014456875,0.12331949110599397 l -2.077745505162824 7.889538109581546" fill="#ff6509" stroke="none" /><path d="M 105.3480935250658 79.69241777938227 l 2.702274587258266 -10.260976758583867 a31.61084030532644,31.61084030532644 0 0,0 0.5235637233464663,0.1426996209825421 l -2.8780197115394253 10.213076643457184" fill="#ff860c" stroke="none" /><path d="M 105.69591212413111 79.78721728523813 l 4.262024466231575 -15.124421266256672 a36.71346464628198,36.71346464628198 0 0,0 0.6051427713377355,0.17614824129116954 l -4.521027249950915 15.049029330662986" fill="#ffc912" stroke="none" /><path d="M 106.04205211174951 79.88797359093562 l 1.5216605881081744 -5.065113204527228 a26.288744909718922,26.288744909718922 0 0,0 0.43108455046237915,0.13355109567854584 l -1.6083857714421836 5.038245521042036" fill="#ff3d05" stroke="none" /><path d="M 106.72888874123014 80.10723608172694 l 3.325687275942991 -9.831803495422946 a31.379044071106932,31.379044071106932 0 0,0 0.5087801611884238,0.17698015068005638 l -3.493973209176433 9.773264912174298" fill="#ff830c" stroke="none" /><path d="M 107.40779381753099 80.34994680014964 l 1.8667484047939227 -4.951771926768118 a26.29195567078273,26.29195567078273 0 0,0 0.4209564176098947,0.16283498550532102 l -1.9514770848973433 4.918997053124759" fill="#ff3d05" stroke="none" /><path d="M 107.74402155503746 80.48000691201159 l 6.518202348331813 -16.43012792271744 a38.675861093894625,38.675861093894625 0 0,0 0.6150300605678262,0.25012737139619 l -6.799286870090079 16.315813294741957" fill="#ffe115" stroke="none" /><path d="M 108.07796709384702 80.6158196554323 l 4.047874706511869 -9.713425718582906 a31.523114027228175,31.523114027228175 0 0,0 0.4977123301348511,0.21244379793000479 l -4.21402211181715 9.6425072709935" fill="#ff850c" stroke="none" /><path d="M 108.4095320186766 80.7573450057729 l 4.178062257377277 -9.56022408673398 a31.43331629037906,31.43331629037906 0 0,0 0.4925849092839755,0.2203269644956202 l -4.341560569516885 9.487093371328507" fill="#ff840c" stroke="none" /><path d="M 108.73861861582097 80.90454125486305 l 2.195088265789749 -4.796664011109779 a26.27507328196335,26.27507328196335 0 0,0 0.40852895097210995,0.1912121768909537 l -2.277105930633364 4.7582756026482915" fill="#ff3d05" stroke="none" /><path d="M 109.06512990194946 81.05736502329252 l 5.143484723879825 -10.747904849303266 a32.9152378807333,32.9152378807333 0 0,0 0.5075839252750686,0.24828473320689773 l -5.327228898416961 10.658026365999149" fill="#ff970e" stroke="none" /><path d="M 109.71004243097381 81.37971332152246 l 9.717194058481267 -18.63400086720052 a42.01546689200631,42.01546689200631 0 0,0 0.6366567369040919,0.33898385256811153 l -10.035639611171918 18.464446546909834" fill="#f4ff19" stroke="none" /><path d="M 110.02825361518725 81.54914285379988 l 2.5550929859448575 -4.701083308017851 a26.350577953431635,26.350577953431635 0 0,0 0.395579659298336,0.2194213687318194 l -2.635416833399294 4.656529023852886" fill="#ff3e05" stroke="none" /><path d="M 110.34350942703115 81.72400993836675 l 2.6113889331180107 -4.614074026364795 a26.301795099849244,26.301795099849244 0 0,0 0.3910294542364488,0.2257609606644862 l -2.6902108552148567 4.568566168424137" fill="#ff3d05" stroke="none" /><line stroke="#e1ed5e" stroke-width="0.3" x1="143.13028292997686" x2="145.6673583964461" y1="26.7553504044142" y2="22.446841604673864" /><path d="M 143.63769802327073 25.89364864446614 a86.0,86.0 0 0,1 29.32050498858742,28.57503671076993" fill="none" id="id38" stroke="none" /><text fill="#e1ed5e" style="font-size:6.75px; font-family:Arial;" text-anchor="middle"><textPath startOffset="20.669276256404974" xlink:href="#id38">February</textPath></text><path d="M 110.65571695917076 81.90426304109057 l 7.899042215329535 -13.414300577203791 a36.567219658472354,36.567219658472354 0 0,0 0.5381776085810881,0.3231601908542908 l -8.128152580468058 13.27672638581358" fill="#ffc712" stroke="none" /><path d="M 110.96478420261332 82.08984904055464 l 5.505060133823281 -8.992102007269796 a31.543414322986454,31.543414322986454 0 0,0 0.4593860762103629,0.2866908876025617 l -5.658610338823356 8.896275322825689" fill="#ff850c" stroke="none" /><path d="M 111.27062007382361 82.28071324371311 l 5.916257017217082 -9.301338695236435 a32.02347488849469,32.02347488849469 0 0,0 0.46131244089650353,0.29901715077032015 l -6.075055090370593 9.198407702762221" fill="#ff8b0c" stroke="none" /><path d="M 112.16784306229584 82.88440491214696 l 6.378412111175419 -8.972035424800916 a32.00824966667598,32.00824966667598 0 0,0 0.4450960346362142,0.3222152042492067 l -6.531489156185601 8.861219449178636" fill="#ff8b0c" stroke="none" /><path d="M 112.45986205192187 83.09580414077388 l 6.528109263410609 -8.856633975502154 a32.00255315511116,32.00255315511116 0 0,0 0.4394209785476489,0.32974969436847723 l -6.6791832308690235 8.743265253869662" fill="#ff8b0c" stroke="none" /><path d="M 113.03279911837588 83.53348406188908 l 4.21016745666542 -5.319409046177059 a27.783923836078564,27.783923836078564 0 0,0 0.37144358159462854,0.29920865622110293 l -4.300861808615308 5.246352096162548" fill="#ff5207" stroke="none" /><path d="M 113.59037401385872 83.9905735841838 l 4.4935123071697545 -5.2933461990699895 a27.943426159893598,27.943426159893598 0 0,0 0.36302571724525107,0.3135729682675126 l -4.583717504177866 5.215429098337757" fill="#ff5407" stroke="none" /><path d="M 113.86319453409587 84.22622945171908 l 0.6976872180765072 -0.7938399814949284 a22.05685825468092,22.05685825468092 0 0,0 0.2822594862586802,0.25239817311087337 l -0.7112117311585631 0.781746278500668" fill="#ff0000" stroke="none" /><path d="M 114.13192950727249 84.46653392183569 l 4.50863908795119 -4.955784154975763 a27.69982261079427,27.69982261079427 0 0,0 0.3489784953666879,0.3230092853649859 l -4.593047354631842 4.877657123478402" fill="#ff5107" stroke="none" /><path d="M 114.65682725009322 84.96080404539774 l 7.236692040730049 -7.425483551561786 a31.368583204415167,31.368583204415167 0 0,0 0.38241003592408734,0.37914159371838585 l -7.363093996784099 7.300161947614741" fill="#ff830c" stroke="none" /><path d="M 115.16444852881244 85.47280134310134 l 7.499292693186517 -7.184152759208891 a31.38515487442192,31.38515487442192 0 0,0 0.3693646635474934,0.392252472750319 l -7.62151319047027 7.054358826514077" fill="#ff830c" stroke="none" /><path d="M 115.41159269507618 85.73525988315684 l 7.636259259135075 -7.068007567524199 a31.405248024305116,31.405248024305116 0 0,0 0.36280882744416687,0.39879045611304004 l -7.75646578742112 6.935879535853488" fill="#ff830c" stroke="none" /><path d="M 115.6541949942343 86.00192230759917 l 7.583135649034246 -6.780886657301273 a31.172726779522808,31.172726779522808 0 0,0 0.3532744799889617,0.4019615085256066 l -7.698421192981798 6.649712870964368" fill="#ff800b" stroke="none" /><path d="M 115.8921839302757 86.27271002978787 l 7.3858379219152805 -6.379710886303657 a30.759677904604395,30.759677904604395 0 0,0 0.3417333371387793,0.40256101187323085 l -7.4942658225611725 6.2519830919808745" fill="#ff7a0b" stroke="none" /><path d="M 116.35404254752997 86.82634096563983 l 8.608156366201232 -6.934121429194849 a32.05361461331948,32.05361461331948 0 0,0 0.34149855277513536,0.4314722655538305 l -8.725921349617927 6.78532921972634" fill="#ff8c0c" stroke="none" /><path d="M 116.57777611688842 87.10902102172516 l 8.242951254959856 -6.409768752901722 a31.441809271257522,31.441809271257522 0 0,0 0.327665608924654,0.428924800289725 l -8.351768841238815 6.267323039371115" fill="#ff840c" stroke="none" /><path d="M 117.01052211995028 87.68569379921539 l 8.495123547552994 -6.149814323181336 a31.48748493671365,31.48748493671365 0 0,0 0.3132028661211799,0.4405590546689487 l -8.599441512204136 6.003078041802883" fill="#ff840c" stroke="none" /><path d="M 117.21940702142032 87.97951657250589 l 8.7103560229534 -6.080504984360873 a31.6227511931438,31.6227511931438 0 0,0 0.30690672587133966,0.4477860850649114 l -8.813452485640065 5.930084164225913" fill="#ff860c" stroke="none" /><path d="M 117.42321728460499 88.27688183743584 l 8.773322201709274 -5.903082718239608 a31.57438263131158,31.57438263131158 0 0,0 0.2987170564289316,0.4522956964057267 l -8.87336369705893 5.751607143494823" fill="#ff850c" stroke="none" /><path d="M 117.62189284568427 88.57770195909679 l 4.357939610738215 -2.82476380454785 a26.193354234242527,26.193354234242527 0 0,0 0.24133098291914354,0.37941238915971826 l -4.405788285283248 2.74953774070946" fill="#ff3c05" stroke="none" /><path d="M 117.81537515405839 88.88188828441811 l 8.258282947806567 -5.153779339397316 a30.734509680781635,30.734509680781635 0 0,0 0.2754866342227938,0.4499867133786149 l -8.345537546484763 5.011255509894146" fill="#ff7a0b" stroke="none" /><line stroke="#e1ed5e" stroke-width="0.3" x1="172.87174338648825" x2="177.1583165268699" y1="56.24261187166439" y2="53.66864786411523" /><path d="M 173.72905801456457 55.72781907015455 a86.0,86.0 0 0,1 12.242430191666344,42.057860355516425" fill="none" id="id39" stroke="none" /><text fill="#e1ed5e" style="font-size:6.75px; font-family:Arial;" text-anchor="middle"><textPath startOffset="22.145653131862474" xlink:href="#id39">March</textPath></text><path d="M 118.00360718960297 89.18935116829356 l 9.296882831184108 -5.582511018985889 a31.84419013360909,31.84419013360909 0 0,0 0.2773875978601604,0.47106478388778666 l -9.391344139174036 5.422095066804546" fill="#ff890c" stroke="none" /><path d="M 118.18653347947321 89.5 l 18.125121073791433 -10.464543531048045 a41.92908706209609,41.92908706209609 0 0,0 0.35453366177819823,0.6264270096027289 l -18.302088100591007 10.1518597513462" fill="#f5ff19" stroke="none" /><path d="M 118.53625476483649 90.13048839642627 l 9.240990393451087 -4.9203068836588315 a31.469256099706215,31.469256099706215 0 0,0 0.24979386034200157,0.47901266376084656 l -9.324092322768033 4.760947976793487" fill="#ff840c" stroke="none" /><path d="M 118.8641267826498 90.77261029715802 l 9.4324510526394 -4.613884475995862 a31.500431553906427,31.500431553906427 0 0,0 0.23343431109532958,0.48778792956591877 l -9.510264621694642 4.451284044364839" fill="#ff840c" stroke="none" /><path d="M 119.0197475246899 91.09779779509293 l 9.555948262486549 -4.472666294957702 a31.55087157448949,31.55087157448949 0 0,0 0.22538670873983752,0.4925106344212947 l -9.631319436081437 4.307966678321723" fill="#ff850c" stroke="none" /><path d="M 119.16976305983485 91.42560881287824 l 16.12956930759597 -7.214551191448685 a38.66954314470455,38.66954314470455 0 0,0 0.2658367537132511,0.6082865164350092 l -16.251039943326187 6.936602605237827" fill="#ffe115" stroke="none" /><path d="M 119.31412917781788 91.75594674310238 l 9.62297804850417 -4.107477111260991 a31.462938150516138,31.462938150516138 0 0,0 0.20776649411541376,0.49856395114054947 l -9.692070387156067 3.9416806506791637" fill="#ff840c" stroke="none" /><path d="M 119.4528033332814 92.08871423366111 l 6.525981268405819 -2.6540597689486916 a28.04503121162253,28.04503121162253 0 0,0 0.1775401718994998,0.447517211010882 l -6.570580115271444 2.5416415407242443" fill="#ff5507" stroke="none" /><path d="M 119.58574465831526 92.42381321644754 l 9.684022745311339 -3.745988034389093 a31.38329056154616,31.38329056154616 0 0,0 0.19004721906497835,0.5041228275377535 l -9.746900648190756 3.5791969266571817" fill="#ff830c" stroke="none" /><path d="M 119.71291397450082 92.76114493625339 l 9.827597374786984 -3.6088298824294487 a31.469256099706215,31.469256099706215 0 0,0 0.18186207471923563,0.5087005902165176 l -9.888099619550164 3.4395943358320142" fill="#ff840c" stroke="none" /><path d="M 119.83427380445688 93.10060997987247 l 19.883413821297054 -6.916483468827412 a42.05202813895872,42.05202813895872 0 0,0 0.23131534773804102,0.6838427235438018 l -19.999214590607462 6.574139070809449" fill="#f3ff19" stroke="none" /><path d="M 119.94978838288452 93.4421083053983 l 8.21603290765876 -2.700773207897011 a29.648547430651345,29.648547430651345 0 0,0 0.1547869963976634,0.4848680616073969 l -8.261184619833681 2.559336112598227" fill="#ff6b09" stroke="none" /><path d="M 120.05942366710727 93.78553927170692 l 16.46103017635993 -5.099669226587906 a38.2328796400265,38.2328796400265 0 0,0 0.1888407130058067,0.6285893164829994 l -16.546147209369366 4.816342306514183" fill="#ffdc14" stroke="none" /><path d="M 120.16314734710363 94.1308016681162 l 9.736613659499382 -2.8341863333523483 a31.14072274182226,31.14072274182226 0 0,0 0.14499937274203506,0.5145516207307409 l -9.783831524315998 2.666626788718594" fill="#ff800b" stroke="none" /><path d="M 120.26092885502905 94.47779374421319 l 13.021892138906438 -3.549174608241184 a34.4969002099407,34.4969002099407 0 0,0 0.1508180151858126,0.572680569137687 l -13.08089963489698 3.3251135347306984" fill="#ffac0f" stroke="none" /><path d="M 120.35273937422433 94.82641323984039 l 10.236715169378032 -2.6021329656926167 a31.562264597619137,31.562264597619137 0 0,0 0.12897314256519016,0.5262544338587843 l -10.279875838459512 2.426022707225737" fill="#ff850c" stroke="none" /><path d="M 120.43855184770803 95.1765574152323 l 10.324128728692637 -2.4364662688263814 a31.607733117200176,31.607733117200176 0 0,0 0.12009303778745796,0.5291520831440941 l -10.364432628037761 2.258879851743261" fill="#ff860c" stroke="none" /><path d="M 120.51834098615036 95.52812308129327 l 20.413736634117374 -4.449078887044798 a41.892940106893846,41.892940106893846 0 0,0 0.1471086335133356,0.703968065286129 l -20.487102978455077 4.097994370473264" fill="#f5ff19" stroke="none" /><path d="M 120.592083275326 95.88100663000786 l 10.45378291250017 -2.0910493577655567 a31.66086603415934,31.66086603415934 0 0,0 0.10202896162330881,0.5338586405485561 l -10.488138166405637 1.911288152183686" fill="#ff870c" stroke="none" /><path d="M 120.65975698304385 96.23510406497455 l 16.11813397047255 -2.9372609327124417 a37.38358155218022,37.38358155218022 0 0,0 0.10963212822309337,0.6323289819864579 l -16.166180916187876 2.6601389178053907" fill="#ffd113" stroke="none" /><path d="M 120.7213421655516 96.59031103205396 l 10.404837904447271 -1.7121121176716152 a31.544760771174502,31.544760771174502 0 0,0 0.08333601230667373,0.5350769802303724 l -10.432695408892211 1.5332469555098014" fill="#ff850c" stroke="none" /><path d="M 120.77682067341334 96.94652285012252 l 21.632600232639312 -3.179247274696078 a42.86497212572769,42.86497212572769 0 0,0 0.10074387724345853,0.7289325102273708 l -21.683988626437984 2.8074264562686215" fill="#eaff1a" stroke="none" /><path d="M 120.82617615685814 97.30363454192243 l 10.393178365366856 -1.3456050180765404 a31.479924112273068,31.479924112273068 0 0,0 0.06478555451602627,0.536517328083507 l -10.414746006142547 1.1669940130696204" fill="#ff840c" stroke="none" /><path d="M 120.86939407059847 97.66154086499901 l 10.837062803889252 -1.214315491125683 a31.90488387500884,31.90488387500884 0 0,0 0.05631608159032613,0.5448070035555426 l -10.856311277961245 1.028103965287209" fill="#ff8a0c" stroke="none" /><path d="M 120.9064616781168 98.02013634271609 l 20.573858019428865 -1.9483657449994476 a41.66590822780128,41.66590822780128 0 0,0 0.0613210609680825,0.7126436798763548 l -20.60427270309469 1.5949010177474308" fill="#f8ff18" stroke="none" /><path d="M 120.93736805541906 98.37931529534042 l 10.52394749656938 -0.814620094330145 a31.55542878374135,31.55542878374135 0 0,0 0.03716934818321988,0.540434165033437 l -10.536380805917666 0.6338425051423738" fill="#ff850c" stroke="none" /><path d="M 120.96210409425399 98.7389718711861 l 19.85125562906653 -1.194202243628314 a40.887143310421244,40.887143310421244 0 0,0 0.036133351976321226,0.7009773752380746 l -19.868830570499423 0.8532530750135088" fill="#fffc17" stroke="none" /><path d="M 120.98066250479742 99.09900007780936 l 10.568681014722902 -0.4538646370078003 a31.578421975875727,31.578421975875727 0 0,0 0.018609183623670075,0.5417860768027976 l -10.57491488534342 0.2723722956408827" fill="#ff850c" stroke="none" /><path d="M 120.99303781780057 99.45929381324524 l 14.900136351249682 -0.38377465798584026 a35.90507786876487,35.90507786876487 0 0,0 0.010581001445051141,0.6162902881031962 l -14.904528784293397 0.1279374539135777" fill="#ffbe11" stroke="none" /><line stroke="#e1ed5e" stroke-width="0.3" x1="184.99686870605535" x2="189.99668451229388" y1="99.2704041080226" y2="99.22748670261217" /><path d="M 185.99683186730306 99.26182062694052 a86.0,86.0 0 0,1 -10.086455211305974,41.156179273409016" fill="none" id="id40" stroke="none" /><text fill="#e1ed5e" style="font-size:6.75px; font-family:Arial;" text-anchor="middle"><textPath startOffset="21.40746469413373" xlink:href="#id40">April</textPath></text><path d="M 120.99922638620191 99.81974689727618 l 5.37140537659082 -0.04610705496056451 a26.371603259752707,26.371603259752707 0 0,0 0.0,0.4527203153687821 l -5.37140537659082 -0.04610705496056386" fill="#ff3e05" stroke="none" /><path d="M 120.99922638620191 100.18025310272382 l 20.915680627752725 0.17953596286815093 a41.916451163715934,41.916451163715934 0 0,0 -0.012352515484177776,0.7194720996949157 l -20.909516680669878 -0.5385549785321377" fill="#f5ff19" stroke="none" /><path d="M 120.99303781780057 100.54070618675476 l 5.151148876102418 0.13267532266538773 a26.152857215663516,26.152857215663516 0 0,0 -0.015411894950982658,0.4487005056453743 l -5.14811229415459 -0.22108209287487268" fill="#ff3b05" stroke="none" /><path d="M 120.98066250479742 100.90099992219065 l 8.417175500862633 0.3614697328841787 a29.42493345849767,29.42493345849767 0 0,0 -0.026003809301706225,0.5044669534796167 l -8.409730102104355 -0.505908479740526" fill="#ff6809" stroke="none" /><path d="M 120.96210409425399 101.26102812881392 l 1.6355670459079563 0.09839165201056171 a22.63852387191809,22.63852387191809 0 0,0 -0.026666066936254493,0.38771876085591495 l -1.6336370178066357 -0.12645383702082014" fill="#ff0901" stroke="none" /><path d="M 120.93736805541906 101.62068470465957 l 12.99443624587444 1.0058515479891874 a34.03330774150168,34.03330774150168 0 0,0 -0.050087916662035714,0.582097515663548 l -12.975254706514663 -1.2287701110283926" fill="#ffa60f" stroke="none" /><path d="M 120.9064616781168 101.97986365728391 l 10.43788439557342 0.9884785044882913 a31.484584894462465,31.484584894462465 0 0,0 -0.05557420170217142,0.5376299886168271 l -10.419377801389583 -1.16751301538805" fill="#ff840c" stroke="none" /><path d="M 120.86939407059847 102.33845913500097 l 5.236604777519253 0.5867724878333525 a26.269376770398527,26.269376770398527 0 0,0 -0.05406226948930852,0.4477131452098553 l -5.225760421770281 -0.6765793099666163" fill="#ff3d05" stroke="none" /><path d="M 120.82617615685814 102.69636545807757 l 15.393169831105784 1.9929540166329323 a36.52164756595377,36.52164756595377 0 0,0 -0.08583540818180375,0.6210622547427618 l -15.35668990636877 -2.256904579575779" fill="#ffc612" stroke="none" /><path d="M 120.77682067341334 103.0534771498775 l 10.59398666293009 1.5569512154839944 a31.707784574865975,31.707784574865975 0 0,0 -0.08376669408642008,0.5378422662066151 l -10.565698476705402 -1.7385816636220601" fill="#ff870c" stroke="none" /><path d="M 120.7213421655516 103.40968896794604 l 10.40657528038653 1.7123980022212673 a31.546521511112722,31.546521511112722 0 0,0 -0.09251420403557299,0.5335973441841799 l -10.375646258858723 -1.8907883793260354" fill="#ff850c" stroke="none" /><path d="M 120.65975698304385 103.76489593502545 l 16.746723261828468 3.051810841008493 a38.022523003878234,38.022523003878234 0 0,0 -0.12252976706949201,0.6411275174588131 l -16.691867202476814 -3.3388409235006207" fill="#ffd914" stroke="none" /><path d="M 120.43855184770803 104.8234425847677 l 12.05472922874336 2.8448832746574997 a33.38587330892519,33.38587330892519 0 0,0 -0.13642496990725944,0.5566604323567652 l -12.004116732319805 -3.0513995316223643" fill="#ff9d0e" stroke="none" /><path d="M 120.26092885502905 105.52220625578681 l 15.021247674541724 4.094107850217727 a36.569187544285654,36.569187544285654 0 0,0 -0.17027572865179755,0.6042484908177106 l -14.948753453815346 -4.351364264938446" fill="#ffc712" stroke="none" /><path d="M 119.94978838288452 106.5578916946017 l 6.472799751267411 2.1277378443810306 a27.81354569621564,27.81354569621564 0 0,0 -0.15299380979410057,0.4522990134378125 l -6.435320519900945 -2.2385385322930036" fill="#ff5207" stroke="none" /><path d="M 119.83427380445688 106.89939002012753 l 2.0934234115053623 0.7282013314748086 a23.216460863403736,23.216460863403736 0 0,0 -0.1341688448840059,0.3752941380798085 l -2.0806143965774133 -0.7640304259355386" fill="#ff1101" stroke="none" /><path d="M 119.71291397450082 107.23885506374661 l 9.58025704652096 3.518003087869634 a31.20576654659878,31.20576654659878 0 0,0 -0.18897219013224628,0.5012711855725595 l -9.518454172574275 -3.6819425536363526" fill="#ff800b" stroke="none" /><path d="M 119.58574465831526 107.57618678355244 l 9.829305786966271 3.802186635936421 a31.53906425960968,31.53906425960968 0 0,0 -0.1996592853810028,0.5032718262586304 l -9.762587826619145 -3.9703594794086157" fill="#ff850c" stroke="none" /><path d="M 119.31412917781788 108.2440532568976 l 9.655937367498257 4.121545484657311 a31.49877438690575,31.49877438690575 0 0,0 -0.21654075140290552,0.49548761597943247 l -9.583762734078386 -4.286695170412588" fill="#ff840c" stroke="none" /><path d="M 119.16976305983485 108.57439118712176 l 9.55681708781423 4.274642725573416 a31.469256099706215,31.469256099706215 0 0,0 -0.2248036806862247,0.49123661290434784 l -9.48202894227295 -4.438068320692452" fill="#ff840c" stroke="none" /><path d="M 118.8641267826498 109.22738970284198 l 4.351327684213096 2.128452418159539 a25.844002715912584,25.844002715912584 0 0,0 -0.19835898098604837,0.3968508373856878 l -4.314148790015315 -2.202835111708972" fill="#ff3705" stroke="none" /><path d="M 118.70294669586154 109.54985784667822 l 3.8062546028865696 1.9435007208716744 a25.273730121805063,25.273730121805063 0 0,0 -0.20061556562903224,0.38470679924751805 l -3.772330968282588 -2.008553763223695" fill="#ff2e04" stroke="none" /><path d="M 118.5362547648365 109.86951160357373 l 9.208352869381658 4.902929240407713 a31.432280561003637,31.432280561003637 0 0,0 -0.25767682241772183,0.4740963305032422 l -9.122830697348597 -5.0602804043855585" fill="#ff840c" stroke="none" /><line stroke="#e1ed5e" stroke-width="0.3" x1="174.33088141563837" x2="178.70328620479359" y1="141.23008692659167" y2="143.65538615756765" /><path d="M 175.20536237346943 141.71514677278685 a86.0,86.0 0 0,1 -30.301960400862466,31.631185727798858" fill="none" id="id41" stroke="none" /><text fill="#e1ed5e" style="font-size:6.75px; font-family:Arial;" text-anchor="middle"><textPath startOffset="22.145653131862474" xlink:href="#id41">May</textPath></text><path d="M 117.423217284605 111.72311816256416 l 8.687046387862345 5.845032500316155 a31.47039540201918,31.47039540201918 0 0,0 -0.3054280747338791,0.44562868886532864 l -8.585428576313147 -5.993295924251528" fill="#ff840c" stroke="none" /><path d="M 117.21940702142032 112.02048342749411 l 8.587976382838784 5.99507449107905 a31.47350259014545,31.47350259014545 0 0,0 -0.31306378511712196,0.4403634198191498 l -8.483797499191702 -6.141615137607704" fill="#ff840c" stroke="none" /><path d="M 117.01052211995028 112.31430620078461 l 8.46064202254194 6.124852358212715 a31.44491645938379,31.44491645938379 0 0,0 -0.32028591071511603,0.43452935057525754 l -8.354254092242996 -6.26918801805685" fill="#ff840c" stroke="none" /><path d="M 116.79662413953412 112.60449989151573 l 8.423344070159132 6.321034425520304 a31.531296289294012,31.531296289294012 0 0,0 -0.32859818306512156,0.43014556977563156 l -8.313593909739707 -6.4647009085368135" fill="#ff850c" stroke="none" /><path d="M 116.57777611688842 112.89097897827486 l 8.244014165274828 6.410595278391602 a31.44315571944557,31.44315571944557 0 0,0 -0.3349947362383216,0.4232549058224873 l -8.132752998394945 -6.551170128128772" fill="#ff840c" stroke="none" /><path d="M 116.35404254752997 113.17365903436017 l 8.223252248255594 6.624069917710745 a31.559364555367956,31.559364555367956 0 0,0 -0.34347586437795535,0.41898470614676403 l -8.108329564639012 -6.764256905556001" fill="#ff850c" stroke="none" /><path d="M 115.89218393027572 113.72728997021213 l 7.8096437761421305 6.745784289277695 a31.319696777895235,31.319696777895235 0 0,0 -0.3549400625386192,0.40385663572034436 l -7.6926926496449255 -6.878853202809332" fill="#ff820c" stroke="none" /><path d="M 115.6541949942343 113.99807769240083 l 7.864401437071386 7.032396259335 a31.550042990989155,31.550042990989155 0 0,0 -0.36448156991197633,0.40062909310651684 l -7.7425221663175305 -7.166362927999188" fill="#ff850c" stroke="none" /><path d="M 115.41159269507618 114.26474011684316 l 7.688554595430877 7.116411350075553 a31.47650620533417,31.47650620533417 0 0,0 -0.3704397563339406,0.3933941840333325 l -7.5652590053606765 -7.247346994053383" fill="#ff840c" stroke="none" /><path d="M 115.16444852881244 114.52719865689866 l 0.9267444151360267 0.8878001858935212 a22.28337226908578,22.28337226908578 0 0,0 -0.26699002751295575,0.2739552887659525 l -0.9113675864722638 -0.903578166727211" fill="#ff0300" stroke="none" /><path d="M 114.91283532996324 114.78537596483092 l 1.3350200195349877 1.323609660581517 a22.879952389329027,22.879952389329027 0 0,0 -0.278926318033807,0.27654234673467615 l -1.3121017813712157 -1.346332017544855" fill="#ff0c01" stroke="none" /><path d="M 113.86319453409587 115.77377054828091 l 6.809903130731472 7.748419686096805 a31.315657433331083,31.315657433331083 0 0,0 -0.40683590250140883,0.3514151628518738 l -6.675887748467208 -7.864178981413397" fill="#ff820c" stroke="none" /><path d="M 113.59037401385872 116.0094264158162 l 6.2878607381268745 7.4070841389125235 a30.716073697899112,30.716073697899112 0 0,0 -0.4049046453977726,0.33778585612356504 l -6.159781758567207 -7.513932178947959" fill="#ff7a0b" stroke="none" /><path d="M 113.31354834802062 116.24036423190432 l 6.6270397721262935 8.083910980399779 a31.453098721449628,31.453098721449628 0 0,0 -0.420496820761294,0.3387224733971595 l -6.487292181009747 -8.196481747590342" fill="#ff840c" stroke="none" /><path d="M 113.03279911837588 116.46651593811092 l 6.473793728118868 8.179426893322383 a31.43134840456576,31.43134840456576 0 0,0 -0.42595472298308207,0.33122496895575537 l -6.332429060500555 -8.28935291389893" fill="#ff840c" stroke="none" /><path d="M 112.16784306229584 117.11559508785304 l 5.987071608028459 8.421565998210836 a31.332850540963097,31.332850540963097 0 0,0 -0.44105449654417384,0.3078902926062391 l -5.841622020310527 -8.523101106622198" fill="#ff820c" stroke="none" /><path d="M 111.8722381534696 117.32195027204791 l 7.310576469044843 10.666349547561127 a33.93118482508504,33.93118482508504 0 0,0 -0.4832830157356937,0.3251743812226871 l -7.126397165212146 -10.790273602840935" fill="#ffa50f" stroke="none" /><path d="M 111.5731344415666 117.5232005979908 l 5.618992156553124 8.507870293476763 a31.19592711753227,31.19592711753227 0 0,0 -0.4493912461007944,0.2912899763315332 l -5.47211527819532 -8.603074111512191" fill="#ff800b" stroke="none" /><path d="M 111.27062007382361 117.71928675628689 l 5.557441632312768 8.737221312515537 a31.354911576659596,31.354911576659596 0 0,0 -0.4566407951794829,0.28497762919918407 l -5.40663670834357 -8.831334738556269" fill="#ff830c" stroke="none" /><path d="M 110.96478420261333 117.91015095944535 l 5.419886015619685 8.852976486267703 a31.38028694635744,31.38028694635744 0 0,0 -0.46183898975939763,0.27732104363853627 l -5.2671142693028505 -8.944711530442163" fill="#ff830c" stroke="none" /><line stroke="#e1ed5e" stroke-width="0.3" x1="143.1302829299769" x2="145.66735839644613" y1="173.24464959558577" y2="177.55315839532614" /><path d="M 143.63769802327073 174.10635135553383 a86.0,86.0 0 0,1 -40.68552437913181,11.842963189579606" fill="none" id="id42" stroke="none" /><text fill="#e1ed5e" style="font-size:6.75px; font-family:Arial;" text-anchor="middle"><textPath startOffset="21.407464694133747" xlink:href="#id42">June</textPath></text><path d="M 110.02825361518725 118.45085714620011 l 4.552873007011152 8.376773532126581 a30.534096046637416,30.534096046637416 0 0,0 -0.4626805172327429,0.2463513148426642 l -4.408403673991855 -8.453695314691814" fill="#ff770b" stroke="none" /><path d="M 109.71004243097381 118.62028667847754 l 4.83812389915512 9.277740507177903 a31.46345601520385,31.46345601520385 0 0,0 -0.4810504398711429,0.2456277822182924 l -4.678146237570394 -9.359426241069032" fill="#ff840c" stroke="none" /><path d="M 109.3889696526874 118.78422872680471 l 4.679303908007804 9.361742357436533 a31.466045338642406,31.466045338642406 0 0,0 -0.48523601329401805,0.23735324958881357 l -4.517907645451716 -9.440689357122569" fill="#ff840c" stroke="none" /><path d="M 109.06512990194946 118.94263497670748 l 4.569144876146301 9.547755463043032 a31.584739925065804,31.584739925065804 0 0,0 -0.49108447880796297,0.22985233239110378 l -4.404571683466831 -9.624784027004669" fill="#ff860c" stroke="none" /><path d="M 108.73861861582097 119.09545874513695 l 4.382375566035762 9.576281504656361 a31.531399862231552,31.531399862231552 0 0,0 -0.4941219563743017,0.22101446610867373 l -4.217340206805834 -9.650099721674884" fill="#ff850c" stroke="none" /><path d="M 107.407793817531 119.65005319985036 l 1.8387256227358173 4.877438168052201 a26.21251522768784,26.21251522768784 0 0,0 -0.4224095007371884,0.1551146196519389 l -1.7547269703445019 -4.908283636712862" fill="#ff3c05" stroke="none" /><path d="M 107.06938296918513 119.77432235084164 l 1.806120209645231 5.052039673840343 a26.36518173762509,26.36518173762509 0 0,0 -0.4274853428878736,0.14870159288658522 l -1.7191290947123357 -5.082299699295519" fill="#ff3e05" stroke="none" /><path d="M 106.72888874123015 119.89276391827305 l 3.362226360772986 9.939824807152918 a31.49307787534093,31.49307787534093 0 0,0 -0.5136030044663559,0.168831509020016 l -3.1911006186588957 -9.996077237574955" fill="#ff840c" stroke="none" /><path d="M 105.3480935250658 120.30758222061773 l 2.635883587569361 10.008879318893923 a31.350147221532648,31.350147221532648 0 0,0 -0.5215988331337155,0.13258838368621792 l -2.463679461210248 -10.052652934415411" fill="#ff820c" stroke="none" /><path d="M 104.9986988182912 120.39639698878246 l 2.46735287826522 10.067641729556339 a31.365579589226442,31.365579589226442 0 0,0 -0.5240558741510614,0.12367575936948566 l -2.2941648503742793 -10.10851363257205" fill="#ff830c" stroke="none" /><path d="M 104.64783097203109 120.47920084513623 l 2.3023255486829655 10.144471175070011 a31.40245155499148,31.40245155499148 0 0,0 -0.5267201737126123,0.11479621032872532 l -2.1278429583512177 -10.182498843532455" fill="#ff830c" stroke="none" /><path d="M 104.29559338865022 120.5559693870025 l 2.1112542746482714 10.103115986842758 a31.321353944895908,31.321353944895908 0 0,0 -0.5272480332118797,0.1054643730847454 l -1.9375097559054328 -10.137869756590364" fill="#ff820c" stroke="none" /><path d="M 103.94208987418118 120.62667999033965 l 1.9126816026306575 10.007958367277794 a31.189091303654482,31.189091303654482 0 0,0 -0.5267470179767154,0.09599085354174361 l -1.740599851102885 -10.039317394750901" fill="#ff800b" stroke="none" /><path d="M 103.58742460773223 120.69131181640829 l 0.1793750639432486 1.0345877017563685 a22.050022440803133,22.050022440803133 0 0,0 -0.37350900192277525,0.06146076412954597 l -0.16158855896740107 -1.037514464381585" fill="#ff0000" stroke="none" /><path d="M 102.875027216393 120.80226474461374 l 1.6106650524335366 11.65396996751063 a32.764746402484434,32.764746402484434 0 0,0 -0.5578154047148866,0.07222037199380309 l -1.4103718258278748 -11.679901935704827" fill="#ff950d" stroke="none" /><path d="M 102.51750503828377 120.84855314841334 l 1.2408997374150472 10.276429931193517 a31.351079377970528,31.351079377970528 0 0,0 -0.5348555327233517,0.059931678043534095 l -1.0643083030908964 -10.296217369744022" fill="#ff820c" stroke="none" /><path d="M 102.15924093988457 120.88869738790638 l 1.2830271737020715 12.41212403714249 a33.47826036921286,33.47826036921286 0 0,0 -0.5721601077914589,0.05418415708047265 l -1.0697675025255973 -12.432319949728146" fill="#ff9f0e" stroke="none" /><path d="M 101.80034050326958 120.92268563240118 l 0.8950305822397259 10.401612067038359 a31.440048531319306,31.440048531319306 0 0,0 -0.5381203927584509,0.04165392171072319 l -0.7163411947060392 -10.415443755744136" fill="#ff840c" stroke="none" /><path d="M 101.44090949804482 120.95050786540614 l 0.8702779065635727 12.653649761688381 a33.683541931421566,33.683541931421566 0 0,0 -0.5772006097240469,0.034722955365444744 l -0.6529329447070608 -12.666724694878518" fill="#ffa10e" stroke="none" /><path d="M 100.72087961077811 120.9876233191556 l 0.08384013320675933 2.4409140007053227 a23.44235344018334,23.44235344018334 0 0,0 -0.4023005746042843,0.010361835743424969 l -0.04192624453173117 -2.4419935537987927" fill="#ff1402" stroke="none" /><line stroke="#e1ed5e" stroke-width="0.3" x1="101.45913802915013" x2="101.54496967792366" y1="184.9874750549273" y2="189.98673829345242" /><path d="M 101.47630435890484 185.9873277026323 a86.0,86.0 0 0,1 -42.54439059252881,-10.42667462771756" fill="none" id="id43" stroke="none" /><text fill="#e1ed5e" style="font-size:6.75px; font-family:Arial;" text-anchor="middle"><textPath startOffset="22.145653131862474" xlink:href="#id43">July</textPath></text><path d="M 100.36049292484886 120.99690560180557 l 0.17789450814733743 10.361463255389438 a31.362990265787886,31.362990265787886 0 0,0 -0.5383874329961884,0.004621408592882558 l -1.2691002858592314e-15 -10.362990265787886" fill="#ff830c" stroke="none" /><path d="M 100.0 121.0 l 1.5770177166674742e-15 12.87732689756308 a33.87732689756308,33.87732689756308 0 0,0 -0.5815493647315813,-0.0049919018659095446 l 0.22105643988272747 -12.875429393891606" fill="#ffa40f" stroke="none" /><path d="M 99.63950707515114 120.99690560180557 l -0.1790928580398071 10.431261128900335 a31.432798425691352,31.432798425691352 0 0,0 -0.5394267644817735,-0.01389371997458339 l 0.3581329365923246 -10.426649691575705" fill="#ff840c" stroke="none" /><path d="M 99.27912038922189 120.98762331915562 l -0.4479888242363777 13.04270581895901 a34.05039727619615,34.05039727619615 0 0,0 -0.5840036161996772,-0.02507962809251983 l 0.6718182010368936 -13.033093622440662" fill="#ffa60f" stroke="none" /><path d="M 98.55909050195518 120.95050786540614 l -0.21452073238223163 3.1190843680085374 a24.126452692649774,24.126452692649774 0 0,0 -0.4129426258965152,-0.031964370876081775 l 0.268032353053983 -3.1149422301374017" fill="#ff1e03" stroke="none" /><path d="M 97.84075906011543 120.88869738790638 l -1.3954962550403065 13.500160375364088 a34.57209416259636,34.57209416259636 0 0,0 -0.5898066735683264,-0.0660890679923249 l 1.627038830209432 -13.47421554686479" fill="#ffad10" stroke="none" /><path d="M 97.48249496171623 120.84855314841334 l -1.2728224232755068 10.540795564104252 a31.617365400391606,31.617365400391606 0 0,0 -0.538281397334412,-0.06969130365394868 l 1.4535816425007129 -10.517392664249906" fill="#ff860c" stroke="none" /><path d="M 97.12497278360702 120.80226474461374 l -1.9061145856850326 13.791695612098152 a34.922792129114356,34.922792129114356 0 0,0 -0.5931468187874588,-0.0871721562292577 l 2.142586510080176 -13.756942382570013" fill="#ffb210" stroke="none" /><path d="M 96.76829788921471 120.74984581791261 l -1.6469664428981554 10.574706017414611 a31.70219163623869,31.70219163623869 0 0,0 -0.5370087032158625,-0.08836457775839072 l 1.8282526491670816 -10.544875441160551" fill="#ff870c" stroke="none" /><path d="M 96.41257539226777 120.69131181640829 l -1.8291196227450277 10.549875914368883 a31.70726671017826,31.70726671017826 0 0,0 -0.5354983902920508,-0.09758564510114437 l 2.009952746588136 -10.516922095336373" fill="#ff870c" stroke="none" /><path d="M 96.05791012581884 120.62667999033965 l -0.7816882556087404 4.0901232633610185 a25.16414995388538,25.16414995388538 0 0,0 -0.4236007355868791,-0.08473201074787913 l 0.8517854767265777 -4.076101855950278" fill="#ff2d04" stroke="none" /><path d="M 95.35216902796893 120.47920084513623 l -3.296669960300518 14.525736121513631 a35.89513486676081,35.89513486676081 0 0,0 -0.5997356505674583,-0.14153598053840732 l 3.545537764607864 -14.467003997328996" fill="#ffbe11" stroke="none" /><path d="M 95.00130118170881 120.39639698878247 l -2.5755337778438276 10.50905671665959 a31.82005763916175,31.82005763916175 0 0,0 -0.5294171289707842,-0.13457576391479614 l 2.7555562000399902 -10.463295720909532" fill="#ff890c" stroke="none" /><path d="M 94.6519064749342 120.30758222061772 l -3.7893777502215533 14.388884537440227 a35.87949535319194,35.87949535319194 0 0,0 -0.5942645623293971,-0.16196944904000304 l 4.035823713485645 -14.321714594256079" fill="#ffbe11" stroke="none" /><path d="M 94.30408787586889 120.21278271476187 l -2.9760906042165343 10.561095643948256 a31.972413430286373,31.972413430286373 0 0,0 -0.5269967042328321,-0.15340106006991805 l 3.156947320830973 -10.508450889575823" fill="#ff8b0c" stroke="none" /><path d="M 93.95794788825049 120.11202640906438 l -4.258700748235071 14.17582972352175 a35.801712077097726,35.801712077097726 0 0,0 -0.5870788053800648,-0.1818785146070804 l 4.50142018648677 -14.10063462110802" fill="#ffbd11" stroke="none" /><path d="M 92.93061703081489 119.77432235084164 l -3.5509799569760845 9.932722931647456 a31.54838582398848,31.54838582398848 0 0,0 -0.5083960005066244,-0.1866900534043998 l 3.720965109136828 -9.870302029234336" fill="#ff850c" stroke="none" /><path d="M 92.59220618246901 119.65005319985036 l -3.8856674579216355 10.30719457720221 a32.01529262642885,32.01529262642885 0 0,0 -0.5125918764472287,-0.19828154953746197 l 4.062031596862393 -10.238973139526708" fill="#ff8b0c" stroke="none" /><path d="M 92.25597844496254 119.51999308798841 l -3.830080284837858 9.654304311413297 a31.386294176734886,31.386294176734886 0 0,0 -0.4991101390516695,-0.20298374847389422 l 3.9952448850799684 -9.58713330636011" fill="#ff830c" stroke="none" /><path d="M 91.59046798132341 119.24265499422711 l -8.402577844596138 19.226742483007364 a41.98263427080542,41.98263427080542 0 0,0 -0.6579010595874167,-0.2942707757898064 l 8.731392307039188 -19.079667956307702" fill="#f4ff19" stroke="none" /><path d="M 91.26138138417905 119.09545874513695 l -12.655622769594846 27.654819727833033 a51.41305380696306,51.41305380696306 0 0,0 -0.7993782058240858,-0.3741493632974943 l 13.128489689290422 -27.43349413296501" fill="#89ff24" stroke="none" /><path d="M 90.93487009805054 118.94263497670748 l -14.261610435122467 29.801280684839472 a54.038006336033355,54.038006336033355 0 0,0 -0.8333168810588455,-0.4076170445673165 l 14.771087565443382 -29.552069890174934" fill="#6dff28" stroke="none" /><path d="M 90.6110303473126 118.78422872680471 l -5.634104177965381 11.271982492696145 a33.60161573782566,33.60161573782566 0 0,0 -0.5137411485645857,-0.2623198910076857 l 5.826772548243549 -11.173604650015623" fill="#ffa00e" stroke="none" /><path d="M 90.28995756902619 118.62028667847754 l -5.089691974802357 9.760155462725596 a32.00752465611319,32.00752465611319 0 0,0 -0.48500725355059987,-0.25823904437349837 l 5.256488044139519 -9.671345950629524" fill="#ff8b0c" stroke="none" /><path d="M 89.97174638481275 118.45085714620012 l -6.731923175067141 12.385980409814202 a35.09720895593547,35.09720895593547 0 0,0 -0.526885671564683,-0.29225460031228717 l 6.943553034787928 -12.268592894068767" fill="#ffb410" stroke="none" /><line stroke="#e1ed5e" stroke-width="0.3" x1="58.13341422392154" x2="55.67067388415222" y1="173.97424548756322" y2="178.32567169271397" /><path d="M 57.64086615596768 174.84453072859336 a86.0,86.0 0 0,1 -31.369924170532247,-30.572349798747897" fill="none" id="id44" stroke="none" /><text fill="#e1ed5e" style="font-size:6.75px; font-family:Arial;" text-anchor="middle"><textPath startOffset="22.145653131862474" xlink:href="#id44">August</textPath></text><path d="M 89.65649057296885 118.27599006163327 l -5.1504901067910565 9.100422508269672 a31.45682734720115,31.45682734720115 0 0,0 -0.4676694492862457,-0.27000908243718 l 5.305952023937702 -9.01066652855632" fill="#ff840c" stroke="none" /><path d="M 89.34428304082925 118.09573695890944 l -10.877409239235762 18.47221891702158 a42.43690517486564,42.43690517486564 0 0,0 -0.6245646334585512,-0.37503311719237536 l 11.192906629251741 -18.282771799293283" fill="#efff19" stroke="none" /><path d="M 89.03521579738668 117.91015095944536 l -20.562816734920446 33.58781578082117 a60.3823666251827,60.3823666251827 0 0,0 -0.8793854144072254,-0.5488015376541439 l 21.136366278117382 -33.22987844632548" fill="#30ff32" stroke="none" /><path d="M 88.72937992617639 117.7192867562869 l -28.37810011222733 44.61508685356501 a73.87553820937188,73.87553820937188 0 0,0 -1.064210082527679,-0.6898081180729939 l 29.13979582701202 -44.12136489378812" fill="#40ffca" stroke="none" /><path d="M 88.4268655584334 117.5232005979908 l -5.848735999934264 8.855731754349602 a31.61280819113975,31.61280819113975 0 0,0 -0.4502622987451087,-0.3029565691636469 l 5.999894586776378 -8.754025511128834" fill="#ff860c" stroke="none" /><path d="M 88.1277618465304 117.32195027204791 l -5.974423419032151 8.716862316174936 a31.567753963308878,31.567753963308878 0 0,0 -0.44436109677013935,-0.31019855636747484 l 6.123179606976056 -8.613018944002333" fill="#ff850c" stroke="none" /><path d="M 87.83215693770417 117.11559508785305 l -8.853021166115605 12.452882964356514 a36.27907974622986,36.27907974622986 0 0,0 -0.5044847720027046,-0.36520807017371615 l 9.065486948492264 -12.299074122809731" fill="#ffc312" stroke="none" /><path d="M 87.54013794807813 116.9041958592261 l -6.1542931224963064 8.349480586883315 a31.372518976041775,31.372518976041775 0 0,0 -0.4307700989086624,-0.32325791301019385 l 6.2967162103157355 -8.242603646609107" fill="#ff830c" stroke="none" /><path d="M 87.2517909369889 116.68781488649013 l -6.291874855625185 8.236266157909602 a31.36454385985102,31.36454385985102 0 0,0 -0.4250493939793243,-0.3305209796465971 l 6.432334194239737 -8.127044126642213" fill="#ff830c" stroke="none" /><path d="M 86.96720088162412 116.46651593811092 l -28.464380446039602 35.963814835624774 a66.86520393182599,66.86520393182599 0 0,0 -0.8939216425665935,-0.7200799978587619 l 29.077552858961457 -35.4698865439726" fill="#38ff7e" stroke="none" /><path d="M 86.68645165197938 116.24036423190432 l -16.149227531300586 19.69943176052021 a46.47283183207374,46.47283183207374 0 0,0 -0.6126129816807715,-0.5110635376538109 l 16.48501484714325 -19.419306038954527" fill="#c0ff1e" stroke="none" /><path d="M 86.40962598614128 116.0094264158162 l -6.256893649030791 7.370604985822978 a30.668223000754605,30.668223000754605 0 0,0 -0.39842478827687694,-0.34414984271467536 l 6.38249791707053 -7.26211101064358" fill="#ff790b" stroke="none" /><path d="M 86.13680546590413 115.77377054828092 l -10.41211338133346 11.847073702666671 a36.77229407480597,36.77229407480597 0 0,0 -0.4705714981826714,-0.42078793536279474 l 10.613949906339503 -11.666590237420495" fill="#ffc912" stroke="none" /><path d="M 85.86807049272751 115.53346607816431 l -7.163346302412906 7.873772419924161 a31.644708655902754,31.644708655902754 0 0,0 -0.39867846694262243,-0.36901083707817794 l 7.297454540669496 -7.749643836713606" fill="#ff860c" stroke="none" /><path d="M 85.60350026404147 115.28858382429668 l -10.844752340691944 11.51675117252849 a36.81910904257505,36.81910904257505 0 0,0 -0.4564298633194041,-0.4372494841987741 l 11.040854689876662 -11.328889558024134" fill="#ffca12" stroke="none" /><path d="M 85.34317274990678 115.03919595460226 l -7.314546352808543 7.505368934344875 a31.48013125814815,31.48013125814815 0 0,0 -0.3837699027359645,-0.38048983780683915 l 7.44230817567447 -7.378699086309376" fill="#ff840c" stroke="none" /><path d="M 85.08716467003676 114.78537596483092 l -44.73850598988974 44.35612789449277 a84.0,84.0 0 0,0 -1.0064527953967621,-1.0327092317290507 l 45.493345586437314 -43.581595970695986" fill="#4dd2ff" stroke="none" /><path d="M 84.58840730492382 114.26474011684316 l -11.65197860774467 10.784897445388395 a36.87710988759871,36.87710988759871 0 0,0 -0.4260224592875282,-0.46827331090729235 l 11.835398767874079 -10.58328655892343" fill="#ffcb12" stroke="none" /><path d="M 84.3458050057657 113.99807769240083 l -6.1410597805309015 5.4913735234045 a29.238191452109024,29.238191452109024 0 0,0 -0.3313507654982096,-0.3770163459158913 l 6.234421609987703 -5.385144899677308" fill="#ff6609" stroke="none" /><path d="M 84.1078160697243 113.72728997021213 l -11.661362563373778 10.072807240183435 a36.409374501657986,36.409374501657986 0 0,0 -0.4045002385972541,-0.47650026396618184 l 11.832557365478145 -9.8711401937677" fill="#ffc512" stroke="none" /><path d="M 83.8745106332314 113.45245675266167 l -8.217128839235887 6.855021130005008 a31.701052333925727,31.701052333925727 0 0,0 -0.3450179211619705,-0.4208657646883374 l 8.333593579636487 -6.712953083618175" fill="#ff870c" stroke="none" /><path d="M 83.64595745247003 113.17365903436017 l -8.20518466183065 6.609515949024151 a31.536164217358497,31.536164217358497 0 0,0 -0.3359856468677847,-0.42450688903232114 l 8.317436739339996 -6.467689116077149" fill="#ff850c" stroke="none" /><path d="M 82.78059297857968 112.02048342749411 l -6.742685043206248 4.706917823467987 a29.223069803227858,29.223069803227858 0 0,0 -0.283617216555238,-0.4138059949572973 l 6.822491996576811 -4.590477093440638" fill="#ff6609" stroke="none" /><path d="M 82.576782715395 111.72311816256416 l -4.24513095602805 2.856313561390797 a26.116606687523735,26.116606687523735 0 0,0 -0.24708245176811808,-0.3741143238624658 l 4.293537846716895 -2.7830193591892702" fill="#ff3a05" stroke="none" /><path d="M 82.37810715431573 111.42229804090323 l -6.319716422464572 4.096363832393851 a28.531202580445758,28.531202580445758 0 0,0 -0.26287061599781003,-0.4132762699973423 l 6.389104730088272 -3.9872738877178366" fill="#ff5c08" stroke="none" /><path d="M 81.99639281039703 110.81064883170644 l -39.54413986085 23.745119791016833 a67.12558629680717,67.12558629680717 0 0,0 -0.5847159265066135,-0.9929754743196688 l 39.94592949748639 -23.062793148403607" fill="#38ff81" stroke="none" /><line stroke="#e1ed5e" stroke-width="0.3" x1="26.387840678322732" x2="22.057713659400548" y1="142.50000000000003" y2="145.00000000000006" /><path d="M 25.521815274538298 143.00000000000003 a86.0,86.0 0 0,1 -11.493303480769221,-40.785679425670985" fill="none" id="id45" stroke="none" /><text fill="#e1ed5e" style="font-size:6.75px; font-family:Arial;" text-anchor="middle"><textPath startOffset="21.40746469413373" xlink:href="#id45">September</textPath></text><path d="M 81.63589988554817 110.18625677009913 l -9.352613286197066 5.18773693297782 a31.695045103548278,31.695045103548278 0 0,0 -0.25983092422512916,-0.4780596352073274 l 9.440289560037526 -5.026422464295905" fill="#ff870c" stroke="none" /><path d="M 81.4637452351635 109.86951160357371 l -6.995857855364092 3.724900264720616 a28.925711899544115,28.925711899544115 0 0,0 -0.2296039415623475,-0.44029583236028874 l 7.058769865901389 -3.6042581892558245" fill="#ff6209" stroke="none" /><path d="M 81.29705330413844 109.54985784667822 l -8.09955630131251 4.135691159073702 a30.094325353833103,30.094325353833103 0 0,0 -0.23098123677928778,-0.4621172017549845 l 8.169357451303537 -3.996042101154965" fill="#ff710a" stroke="none" /><path d="M 81.1358732173502 109.22738970284198 l -9.301545579961177 4.549852049552054 a31.35470443078451,31.35470443078451 0 0,0 -0.23235439856982482,-0.48553132773023766 l 9.378279236490913 -4.389508219756712" fill="#ff820c" stroke="none" /><path d="M 80.9802524753101 108.90220220490708 l -4.76038546050717 2.2281007614703054 a26.256015861455577,26.256015861455577 0 0,0 -0.18756239382049497,-0.40985768012052504 l 4.797932319182721 -2.1460540991350916" fill="#ff3c05" stroke="none" /><path d="M 80.41425534168474 107.57618678355246 l -9.687790058226591 3.747445311955818 a31.38732990611031,31.38732990611031 0 0,0 -0.1900716800500358,-0.504187713206759 l 9.750692422091063 -3.580589318554914" fill="#ff830c" stroke="none" /><path d="M 80.16572619554312 106.89939002012753 l -4.964446014508672 1.7268920266829462 a26.25622300733066,26.25622300733066 0 0,0 -0.14442745389493863,-0.4269741043636387 l 4.993358889975979 -1.641416247845146" fill="#ff3c05" stroke="none" /><path d="M 80.05021161711548 106.5578916946017 l -4.996704260372624 1.6425159375420226 a26.2597444872071,26.2597444872071 0 0,0 -0.13709497859388647,-0.42944806782184214 l 5.0241639547437655 -1.556498836028789" fill="#ff3c05" stroke="none" /><path d="M 79.94057633289273 106.21446072829308 l -4.591624624453317 1.4224970458407753 a25.806923604272466,25.806923604272466 0 0,0 -0.12746614693430158,-0.4242933470267731 l 4.615367091391248 -1.3434660952232786" fill="#ff3605" stroke="none" /><path d="M 79.2786578344484 103.40968896794605 l -45.86427203031361 7.546948509185711 a67.48104861845209,67.48104861845209 0 0,0 -0.1782737088712736,-1.1446450958833827 l 45.987067231323145 -6.758515231370879" fill="#38ff85" stroke="none" /><path d="M 79.22317932658666 103.0534771498775 l -5.141952882062687 0.75569000079095 a26.19718643293159,26.19718643293159 0 0,0 -0.06157022863288409,-0.4454915032124745 l 5.154167627250784 -0.6673101893783898" fill="#ff3c05" stroke="none" /><path d="M 79.17382384314188 102.69636545807758 l -5.250720320003044 0.6798108685074215 a26.294544994221287,26.294544994221287 0 0,0 -0.054114065590557606,-0.44814209123114185 l 5.261616471853263 -0.5895751003528804" fill="#ff3d05" stroke="none" /><path d="M 79.13060592940153 102.33845913500099 l -5.207784718204342 0.5835431400742257 a26.240376347886702,26.240376347886702 0 0,0 -0.04631752245699224,-0.4480800139021952 l 5.217034633143001 -0.4940586038890991" fill="#ff3c05" stroke="none" /><path d="M 79.0935383218832 101.97986365728391 l -5.29117187524178 0.5010794777960534 a26.314845289979566,26.314845289979566 0 0,0 -0.038728406532508905,-0.4500827890345883 l 5.298993904472029 -0.41017564138580315" fill="#ff3d05" stroke="none" /><path d="M 79.01933749520258 100.90099992219065 l -5.570714666153693 0.23923045707460835 a26.575849092585987,26.575849092585987 0 0,0 -0.015661164325965767,-0.45595771152133574 l 5.574000517476506 -0.14356648098915276" fill="#ff4106" stroke="none" /><path d="M 79.00696218219943 100.54070618675478 l -10.462057811617228 0.2694654977533006 a31.465527473954694,31.465527473954694 0 0,0 -0.009272693764601046,-0.5400879246974991 l 10.465141936980496 -0.08983065708674907" fill="#ff840c" stroke="none" /><line stroke="#e1ed5e" stroke-width="0.3" x1="15.003131293944662" x2="10.003315487706104" y1="100.72959589197737" y2="100.7725132973878" /><path d="M 14.003168132696942 100.73817937305945 a86.0,86.0 0 0,1 10.791469493833604,-42.45332614584628" fill="none" id="id46" stroke="none" /><text fill="#e1ed5e" style="font-size:6.75px; font-family:Arial;" text-anchor="middle"><textPath startOffset="22.145653131862435" xlink:href="#id46">October</textPath></text><path d="M 79.00696218219943 99.45929381324524 l -56.168033746126596 -1.4466893075679101 a77.18666144965945,77.18666144965945 0 0,0 0.045486147386079596,-1.3242795514057624 l 56.134922911743665 2.410675123537811" fill="#45ffeb" stroke="none" /><path d="M 79.13060592940154 97.66154086499901 l -5.046392386040843 -0.5654587926231178 a26.077973981820485,26.077973981820485 0 0,0 0.053668363336615794,-0.4444510371961745 l 5.035941936444559 0.6520035067427287" fill="#ff3a05" stroke="none" /><path d="M 79.2786578344484 96.59031103205396 l -5.243502783257794 -0.8628163875982457 a26.314016706479226,26.314016706479226 0 0,0 0.07716921530385325,-0.4450915269516829 l 5.227918750461706 0.9527009474705214" fill="#ff3d05" stroke="none" /><path d="M 79.34024301695615 96.23510406497455 l -5.280700279546221 -0.9623195003149624 a26.367667488126102,26.367667488126102 0 0,0 0.08497132489488848,-0.44460587731428186 l 5.263402662369174 1.0528279426625589" fill="#ff3e05" stroke="none" /><path d="M 79.48165901384962 95.52812308129327 l -5.179686379674322 -1.1288885384563927 a26.301277235161532,26.301277235161532 0 0,0 0.09993125002507729,-0.4403155261635412 l 5.159544268091583 1.217638398558942" fill="#ff3d05" stroke="none" /><path d="M 79.56144815229197 95.17655741523228 l -5.144625298263563 -1.214117562301778 a26.285948440405285,26.285948440405285 0 0,0 0.10741248826363006,-0.43827960671710686 l 5.123025283483635 1.3022529936270024" fill="#ff3d05" stroke="none" /><path d="M 79.64726062577567 94.8264132398404 l -5.031377778118389 -1.2789565561479392 a26.191386348429226,26.191386348429226 0 0,0 0.11450689424253853,-0.43480132850318726 l 5.008681403071125 1.365138389023911" fill="#ff3b05" stroke="none" /><path d="M 79.83685265289637 94.1308016681162 l -9.639654255174834 -2.8059628638549725 a31.039739127718583,31.039739127718583 0 0,0 0.15331218897401416,-0.5103264150073764 l 9.59006574619719 2.971026882453072" fill="#ff7e0b" stroke="none" /><path d="M 80.28708602549916 92.7611449362534 l -4.908694376373853 -1.8025405675062354 a26.22919047063214,26.22919047063214 0 0,0 0.15883562934529533,-0.42133037764636594 l 4.877028063214121 1.8865392253467461" fill="#ff3c05" stroke="none" /><path d="M 81.1358732173502 90.77261029715801 l -8.88231312801514 -4.344784449299181 a30.88800477421922,30.88800477421922 0 0,0 0.2370729185821295,-0.47430464601652733 l 8.806420296221265 4.496620951479478" fill="#ff7c0b" stroke="none" /><path d="M 81.46374523516351 90.13048839642627 l -7.618256353584478 -4.056292408288148 a29.630836458331622,29.630836458331622 0 0,0 0.24290887100422873,-0.4469249632514553 l 7.547502132964898 4.186472205014224" fill="#ff6b09" stroke="none" /><line stroke="#e1ed5e" stroke-width="0.3" x1="26.387840678322718" x2="22.05771365940052" y1="57.49999999999999" y2="54.99999999999999" /><path d="M 25.521815274538284 56.99999999999999 a86.0,86.0 0 0,1 29.574782752854787,-30.34633250058573" fill="none" id="id47" stroke="none" /><text fill="#e1ed5e" style="font-size:6.75px; font-family:Arial;" text-anchor="middle"><textPath startOffset="21.40746469413373" xlink:href="#id47">November</textPath></text><path d="M 81.81346652052679 89.5 l -4.575523212609306 -2.6416795584833648 a26.28335911696673,26.28335911696673 0 0,0 0.22894844612349344,-0.38880451442886604 l 4.529501056356033 2.7198352412058036" fill="#ff3d05" stroke="none" /><path d="M 82.37810715431573 88.57770195909679 l -8.256636412989721 -5.351851969048817 a30.83942906651191,30.83942906651191 0 0,0 0.29176385110255393,-0.4417676573210481 l 8.163548122966438 5.492799504708926" fill="#ff7c0b" stroke="none" /><path d="M 82.78059297857968 87.97951657250589 l -7.732592805299251 -5.397950321520021 a30.4303159632201,30.4303159632201 0 0,0 0.30268731198471627,-0.4257676108770897 l 7.638790394784562 5.529895159106631" fill="#ff760a" stroke="none" /><path d="M 83.2033758604659 87.39550010848427 l -7.739071627008911 -5.807543627381068 a30.675783825195186,30.675783825195186 0 0,0 0.319682601583367,-0.41847478742199856 l 7.638237048071236 5.939539328043951" fill="#ff790b" stroke="none" /><path d="M 83.8745106332314 86.54754324733833 l -7.788373803160038 -6.4973384297092505 a31.14269062763556,31.14269062763556 0 0,0 0.3459885252592099,-0.40757361277957693 l 7.675690714393713 6.630078824938384" fill="#ff800b" stroke="none" /><path d="M 84.10781606972428 86.27271002978789 l -7.8715647350545055 -6.799270138796741 a31.401519398553596,31.401519398553596 0 0,0 0.3558673424640661,-0.4049117100570762 l 7.753686328631847 6.933394126665117" fill="#ff830c" stroke="none" /><path d="M 84.58840730492382 85.73525988315684 l -7.584267965492156 -7.019885202313262 a31.33440413502623,31.33440413502623 0 0,0 0.3687673897772276,-0.39161818870417414 l 7.462644741978657 7.149044850961947" fill="#ff820c" stroke="none" /><path d="M 84.83555147118756 85.47280134310135 l -7.36249860592288 -7.053107118017761 a31.195719971657184,31.195719971657184 0 0,0 0.3737740424986887,-0.38352509529959006 l 7.240337762273389 7.178454905385081" fill="#ff800b" stroke="none" /><path d="M 85.60350026404147 84.71141617570332 l -6.978432762501384 -7.410853763657372 a31.179355447525513,31.179355447525513 0 0,0 0.39281567623977914,-0.36358432553000725 l 6.850187314947651 7.529555835319745" fill="#ff800b" stroke="none" /><path d="M 85.86807049272753 84.46653392183569 l -7.016001966890636 -7.711815184256739 a31.42575546593848,31.42575546593848 0 0,0 0.40215235962826773,-0.359607119774103 l 6.8825845804389765 7.831117833914243" fill="#ff830c" stroke="none" /><path d="M 86.13680546590413 84.22622945171909 l -3.469017904383545 -3.947105576355025 a26.254876559142616,26.254876559142616 0 0,0 0.3410890038870229,-0.2946245577417469 l 3.4007494207336735 4.006074266561483" fill="#ff3c05" stroke="none" /><path d="M 86.40962598614128 83.9905735841838 l -6.644920659371125 -7.827699828323854 a31.26780673618658,31.26780673618658 0 0,0 0.4121776866210284,-0.3438532857866799 l 6.5095686385881875 7.940615298022416" fill="#ff810b" stroke="none" /><path d="M 86.68645165197937 83.75963576809568 l -6.636823561336571 -8.095845612414434 a31.46853108914342,31.46853108914342 0 0,0 0.4207031362537629,-0.3388886665535836 l 6.496869654727562 8.208582572761417" fill="#ff840c" stroke="none" /><path d="M 86.96720088162412 83.53348406188908 l -2.0677701478414927 -2.612560033076381 a24.33183782779602,24.33183782779602 0 0,0 0.32974281307327225,-0.2564100058773514 l 2.0226173901329756 2.6476710905745375" fill="#ff2103" stroke="none" /><path d="M 87.54013794807813 83.09580414077388 l -3.1066130809865067 -4.214717286675708 a26.235922711572385,26.235922711572385 0 0,0 0.3648279829590494,-0.26410732493056716 l 3.0338040876534897 4.267425382979355" fill="#ff3c05" stroke="none" /><path d="M 87.83215693770416 82.88440491214696 l -5.787590572533826 -8.14097094009315 a30.988574096572723,30.988574096572723 0 0,0 0.43620831526059023,-0.30450728169689256 l 5.646987166099471 8.239123037595169" fill="#ff7e0b" stroke="none" /><path d="M 88.12776184653039 82.6780497279521 l -2.980477952526226 -4.348606405398505 a26.271966093837083,26.271966093837083 0 0,0 0.3741925036979386,-0.25177341616882287 l 2.905389160731298 4.399129495624437" fill="#ff3d05" stroke="none" /><path d="M 88.4268655584334 82.4767994020092 l -5.7825241096678965 -8.75547851345209 a31.492663583590762,31.492663583590762 0 0,0 0.45366586726343533,-0.2940607341246477 l 5.6313726101474355 8.853453089280645" fill="#ff840c" stroke="none" /><path d="M 88.72937992617638 82.28071324371311 l -5.5222549338395845 -8.681901978160406 a31.289349907195362,31.289349907195362 0 0,0 0.4556859804033837,-0.28438175416110484 l 5.372404824646503 8.775419529163047" fill="#ff820b" stroke="none" /><line stroke="#e1ed5e" stroke-width="0.3" x1="56.869717070023135" x2="54.33264160355391" y1="26.7553504044142" y2="22.446841604673864" /><path d="M 56.362301976729285 25.89364864446614 a86.0,86.0 0 0,1 42.16139366436587,-11.88097634709845" fill="none" id="id48" stroke="none" /><text fill="#e1ed5e" style="font-size:6.75px; font-family:Arial;" text-anchor="middle"><textPath startOffset="22.145653131862474" xlink:href="#id48">December</textPath></text><path d="M 89.34428304082924 81.90426304109057 l -2.653790606281222 -4.506716623507889 a26.23001905413248,26.23001905413248 0 0,0 0.38996235794597117,-0.22514487233392644 l 2.576035780474851 4.55160839311799" fill="#ff3c05" stroke="none" /><path d="M 89.65649057296885 81.72400993836675 l -2.5927175711159967 -4.581083518762587 a26.26388740470879,26.26388740470879 0 0,0 0.39427824504515147,-0.218699496183502 l 2.5136951379147425 4.624915930379235" fill="#ff3c05" stroke="none" /><path d="M 89.97174638481275 81.54914285379989 l -4.738050477769525 -8.717479221348778 a30.921873124795525,30.921873124795525 0 0,0 0.46855646976851767,-0.2494799286036176 l 4.587705192214445 8.797529617674972" fill="#ff7d0b" stroke="none" /><path d="M 90.28995756902619 81.37971332152246 l -4.329145123602335 -8.301706593688303 a30.362682835005025,30.362682835005025 0 0,0 0.46422052066973274,-0.2370343055561338 l 4.18599738121902 8.374798850917271" fill="#ff750a" stroke="none" /><path d="M 90.61103034731259 81.2157712731953 l -4.677266408037968 -9.357665992629727 a31.461488129390546,31.461488129390546 0 0,0 0.4851657368412719,-0.2373188738541795 l 4.515940421934643 9.436578616581121" fill="#ff840c" stroke="none" /><path d="M 90.93487009805054 81.0573650232925 l -2.266822716794135 -4.736787640727081 a26.251251506328636,26.251251506328636 0 0,0 0.40815856627683306,-0.19103881815174306 l 2.185175436645779 4.775002690449367" fill="#ff3c05" stroke="none" /><path d="M 92.25597844496254 80.48000691201159 l -1.9405918347858695 -4.891559112072181 a26.262437383583197,26.262437383583197 0 0,0 0.4204838048994063,-0.1626521687560255 l 1.8563357673929337 4.924151168966247" fill="#ff3c05" stroke="none" /><path d="M 92.592206182469 80.34994680014964 l -1.676763441688111 -4.447814240558499 a25.75337639556313,25.75337639556313 0 0,0 0.4150105692282428,-0.1523976295159739 l 1.6001637208057413 4.475942719083195" fill="#ff3505" stroke="none" /><path d="M 93.27111125876988 80.10723608172694 l -1.3567250925838275 -4.010916661973711 a25.234165259663932,25.234165259663932 0 0,0 0.41152989694636566,-0.1352780511486622 l 1.2876724579897008 4.033615634524402" fill="#ff2e04" stroke="none" /><path d="M 93.95794788825049 79.88797359093562 l -1.0116094233497486 -3.367318762197401 a24.515990510746104,24.515990510746104 0 0,0 0.404093554849613,-0.11762574449415421 l 0.9536558561185113 3.3841882009940756" fill="#ff2403" stroke="none" /><path d="M 94.30408787586887 79.78721728523814 l -1.0897920766608364 -3.867287621326279 a25.017904966075754,25.017904966075754 0 0,0 0.41436631699284954,-0.1129373823015645 l 1.0232443587333093 3.8854254977719833" fill="#ff2b04" stroke="none" /><path d="M 94.6519064749342 79.69241777938228 l -1.344701296837679 -5.106049851169428 a26.280148355902917,26.280148355902917 0 0,0 0.4372449870859172,-0.11114596588401959 l 1.2568510165263838 5.12838104888871" fill="#ff3d05" stroke="none" /><path d="M 95.00130118170881 79.60360301121753 l -1.2464717643106598 -5.086030157920053 a26.236544149197638,26.236544149197638 0 0,0 0.43835998756842126,-0.10345176347378332 l 1.1589796230023326 5.106678065040069" fill="#ff3c05" stroke="none" /><path d="M 95.35216902796891 79.52079915486377 l -2.0919124875160486 -9.217352403753273 a30.451755561291343,30.451755561291343 0 0,0 0.5107739423149802,-0.11132080341470947 l 1.93337612858195 9.251904665301696" fill="#ff760a" stroke="none" /><path d="M 95.70440661134978 79.44403061299748 l -2.142969804026696 -10.254886276069412 a31.476402632396628,31.476402632396628 0 0,0 0.5298580453997249,-0.10598644861996734 l 1.9666152730959943 10.290162121352246" fill="#ff840c" stroke="none" /><path d="M 96.41257539226777 79.30868818359171 l -0.916426458565847 -5.285704282153401 a26.364560299999837,26.364560299999837 0 0,0 0.4465936771820842,-0.07348681963148726 l 0.82555527833069 5.300657100280557" fill="#ff3e05" stroke="none" /><path d="M 96.76829788921471 79.25015418208739 l -1.4629996696093703 -9.393507364041925 a30.506752791126264,30.506752791126264 0 0,0 0.5181425157155916,-0.0761491065927186 l 1.3015320482860937 9.41723754393353" fill="#ff770b" stroke="none" /><path d="M 97.12497278360702 79.19773525538626 l -1.3594138391640287 -9.836041348944391 a30.929537522173653,30.929537522173653 0 0,0 0.5265712201351399,-0.06817518676959132 l 1.1903647971380946 9.857928131914377" fill="#ff7d0b" stroke="none" /><path d="M 97.48249496171623 79.15144685158666 l -0.6319102495123504 -5.233123358897656 a26.271137510336743,26.271137510336743 0 0,0 0.4481907330505817,-0.05022070647472665 l 0.5419836148609694 5.243199825879353" fill="#ff3d05" stroke="none" /><path d="M 97.84075906011542 79.11130261209362 l -0.5418238727702515 -5.241654466058 a26.26958391627361,26.26958391627361 0 0,0 0.4489602446306939,-0.042517001948733396 l 0.451764064754542 5.250183223511916" fill="#ff3d05" stroke="none" /><path d="M 98.1996594967304 79.07731436759882 l -0.4430267747722614 -5.148642669796445 a26.167668145732055,26.167668145732055 0 0,0 0.44787958409566675,-0.03466871239746046 l 0.35457819590137746 5.155489149188959" fill="#ff3b05" stroke="none" /><path d="M 98.9189461498227 79.02784411241856 l -0.25383661302967575 -4.924362479779328 a25.930900410510517,25.930900410510517 0 0,0 0.44474487296626225,-0.01909925846458213 l 0.1692659794625934 4.9279943066697385" fill="#ff3805" stroke="none" /><path d="M 99.27912038922189 79.0123766808444 l -0.18111260699513745 -5.272895941475306 a26.276005438401228,26.276005438401228 0 0,0 0.450929643781168,-0.011614348066237727 l 0.09056964914322554 5.275228006891589" fill="#ff3d05" stroke="none" /></svg>